<?xml version="1.0" encoding="UTF-8" standalone="no"?>
<!-- Created with Inkscape (http://www.inkscape.org/) -->

<svg
   width="336"
   height="192"
   viewBox="0 0 88.9 50.8"
   version="1.1"
   id="svg1"
   inkscape:version="1.3 (0e150ed6c4, 2023-07-21)"
   sodipodi:docname="business_card.svg"
   xml:space="preserve"
   xmlns:inkscape="http://www.inkscape.org/namespaces/inkscape"
   xmlns:sodipodi="http://sodipodi.sourceforge.net/DTD/sodipodi-0.dtd"
   xmlns="http://www.w3.org/2000/svg"
   xmlns:svg="http://www.w3.org/2000/svg"><sodipodi:namedview
     id="namedview1"
     pagecolor="#ffffff"
     bordercolor="#666666"
     borderopacity="1.0"
     inkscape:showpageshadow="2"
     inkscape:pageopacity="0.0"
     inkscape:pagecheckerboard="0"
     inkscape:deskcolor="#d1d1d1"
     inkscape:document-units="px"
     inkscape:zoom="8"
     inkscape:cx="143.125"
     inkscape:cy="150.8125"
     inkscape:window-width="2560"
     inkscape:window-height="1417"
     inkscape:window-x="-8"
     inkscape:window-y="-8"
     inkscape:window-maximized="1"
     inkscape:current-layer="layer1" /><defs
     id="defs1" /><g
     inkscape:label="Layer 1"
     inkscape:groupmode="layer"
     id="layer1"><rect
       style="fill:#161616;stroke-width:0.264999;stroke-linecap:round;stroke-linejoin:round;paint-order:stroke markers fill;fill-opacity:1"
       id="rect3"
       width="88.900002"
       height="50.799999"
       x="0"
       y="0" /><path
       style="fill:#f985a5;fill-opacity:1;stroke:none;stroke-width:0.264583px;stroke-linecap:butt;stroke-linejoin:miter;stroke-opacity:1"
       d="M 23.812499,5.6706054e-7 H 18.520832 L 3.96875,50.799999 h 5.2916667 z"
       id="path3"
       sodipodi:nodetypes="ccccc" /><path
       style="fill:#fcb385;fill-opacity:1;stroke:none;stroke-width:0.264583px;stroke-linecap:butt;stroke-linejoin:miter;stroke-opacity:1"
       d="M 29.104166,7.0000001e-7 H 23.812499 L 9.2604167,50.799999 h 5.2916673 z"
       id="path3-1"
       sodipodi:nodetypes="ccccc" /><path
       style="fill:#fde3ab;fill-opacity:1;stroke:none;stroke-width:0.264583px;stroke-linecap:butt;stroke-linejoin:miter;stroke-opacity:1"
       d="M 34.395833,8e-7 H 29.104166 L 14.552084,50.799999 h 5.291667 z"
       id="path3-6"
       sodipodi:nodetypes="ccccc" /><path
       style="fill:#93f88c;fill-opacity:1;stroke:none;stroke-width:0.264583px;stroke-linecap:butt;stroke-linejoin:miter;stroke-opacity:1"
       d="M 39.6875,1e-6 H 34.395833 L 19.843751,50.799999 h 5.291667 z"
       id="path3-4"
       sodipodi:nodetypes="ccccc" /><path
       style="fill:#75aaff;fill-opacity:1;stroke:none;stroke-width:0.264583px;stroke-linecap:butt;stroke-linejoin:miter;stroke-opacity:1"
       d="M 44.979167,1.6370605e-6 H 39.6875 L 25.135418,50.799999 h 5.291667 z"
       id="path3-3"
       sodipodi:nodetypes="ccccc" /><path
       style="fill:#99a4ff;fill-opacity:1;stroke:none;stroke-width:0.264583px;stroke-linecap:butt;stroke-linejoin:miter;stroke-opacity:1"
       d="M 50.270834,1.6e-6 H 44.979167 L 30.427085,50.799999 h 5.291667 z"
       id="path3-3-9"
       sodipodi:nodetypes="ccccc" /><text
       xml:space="preserve"
       style="font-size:5.8738px;line-height:1.25;font-family:Calibri;-inkscape-font-specification:Calibri;fill:#f8f8f8;fill-opacity:1;stroke-width:0.146845"
       x="1.8176665"
       y="47.483559"
       id="text3"><tspan
         id="tspan3"
         style="font-style:normal;font-variant:normal;font-weight:normal;font-stretch:normal;font-family:'Lucida Sans';-inkscape-font-specification:'Lucida Sans';fill:#f8f8f8;fill-opacity:1;stroke-width:0.146845"
         x="1.8176665"
         y="47.483559"
         sodipodi:role="line">worldwide-lgbt-resources.com</tspan></text><text
       xml:space="preserve"
       style="font-size:5.8738px;line-height:1.25;font-family:Calibri;-inkscape-font-specification:Calibri;fill:#161616;fill-opacity:1;stroke-width:0.146845"
       x="6.3404408"
       y="47.483559"
       id="text3-3"><tspan
         id="tspan3-7"
         style="font-style:normal;font-variant:normal;font-weight:normal;font-stretch:normal;font-family:'Lucida Sans';-inkscape-font-specification:'Lucida Sans';fill:#161616;fill-opacity:1;stroke-width:0.146845"
         x="6.3404408"
         y="47.483559"
         sodipodi:role="line">orldwide-l</tspan></text><text
       xml:space="preserve"
       style="font-size:10.8432px;line-height:1.25;font-family:Calibri;-inkscape-font-specification:Calibri;fill:#f8f8f8;fill-opacity:1;stroke-width:0.27108"
       x="53.243195"
       y="22.36618"
       id="text3-5"><tspan
         id="tspan3-2"
         style="font-style:normal;font-variant:normal;font-weight:normal;font-stretch:normal;font-family:'Lucida Sans';-inkscape-font-specification:'Lucida Sans';fill:#f8f8f8;fill-opacity:1;stroke-width:0.27108"
         x="53.243195"
         y="22.36618"
         sodipodi:role="line">Pongo</tspan></text><text
       xml:space="preserve"
       style="font-size:4.89634px;line-height:1.25;font-family:Calibri;-inkscape-font-specification:Calibri;stroke-width:0.122409;fill:#f8f8f8;fill-opacity:1"
       x="1.8233938"
       y="40.530495"
       id="text1"><tspan
         sodipodi:role="line"
         id="tspan1"
         style="font-style:normal;font-variant:normal;font-weight:normal;font-stretch:normal;font-family:'Lucida Sans Unicode';-inkscape-font-specification:'Lucida Sans Unicode';stroke-width:0.122409;fill:#f8f8f8;fill-opacity:1"
         x="1.8233938"
         y="40.530495">worldwidelgbtresources@gmail.com</tspan></text><text
       xml:space="preserve"
       style="font-size:4.89634px;line-height:1.25;font-family:Calibri;-inkscape-font-specification:Calibri;fill:#161616;fill-opacity:1;stroke-width:0.122409"
       x="8.6033421"
       y="40.530495"
       id="text1-1"><tspan
         sodipodi:role="line"
         id="tspan1-8"
         style="font-style:normal;font-variant:normal;font-weight:normal;font-stretch:normal;font-family:'Lucida Sans Unicode';-inkscape-font-specification:'Lucida Sans Unicode';fill:#161616;fill-opacity:1;stroke-width:0.122409"
         x="8.6033421"
         y="40.530495">rldwidelgbtr</tspan></text><path
       style="fill:#161616;fill-opacity:1;stroke-width:0.0156496;stroke-linecap:round;stroke-linejoin:round;paint-order:stroke markers fill"
       d="m 141.95721,167.70318 h -1.66775 c -0.005,0.442 0.0109,0.88862 -0.0128,1.32788 -0.28466,-0.29227 -0.55738,-0.60175 -0.89314,-0.83851 -0.59094,-0.43052 -1.31045,-0.6771 -2.03741,-0.73175 -0.1821,-0.0125 -0.36473,-0.0148 -0.54721,-0.0138 l -4.1e-4,-4e-5 c -1.23986,-0.0139 -2.49041,0.47795 -3.34567,1.38443 -0.73789,0.77645 -1.18444,1.78654 -1.44122,2.81607 -0.3469,1.4771 -0.28412,3.05997 0.23389,4.48993 0.20372,0.53926 0.46677,1.05944 0.79791,1.53186 0.50123,0.6983 1.26851,1.18532 2.10345,1.37672 0.4539,0.11559 0.92342,0.14524 1.39023,0.13209 0.85019,0.0122 1.70141,-0.27358 2.36855,-0.80062 0.0629,-0.0497 0.12424,-0.1016 0.18375,-0.15557 l -1.30395,4.09059 c -0.20207,0.0382 -0.40654,0.0623 -0.60814,0.0761 -1.26115,0.0843 -2.53187,-0.16311 -3.69334,-0.65332 -0.15796,-0.0537 -0.30436,-0.1486 -0.46538,-0.18665 -0.0943,0.59821 -0.16452,1.20325 -0.23362,1.80597 0.009,0.0644 0.13005,0.0504 0.17816,0.0843 0.67292,0.22292 1.36693,0.38055 2.07184,0.45813 0.63134,0.0779 1.26761,0.11448 1.90366,0.0924 0.11869,-7.1e-4 0.23742,-0.004 0.35605,-0.0103 m 2.23937,-7.81552 c -0.47976,0.42449 -1.02015,0.77775 -1.62902,0.98642 -0.34584,0.11618 -0.70816,0.17986 -1.07353,0.17242 -0.62729,0.0303 -1.2916,-0.13967 -1.75046,-0.58738 -0.46594,-0.43981 -0.69841,-1.06367 -0.85098,-1.67189 -0.21392,-0.9326 -0.20252,-1.90465 -0.0797,-2.84914 0.12464,-0.87025 0.43801,-1.75488 1.07982,-2.37994 0.51943,-0.53553 1.25798,-0.81594 2.00029,-0.80061 l 2e-5,0 c 0.94275,0.003 1.85107,0.40207 2.56098,1.00892 0.1742,0.14445 0.33453,0.30436 0.49761,0.46096 v 3.06929"
       id="path54"
       transform="scale(0.26458333)"
       sodipodi:nodetypes="cccccssccccccscccccccccccccccccssccc" /><path
       style="fill:#161616;fill-opacity:1;stroke-width:0.0156496;stroke-linecap:round;stroke-linejoin:round;paint-order:stroke markers fill"
       d="m 18.601563,179.45311 1.383975,5e-5 3.834198,-11.75391 -1.850978,-0.0266 c -1.170817,3.90494 -2.247859,7.86052 -3.367195,11.78041 z"
       id="path55"
       transform="scale(0.26458333)"
       sodipodi:nodetypes="ccccc" /><path
       style="fill:#161616;fill-opacity:1;stroke-width:0.0110659;stroke-linecap:round;stroke-linejoin:round;paint-order:stroke markers fill"
       d="m 26.067677,153.36124 c 0.316044,0.0407 0.635945,0.0521 0.954443,0.0393 0.834082,-0.0139 1.680236,-0.21683 2.388551,-0.6683 0.868828,-0.55548 1.511322,-1.43725 1.812549,-2.42027 0.259509,-0.83728 0.323055,-1.72578 0.268754,-2.59742 -0.07217,-1.04446 -0.376491,-2.10484 -1.039151,-2.93216 -0.414516,-0.53109 -0.959573,-0.96047 -1.576663,-1.2304 m -0.413849,1.47293 c 0.0615,0.0513 0.12012,0.10632 0.175406,0.16511 0.517771,0.51162 0.783888,1.22259 0.901803,1.92894 0.0997,0.62338 0.106982,1.25979 0.05601,1.88817 -0.07195,0.7617 -0.275426,1.54101 -0.758335,2.15036 -0.388793,0.51171 -0.999145,0.8368 -1.636549,0.89822 -0.252438,0.029 -0.511699,0.0302 -0.765929,-0.002"
       id="path56"
       transform="scale(0.26458333)"
       sodipodi:nodetypes="ccccccccccccsc" /><path
       style="fill:#161616;fill-opacity:1;stroke-width:0.0110659;stroke-linecap:round;stroke-linejoin:round;paint-order:stroke markers fill"
       d="m 148.86022,143.63627 c -0.57901,-0.36495 -1.27382,-0.49397 -1.95031,-0.48303 l -4e-5,0 c -0.79603,0.004 -1.59754,0.23537 -2.24503,0.70517 -0.93378,0.66746 -1.55136,1.71475 -1.80842,2.82279 -0.19043,0.84261 -0.21543,1.72141 -0.0915,2.5756 0.14261,1.00688 0.58471,1.97534 1.28631,2.71549 0.55728,0.59261 1.27914,1.02475 2.06146,1.24456 l 0.40104,-1.39928 c -0.2427,-0.0952 -0.47258,-0.22147 -0.68066,-0.38367 -0.54161,-0.4123 -0.88809,-1.02923 -1.08866,-1.67008 -0.12659,-0.39131 -0.19771,-0.79771 -0.24794,-1.2051 h 2.95275 l 0.37891,-1.3322 c -1.08249,-0.002 -2.16498,-0.007 -3.24748,-0.0102 0.0622,-0.65715 0.19469,-1.3346 0.571,-1.89031 0.27725,-0.41858 0.72909,-0.71156 1.22289,-0.7991 0.17604,-0.0325 0.35558,-0.0437 0.53439,-0.0432 l 1e-5,2e-5 c 0,0 0.97928,-0.0402 1.49723,0.71664"
       id="path57"
       transform="scale(0.26458333)"
       sodipodi:nodetypes="cssccccccccccccccscc" /></g></svg>
