<?xml version="1.0" encoding="UTF-8" standalone="no"?>
<!-- Created with Inkscape (http://www.inkscape.org/) -->

<svg
   width="336"
   height="192"
   viewBox="0 0 88.9 50.8"
   version="1.1"
   id="svg1"
   inkscape:version="1.3 (0e150ed6c4, 2023-07-21)"
   sodipodi:docname="business_card.svg"
   xmlns:inkscape="http://www.inkscape.org/namespaces/inkscape"
   xmlns:sodipodi="http://sodipodi.sourceforge.net/DTD/sodipodi-0.dtd"
   xmlns="http://www.w3.org/2000/svg"
   xmlns:svg="http://www.w3.org/2000/svg">
  <sodipodi:namedview
     id="namedview1"
     pagecolor="#ffffff"
     bordercolor="#666666"
     borderopacity="1.0"
     inkscape:showpageshadow="2"
     inkscape:pageopacity="0.0"
     inkscape:pagecheckerboard="0"
     inkscape:deskcolor="#d1d1d1"
     inkscape:document-units="px"
     inkscape:zoom="5.6568543"
     inkscape:cx="170.76629"
     inkscape:cy="134.43868"
     inkscape:window-width="2560"
     inkscape:window-height="1417"
     inkscape:window-x="-8"
     inkscape:window-y="-8"
     inkscape:window-maximized="1"
     inkscape:current-layer="layer1" />
  <defs
     id="defs1" />
  <g
     inkscape:label="Layer 1"
     inkscape:groupmode="layer"
     id="layer1">
    <rect
       style="fill:#161616;stroke-width:0.264999;stroke-linecap:round;stroke-linejoin:round;paint-order:stroke markers fill;fill-opacity:1"
       id="rect3"
       width="88.900002"
       height="50.799999"
       x="0"
       y="0" />
    <path
       style="fill:#f985a5;fill-opacity:1;stroke:none;stroke-width:0.264583px;stroke-linecap:butt;stroke-linejoin:miter;stroke-opacity:1"
       d="M 23.812499,5.6706054e-7 H 18.520832 L 3.96875,50.799999 h 5.2916667 z"
       id="path3"
       sodipodi:nodetypes="ccccc" />
    <path
       style="fill:#fcb385;fill-opacity:1;stroke:none;stroke-width:0.264583px;stroke-linecap:butt;stroke-linejoin:miter;stroke-opacity:1"
       d="M 29.104166,7.0000001e-7 H 23.812499 L 9.2604167,50.799999 h 5.2916673 z"
       id="path3-1"
       sodipodi:nodetypes="ccccc" />
    <path
       style="fill:#fde3ab;fill-opacity:1;stroke:none;stroke-width:0.264583px;stroke-linecap:butt;stroke-linejoin:miter;stroke-opacity:1"
       d="M 34.395833,8e-7 H 29.104166 L 14.552084,50.799999 h 5.291667 z"
       id="path3-6"
       sodipodi:nodetypes="ccccc" />
    <path
       style="fill:#93f88c;fill-opacity:1;stroke:none;stroke-width:0.264583px;stroke-linecap:butt;stroke-linejoin:miter;stroke-opacity:1"
       d="M 39.6875,1e-6 H 34.395833 L 19.843751,50.799999 h 5.291667 z"
       id="path3-4"
       sodipodi:nodetypes="ccccc" />
    <path
       style="fill:#75aaff;fill-opacity:1;stroke:none;stroke-width:0.264583px;stroke-linecap:butt;stroke-linejoin:miter;stroke-opacity:1"
       d="M 44.979167,1.6370605e-6 H 39.6875 L 25.135418,50.799999 h 5.291667 z"
       id="path3-3"
       sodipodi:nodetypes="ccccc" />
    <path
       style="fill:#99a4ff;fill-opacity:1;stroke:none;stroke-width:0.264583px;stroke-linecap:butt;stroke-linejoin:miter;stroke-opacity:1"
       d="M 50.270834,1.6e-6 H 44.979167 L 30.427085,50.799999 h 5.291667 z"
       id="path3-3-9"
       sodipodi:nodetypes="ccccc" />
    <text
       xml:space="preserve"
       style="font-size:6.07169px;line-height:1.25;font-family:Calibri;-inkscape-font-specification:Calibri;fill:#f8f8f8;fill-opacity:1;stroke-width:0.151792"
       x="6.3255367"
       y="44.337276"
       id="text3"><tspan
         id="tspan3"
         style="font-style:normal;font-variant:normal;font-weight:normal;font-stretch:normal;font-family:'Lucida Sans';-inkscape-font-specification:'Lucida Sans';fill:#f8f8f8;fill-opacity:1;stroke-width:0.151792"
         x="6.3255367"
         y="44.337276"
         sodipodi:role="line">https://shorturl.at/a7nDv</tspan></text>
    <text
       xml:space="preserve"
       style="font-size:6.07169px;line-height:1.25;font-family:Calibri;-inkscape-font-specification:Calibri;fill:#161616;fill-opacity:1;stroke-width:0.151792"
       x="6.3255367"
       y="44.337276"
       id="text3-8"><tspan
         sodipodi:role="line"
         id="tspan3-2"
         style="font-style:normal;font-variant:normal;font-weight:normal;font-stretch:normal;font-family:'Lucida Sans';-inkscape-font-specification:'Lucida Sans';fill:#161616;fill-opacity:1;stroke-width:0.151792"
         x="6.3255367"
         y="44.337276">https://sh</tspan></text>
    <path
       style="fill:#161616;fill-opacity:1;stroke:none;stroke-width:0.0156496;stroke-linecap:round;stroke-linejoin:round;paint-order:stroke markers fill"
       d="m 145.53563,155.2211 c -0.38739,-0.0547 -0.80126,-0.0897 -1.1033,-0.0839 -0.82551,0.0157 -1.68251,0.0535 -2.7959,0.57289 -0.9237,0.42811 -1.67837,1.17987 -2.15586,2.07472 -0.52941,0.97545 -0.81096,2.07506 -0.87794,3.17971 -0.0154,0.63629 -0.0225,1.27761 0.0947,1.90597 0.20251,1.21624 0.68074,2.41322 1.50965,3.33963 0.34508,0.3779 0.74807,0.69904 1.19494,0.9522 0.21035,0.11916 0.35533,0.17796 0.62906,0.29321 l 0.51106,-1.78408 c -0.093,-0.0688 -0.11971,-0.0873 -0.23432,-0.18901 -0.71708,-0.63666 -1.09561,-1.56335 -1.25635,-2.4888 -0.15654,-0.93442 -0.16012,-1.89417 -0.0289,-2.83188 0.13582,-0.92398 0.46739,-1.86038 1.14658,-2.527 0.64859,-0.65855 1.53981,-0.85786 2.29794,-0.83109 0.30349,0.0107 0.3887,0.0205 0.60116,0.0495 z"
       id="path4"
       transform="scale(0.26458333)"
       sodipodi:nodetypes="cscccccsccscccscc" />
  </g>
</svg>
