<?xml version="1.0" encoding="UTF-8" standalone="no"?>
<!-- Created with Inkscape (http://www.inkscape.org/) -->

<svg
   width="336"
   height="192"
   viewBox="0 0 88.9 50.8"
   version="1.1"
   id="svg1"
   inkscape:version="1.3 (0e150ed6c4, 2023-07-21)"
   sodipodi:docname="business_card_back.svg"
   xml:space="preserve"
   xmlns:inkscape="http://www.inkscape.org/namespaces/inkscape"
   xmlns:sodipodi="http://sodipodi.sourceforge.net/DTD/sodipodi-0.dtd"
   xmlns:xlink="http://www.w3.org/1999/xlink"
   xmlns="http://www.w3.org/2000/svg"
   xmlns:svg="http://www.w3.org/2000/svg"><sodipodi:namedview
     id="namedview1"
     pagecolor="#ffffff"
     bordercolor="#666666"
     borderopacity="1.0"
     inkscape:showpageshadow="2"
     inkscape:pageopacity="0.0"
     inkscape:pagecheckerboard="0"
     inkscape:deskcolor="#d1d1d1"
     inkscape:document-units="px"
     inkscape:zoom="1.4142136"
     inkscape:cx="253.85134"
     inkscape:cy="163.69522"
     inkscape:window-width="1920"
     inkscape:window-height="1057"
     inkscape:window-x="2552"
     inkscape:window-y="-8"
     inkscape:window-maximized="1"
     inkscape:current-layer="layer1"
     showgrid="false" /><defs
     id="defs1"><linearGradient
       inkscape:collect="always"
       xlink:href="#linearGradient1"
       id="linearGradient8"
       x1="53.719296"
       y1="10.557584"
       x2="56.646381"
       y2="13.48506"
       gradientUnits="userSpaceOnUse"
       gradientTransform="rotate(-90,147.12555,-1.340138)" /><linearGradient
       id="linearGradient1"
       inkscape:collect="always"><stop
         style="stop-color:#f985a5;stop-opacity:1;"
         offset="0"
         id="stop1" /><stop
         style="stop-color:#fcb385;stop-opacity:1;"
         offset="0.18847007"
         id="stop3" /><stop
         style="stop-color:#fde3ab;stop-opacity:1;"
         offset="0.39024389"
         id="stop4" /><stop
         style="stop-color:#93f88c;stop-opacity:1;"
         offset="0.60310423"
         id="stop6" /><stop
         style="stop-color:#75aaff;stop-opacity:1;"
         offset="0.80487806"
         id="stop5" /><stop
         style="stop-color:#99a4ff;stop-opacity:1;"
         offset="1"
         id="stop2" /></linearGradient><linearGradient
       inkscape:collect="always"
       xlink:href="#linearGradient1"
       id="linearGradient9"
       gradientUnits="userSpaceOnUse"
       x1="53.719296"
       y1="10.557584"
       x2="56.646381"
       y2="13.48506"
       gradientTransform="rotate(180,97.102078,51.311947)" /><linearGradient
       inkscape:collect="always"
       xlink:href="#linearGradient1"
       id="linearGradient10"
       gradientUnits="userSpaceOnUse"
       x1="53.719296"
       y1="10.557584"
       x2="56.646381"
       y2="13.48506"
       gradientTransform="rotate(90,47.078413,103.96423)" /><linearGradient
       inkscape:collect="always"
       xlink:href="#linearGradient1"
       id="linearGradient8-8"
       x1="34.173794"
       y1="25.201033"
       x2="42.380905"
       y2="25.201033"
       gradientUnits="userSpaceOnUse"
       gradientTransform="matrix(0.60824693,0,0,0.60824693,-8.7475616,10.07155)" /></defs><g
     inkscape:label="Layer 1"
     inkscape:groupmode="layer"
     id="layer1"><g
       id="g2"
       transform="translate(-105.30417,-78.581253)"><rect
         style="fill:#161616;fill-opacity:1;stroke-width:0.264999;stroke-linecap:round;stroke-linejoin:round;paint-order:stroke markers fill"
         id="rect3-5"
         width="88.900002"
         height="50.799999"
         x="105.30417"
         y="78.581253" /><path
         d="m 135.60639,87.187443 v 0.975696 0.975695 0.975696 0.975695 0.976085 0.975696 0.975695 h 0.97569 0.97569 0.9757 0.97569 0.9757 0.97569 0.9757 V 93.042006 92.06631 91.090225 90.11453 89.138834 88.163139 87.187443 h -0.9757 -0.97569 -0.9757 -0.97569 -0.9757 -0.97569 z m 0.97569,0.975696 h 0.97569 0.9757 0.97569 0.9757 0.97569 v 0.975695 0.975696 0.975695 0.976085 0.975696 h -0.97569 -0.9757 -0.97569 -0.9757 -0.97569 V 92.06631 91.090225 90.11453 89.138834 Z"
         style="fill:#ffffff;fill-opacity:1;stroke-width:0.201944;stroke-linecap:round;stroke-linejoin:round;paint-order:stroke markers fill"
         id="path8-9" /><path
         d="m 137.55777,89.138834 v 0.975696 0.975695 0.976085 h 0.9757 0.97569 0.9757 V 91.090225 90.11453 89.138834 h -0.9757 -0.97569 z"
         style="fill:#ffffff;fill-opacity:1;stroke-width:0.201944;stroke-linecap:round;stroke-linejoin:round;paint-order:stroke markers fill"
         id="path9-3" /><path
         d="m 148.29042,87.187443 v 0.975696 h -0.97569 -0.9757 v 0.975695 h 0.9757 v 0.975696 0.975695 0.976085 h 0.97569 V 91.090225 90.11453 89.138834 h 0.9757 0.9757 0.97608 v -0.975695 h -0.97608 -0.9757 v -0.975696 z"
         style="fill:#ffffff;fill-opacity:1;stroke-width:0.201944;stroke-linecap:round;stroke-linejoin:round;paint-order:stroke markers fill"
         id="path22-3" /><path
         d="m 153.16929,87.187443 v 0.975696 h -0.97569 v 0.975695 h 0.97569 0.9757 v 0.975696 h 0.97569 0.9757 v -0.975696 h -0.9757 v -0.975695 -0.975696 h -0.97569 z"
         style="fill:#ffffff;fill-opacity:1;stroke-width:0.201944;stroke-linecap:round;stroke-linejoin:round;paint-order:stroke markers fill"
         id="path23-2" /><path
         d="m 150.24182,90.11453 v 0.975695 h -0.9757 v 0.976085 h 0.9757 v 0.975696 h 0.97608 V 92.06631 h -3.9e-4 v -0.976085 h 3.9e-4 V 90.11453 Z m 0.97608,0.975695 v 0.976085 h 0.9757 v -0.976085 z"
         style="fill:#ffffff;fill-opacity:1;stroke-width:0.201944;stroke-linecap:round;stroke-linejoin:round;paint-order:stroke markers fill"
         id="path45-0" /><path
         d="m 152.1936,90.11453 v 0.975695 h 0.97569 0.9757 V 90.11453 h -0.9757 z"
         style="fill:#ffffff;fill-opacity:1;stroke-width:0.201944;stroke-linecap:round;stroke-linejoin:round;paint-order:stroke markers fill"
         id="path46-7" /><path
         d="m 155.12068,91.090225 v 0.976085 h -0.97569 v 0.975696 h 0.97569 v 0.975695 h -0.97569 v -0.975695 h -0.9757 v 0.975695 h -0.97569 v 0.975695 h -0.97609 v 0.975696 h 0.97609 0.97569 v 0.975695 0.975696 h 0.9757 v -0.975696 -0.975695 h 0.97569 v -0.975696 h 0.9757 V 94.017701 93.042006 92.06631 91.090225 Z"
         style="fill:#ffffff;fill-opacity:1;stroke-width:0.201944;stroke-linecap:round;stroke-linejoin:round;paint-order:stroke markers fill"
         id="path49-7" /><path
         d="m 148.29042,94.017701 v 0.975695 h -0.97569 v 0.975696 h 0.97569 v 0.975695 h 0.9757 0.9757 v 0.975696 h 0.97569 3.9e-4 0.9757 v -0.975696 h -0.9757 v -0.975695 h -0.97608 -0.9757 v -0.975696 -0.975695 z"
         style="fill:#ffffff;fill-opacity:1;stroke-width:0.201944;stroke-linecap:round;stroke-linejoin:round;paint-order:stroke markers fill"
         id="path50-4" /><rect
         style="fill:#ffffff;fill-opacity:1;stroke-width:0.201944;stroke-linecap:round;stroke-linejoin:round;paint-order:stroke markers fill"
         id="rect1-7-8-28-98-074-7"
         width="0.97571605"
         height="0.97571665"
         x="152.19342"
         y="97.920433" /><rect
         style="fill:#ffffff;fill-opacity:1;stroke-width:0.201944;stroke-linecap:round;stroke-linejoin:round;paint-order:stroke markers fill"
         id="rect1-7-8-28-98-07-3"
         width="0.97571605"
         height="0.97571665"
         x="152.19342"
         y="92.066124" /><rect
         style="fill:#ffffff;fill-opacity:1;stroke-width:0.201944;stroke-linecap:round;stroke-linejoin:round;paint-order:stroke markers fill"
         id="rect1-7-8-28-98-8-7"
         width="0.97571605"
         height="0.97571665"
         x="151.2177"
         y="93.041847" /><rect
         style="fill:#ffffff;fill-opacity:1;stroke-width:0.201944;stroke-linecap:round;stroke-linejoin:round;paint-order:stroke markers fill"
         id="rect1-7-8-28-98-0-2"
         width="0.97571605"
         height="0.97571665"
         x="149.26628"
         y="93.041847" /><rect
         style="fill:#ffffff;fill-opacity:1;stroke-width:0.201944;stroke-linecap:round;stroke-linejoin:round;paint-order:stroke markers fill"
         id="rect1-7-8-28-60-6"
         width="0.97571605"
         height="0.97571665"
         x="151.2177"
         y="87.187546" /><rect
         style="fill:#ffffff;fill-opacity:1;stroke-width:0.201944;stroke-linecap:round;stroke-linejoin:round;paint-order:stroke markers fill"
         id="rect1-7-8-28-94-0"
         width="0.97571605"
         height="0.97571665"
         x="147.31483"
         y="93.041847" /><path
         d="m 143.41195,87.187443 v 0.975696 0.975695 0.975696 0.975695 h 0.97569 v 0.976085 h -0.97569 v 0.975696 0.975695 h 0.97569 v -0.975695 h 0.9757 v 0.975695 0.975695 0.975696 h 0.97569 v -0.975696 h 0.9757 v -0.975695 h -0.9757 V 93.042006 92.06631 91.090225 90.11453 h -0.97569 v -0.975696 h -0.9757 v -0.975695 -0.975696 z"
         style="fill:#ffffff;fill-opacity:1;stroke-width:0.201944;stroke-linecap:round;stroke-linejoin:round;paint-order:stroke markers fill"
         id="path15-6" /><path
         d="m 135.60639,108.65313 v 0.97609 0.97569 0.9757 0.97569 0.9757 0.97569 0.9757 h 0.97569 0.97569 0.9757 0.97569 0.9757 0.97569 0.9757 v -0.9757 -0.97569 -0.9757 -0.97569 -0.9757 -0.97569 -0.97609 h -0.9757 -0.97569 -0.9757 -0.97569 -0.9757 -0.97569 z m 0.97569,0.97609 h 0.97569 0.9757 0.97569 0.9757 0.97569 v 0.97569 0.9757 0.97569 0.9757 0.97569 h -0.97569 -0.9757 -0.97569 -0.9757 -0.97569 v -0.97569 -0.9757 -0.97569 -0.9757 z"
         style="fill:#ffffff;fill-opacity:1;stroke-width:0.201944;stroke-linecap:round;stroke-linejoin:round;paint-order:stroke markers fill"
         id="path12-6" /><path
         d="m 137.55777,110.60491 v 0.9757 0.97569 0.9757 h 0.9757 0.97569 0.9757 v -0.9757 -0.97569 -0.9757 h -0.9757 -0.97569 z"
         style="fill:#ffffff;fill-opacity:1;stroke-width:0.201944;stroke-linecap:round;stroke-linejoin:round;paint-order:stroke markers fill"
         id="path13-7" /><path
         d="m 157.07207,87.187443 v 0.975696 0.975695 0.975696 0.975695 0.976085 0.975696 0.975695 h 0.97569 0.97571 0.97569 0.9757 0.97569 0.97569 0.9757 V 93.042006 92.06631 91.090225 90.11453 89.138834 88.163139 87.187443 h -0.9757 -0.97569 -0.97569 -0.9757 -0.97569 -0.97571 z m 0.97569,0.975696 h 0.97571 0.97569 0.9757 0.97569 0.97569 v 0.975695 0.975696 0.975695 0.976085 0.975696 h -0.97569 -0.97569 -0.9757 -0.97569 -0.97571 V 92.06631 91.090225 90.11453 89.138834 Z"
         style="fill:#ffffff;fill-opacity:1;stroke-width:0.201944;stroke-linecap:round;stroke-linejoin:round;paint-order:stroke markers fill"
         id="path10-1" /><path
         d="m 159.02327,92.066113 h 0.9757 0.97569 0.97609 V 91.090419 90.114724 89.13903 h -0.97609 -0.97569 -0.9757 v 0.975694 0.975695 z"
         style="fill:url(#linearGradient8);fill-opacity:1;stroke-width:0.201944;stroke-linecap:round;stroke-linejoin:round;paint-order:stroke markers fill"
         id="path11-1" /><path
         d="M 140.48486,92.066311 V 91.090615 90.11492 89.138834 h -0.9757 -0.97569 -0.9757 v 0.976086 0.975695 0.975696 h 0.9757 0.97569 z"
         style="fill:url(#linearGradient9);fill-opacity:1;stroke-width:0.201944;stroke-linecap:round;stroke-linejoin:round;paint-order:stroke markers fill"
         id="path11-0" /><path
         d="m 140.48506,110.60511 h -0.9757 -0.9757 -0.97608 v 0.97569 0.9757 0.97569 h 0.97608 0.9757 0.9757 v -0.97569 -0.9757 z"
         style="fill:url(#linearGradient10);fill-opacity:1;stroke-width:0.201944;stroke-linecap:round;stroke-linejoin:round;paint-order:stroke markers fill"
         id="path11-7" /><path
         d="m 158.04776,94.993396 v 0.975696 0.975695 h -0.97569 v 0.975696 h 0.97569 0.97571 0.97569 v 0.975695 0.975695 h -0.97569 v 0.975697 0.97569 h 0.97569 0.9757 0.97569 v 0.9757 h -0.97569 -0.9757 v 0.97569 0.9757 h -0.97569 v -0.9757 -0.97569 h -0.97571 v 0.97569 h -0.97569 v -0.97569 h -0.97569 v 0.97569 0.9757 h 0.97569 v 0.9757 h 0.97569 0.97571 0.97569 0.9757 v 0.97569 h 0.97569 0.97569 v -0.97569 h 0.9757 v -0.9757 -0.9757 h -0.9757 v -0.97569 -0.9757 -0.97569 h -0.97569 v -0.975697 h 0.97569 v -0.975695 h -0.97569 -0.97569 v -0.975695 h 0.97569 v -0.975696 -0.975695 h 0.97569 0.9757 v -0.975696 h -0.9757 -0.97569 -0.97569 -0.9757 v 0.975696 h 0.9757 v 0.975695 h -0.9757 -0.97569 v -0.975695 -0.975696 z"
         style="fill:#ffffff;fill-opacity:1;stroke-width:0.201944;stroke-linecap:round;stroke-linejoin:round;paint-order:stroke markers fill"
         id="path24-8" /><rect
         style="fill:#ffffff;fill-opacity:1;stroke-width:0.201944;stroke-linecap:round;stroke-linejoin:round;paint-order:stroke markers fill"
         id="rect1-7-8-28-98-40-3-5"
         width="0.97571605"
         height="0.97571665"
         x="156.09631"
         y="105.72617" /><path
         d="m 154.14499,97.920483 v 0.975695 0.975695 0.975697 h -0.9757 v 0.97569 h -0.97569 v -0.97569 -0.975697 h -0.9757 -0.9757 v 0.975697 h 0.9757 v 0.97569 0.9757 0.97569 h 0.9757 0.97569 0.9757 v 0.9757 h -0.9757 v 0.9757 h 0.9757 v 0.97569 0.9757 h 0.97569 v 0.97569 0.97609 h -0.97569 v -0.97609 h -0.9757 v 0.97609 h -0.97569 v 0.97569 h 0.97569 0.9757 v 0.9757 0.97569 h -0.9757 v 0.9757 h -0.97569 v 0.9757 0.97569 h 0.97569 0.9757 v -0.9757 -0.97569 h 0.97569 v -0.9757 -0.97569 h 0.9757 0.97569 v 0.97569 0.9757 0.97569 0.9757 h 0.97569 0.97571 0.97569 v -0.9757 h 0.9757 0.97569 V 113.532 h 0.97569 0.9757 v -0.9757 h -0.9757 v -0.97569 h -0.97569 -0.97569 -0.9757 v 0.97569 h 0.9757 v 0.9757 h -0.9757 -0.97569 v 0.97569 h -0.97571 v -0.97569 -0.9757 h 0.97571 v -0.97569 h 0.97569 v -0.9757 h 0.9757 0.97569 0.97569 v -0.97569 h -0.97569 v -0.97609 -0.97569 h -0.97569 v -0.9757 h -0.9757 -0.97569 -0.97571 -0.97569 -0.97569 -0.9757 v -0.97569 -0.9757 -0.9757 -0.97569 h 0.9757 v -0.9757 h -0.9757 v -0.97569 -0.975697 h 0.9757 0.97569 v -0.975695 -0.975695 h -0.97569 -0.9757 z m 1.95139,9.756957 h 0.97569 0.97569 0.97571 v 0.97569 0.97609 0.97569 h -0.97571 -0.97569 -0.97569 v -0.97569 -0.97609 z"
         style="fill:#ffffff;fill-opacity:1;stroke-width:0.201944;stroke-linecap:round;stroke-linejoin:round;paint-order:stroke markers fill"
         id="path34-5" /><rect
         style="fill:#ffffff;fill-opacity:1;stroke-width:0.201944;stroke-linecap:round;stroke-linejoin:round;paint-order:stroke markers fill"
         id="rect1-7-8-28-98-703-6-6-2"
         width="0.97571605"
         height="0.97571665"
         x="147.31487"
         y="105.72617" /><path
         d="m 143.41195,109.62922 v 0.97569 0.9757 h 0.97569 0.9757 v -0.9757 h -0.9757 v -0.97569 z"
         style="fill:#ffffff;fill-opacity:1;stroke-width:0.201944;stroke-linecap:round;stroke-linejoin:round;paint-order:stroke markers fill"
         id="path18-7" /><rect
         style="fill:#ffffff;fill-opacity:1;stroke-width:0.201944;stroke-linecap:round;stroke-linejoin:round;paint-order:stroke markers fill"
         id="rect1-7-8-28-98-74-7-0-6-8-5-1"
         width="0.97571605"
         height="0.97571665"
         x="144.38773"
         y="108.65333" /><path
         d="m 149.26612,105.72605 v 0.97569 h -0.9757 v 0.9757 h 0.9757 0.97608 v -0.9757 -0.97569 z"
         style="fill:#ffffff;fill-opacity:1;stroke-width:0.201944;stroke-linecap:round;stroke-linejoin:round;paint-order:stroke markers fill"
         id="path37-3" /><path
         d="m 151.2179,106.70174 v 0.9757 0.97569 h -0.9757 -0.97608 -0.9757 v -0.97569 h -0.97569 v 0.97569 h -0.9757 v 0.97609 h -0.97569 v 0.97569 h 0.97569 0.9757 v -0.97569 h 0.97569 v 0.97569 h -0.97569 v 0.9757 h 0.97569 v 0.97569 h 0.9757 0.97608 v 0.9757 h 0.9757 0.9757 v -0.9757 h -0.9757 v -0.97569 h -0.9757 -0.97608 v -0.9757 -0.97569 h 0.97608 0.9757 0.9757 v -0.97609 -0.97569 h 0.97569 v -0.9757 h -0.97569 z"
         style="fill:#ffffff;fill-opacity:1;stroke-width:0.201944;stroke-linecap:round;stroke-linejoin:round;paint-order:stroke markers fill"
         id="path36-3" /><path
         d="m 149.26612,113.532 v 0.97569 h -0.9757 v 0.9757 h 0.9757 0.97608 v -0.9757 -0.97569 z"
         style="fill:#ffffff;fill-opacity:1;stroke-width:0.201944;stroke-linecap:round;stroke-linejoin:round;paint-order:stroke markers fill"
         id="path16-7" /><rect
         style="fill:#ffffff;fill-opacity:1;stroke-width:0.201944;stroke-linecap:round;stroke-linejoin:round;paint-order:stroke markers fill"
         id="rect1-7-8-28-98-74-7-0-1-3-3-6"
         width="0.97571605"
         height="0.97571665"
         x="147.31487"
         y="113.53191" /><rect
         style="fill:#ffffff;fill-opacity:1;stroke-width:0.201944;stroke-linecap:round;stroke-linejoin:round;paint-order:stroke markers fill"
         id="rect1-7-8-28-98-74-7-0-1-3-5-0"
         width="0.97571605"
         height="0.97571665"
         x="146.33916"
         y="114.50762" /><rect
         style="fill:#ffffff;fill-opacity:1;stroke-width:0.201944;stroke-linecap:round;stroke-linejoin:round;paint-order:stroke markers fill"
         id="rect1-7-8-28-98-703-6-5-2-0-9-5"
         width="0.97571605"
         height="0.97571665"
         x="162.92635"
         y="108.65332" /><rect
         style="fill:#ffffff;fill-opacity:1;stroke-width:0.201944;stroke-linecap:round;stroke-linejoin:round;paint-order:stroke markers fill"
         id="rect1-7-8-28-98-74-7-5-7-3-9-4-7"
         width="0.97571605"
         height="0.97571665"
         x="162.92635"
         y="110.60475" /><rect
         style="fill:#ffffff;fill-opacity:1;stroke-width:0.201944;stroke-linecap:round;stroke-linejoin:round;paint-order:stroke markers fill"
         id="rect1-7-8-28-98-74-7-5-7-3-9-0-5-8"
         width="0.97571605"
         height="0.97571665"
         x="161.95062"
         y="114.50762" /><rect
         style="fill:#ffffff;fill-opacity:1;stroke-width:0.201944;stroke-linecap:round;stroke-linejoin:round;paint-order:stroke markers fill"
         id="rect1-7-8-28-98-74-7-5-7-5-25-4-3-8"
         width="0.97571605"
         height="0.97571665"
         x="155.12059"
         y="114.50762" /><rect
         style="fill:#ffffff;fill-opacity:1;stroke-width:0.201944;stroke-linecap:round;stroke-linejoin:round;paint-order:stroke markers fill"
         id="rect1-7-8-28-98-74-7-5-7-5-25-4-3-6-7"
         width="0.97571605"
         height="0.97571665"
         x="157.07201"
         y="108.65332" /><rect
         style="fill:#ffffff;fill-opacity:1;stroke-width:0.201944;stroke-linecap:round;stroke-linejoin:round;paint-order:stroke markers fill"
         id="rect1-7-8-28-98-74-9-2-55-8-6-7"
         width="0.97571605"
         height="0.97571665"
         x="145.36342"
         y="112.55619" /><path
         d="m 135.60639,101.82326 v 0.9757 h 0.97569 0.97569 v 0.97569 0.9757 h 0.9757 0.97569 0.9757 v -0.9757 h 0.97569 0.9757 0.9757 v -0.97569 h -0.9757 -0.9757 -0.97569 v -0.9757 h -0.9757 v 0.9757 0.97569 h -0.97569 v -0.97569 -0.9757 h -0.9757 -0.97569 z"
         style="fill:#ffffff;fill-opacity:1;stroke-width:0.201944;stroke-linecap:round;stroke-linejoin:round;paint-order:stroke markers fill"
         id="path20-8" /><rect
         style="fill:#ffffff;fill-opacity:1;stroke-width:0.201944;stroke-linecap:round;stroke-linejoin:round;paint-order:stroke markers fill"
         id="rect1-7-8-28-98-703-0-4-1-6"
         width="0.97571605"
         height="0.97571665"
         x="135.60628"
         y="103.77473" /><rect
         style="fill:#ffffff;fill-opacity:1;stroke-width:0.201944;stroke-linecap:round;stroke-linejoin:round;paint-order:stroke markers fill"
         id="rect1-7-8-28-98-74-92-7-9-1"
         width="0.97571605"
         height="0.97571665"
         x="138.53342"
         y="100.84759" /><path
         d="m 138.53347,105.72605 v 0.97569 h -0.9757 -0.97569 -0.97569 v 0.9757 h 0.97569 0.97569 0.9757 0.97569 0.9757 v -0.9757 h -0.9757 v -0.97569 z"
         style="fill:#ffffff;fill-opacity:1;stroke-width:0.201944;stroke-linecap:round;stroke-linejoin:round;paint-order:stroke markers fill"
         id="path19-6" /><rect
         style="fill:#ffffff;fill-opacity:1;stroke-width:0.201944;stroke-linecap:round;stroke-linejoin:round;paint-order:stroke markers fill"
         id="rect1-7-8-28-98-74-92-48-3-8"
         width="0.97571605"
         height="0.97571665"
         x="141.46056"
         y="106.70189" /><path
         d="m 140.48486,104.75035 v 0.9757 0.97569 h 0.97569 v -0.97569 h 0.9757 v 0.97569 h 0.9757 v 0.9757 0.97569 h 0.97569 v -0.97569 -0.9757 -0.97569 h -0.97569 v -0.9757 h -0.9757 -0.9757 z"
         style="fill:#ffffff;fill-opacity:1;stroke-width:0.201944;stroke-linecap:round;stroke-linejoin:round;paint-order:stroke markers fill"
         id="path51-8" /><path
         d="m 145.36334,102.79896 v 0.97569 h -0.9757 v 0.9757 h 0.9757 v 0.9757 0.97569 0.9757 0.97569 h 0.97569 v -0.97569 h 0.9757 v -0.9757 h -0.9757 v -0.97569 -0.9757 -0.9757 -0.97569 z"
         style="fill:#ffffff;fill-opacity:1;stroke-width:0.201944;stroke-linecap:round;stroke-linejoin:round;paint-order:stroke markers fill"
         id="path38-3" /><path
         d="m 139.50916,94.993396 v 0.975696 h -0.97569 v 0.975695 h 0.97569 0.9757 v -0.975695 h 0.97569 0.9757 v -0.975696 h -0.9757 -0.97569 z"
         style="fill:#ffffff;fill-opacity:1;stroke-width:0.201944;stroke-linecap:round;stroke-linejoin:round;paint-order:stroke markers fill"
         id="path21-8" /><path
         d="m 143.41195,95.969092 v 0.975695 h -0.9757 -0.9757 -0.97569 v 0.975696 h 0.97569 0.9757 v 0.975695 h -0.9757 -0.97569 v 0.975695 h -0.9757 v 0.975697 h 0.9757 v 0.97569 h 0.97569 0.9757 0.9757 0.97569 v 0.9757 h 0.9757 v -0.9757 h 0.97569 v 0.9757 h 0.9757 v -0.9757 h 0.97569 v 0.9757 h -0.97569 v 0.97569 h 0.97569 v 0.9757 h 0.9757 0.97608 v 0.9757 h 0.9757 v -0.9757 -0.9757 h -0.9757 -0.97608 v -0.97569 -0.9757 h 0.9757 v -0.97569 h -0.9757 -0.9757 v -0.975697 h -0.97569 v 0.975697 h -0.9757 v -0.975697 h -0.97569 -0.9757 -0.97569 v -0.975695 -0.975695 h 0.97569 v 0.975695 h 0.9757 v -0.975695 h 0.97569 v -0.975696 h -0.97569 -0.9757 v -0.975695 z m -1.9514,3.902781 h 0.9757 v 0.975697 h -0.9757 z"
         style="fill:#ffffff;fill-opacity:1;stroke-width:0.201944;stroke-linecap:round;stroke-linejoin:round;paint-order:stroke markers fill"
         id="path42-3" /><path
         d="m 149.26612,97.920483 v 0.975695 h -0.9757 v 0.975695 h 0.9757 0.9757 v -0.975695 -0.975695 z"
         style="fill:#ffffff;fill-opacity:1;stroke-width:0.201944;stroke-linecap:round;stroke-linejoin:round;paint-order:stroke markers fill"
         id="path43-2" /><rect
         style="fill:#ffffff;fill-opacity:1;stroke-width:0.201944;stroke-linecap:round;stroke-linejoin:round;paint-order:stroke markers fill"
         id="rect1-7-8-28-98-74-92-7-1-6-9-7-1"
         width="0.97571605"
         height="0.97571665"
         x="147.31483"
         y="97.920433" /><rect
         style="fill:#ffffff;fill-opacity:1;stroke-width:0.201944;stroke-linecap:round;stroke-linejoin:round;paint-order:stroke markers fill"
         id="rect1-7-8-28-98-74-92-7-1-6-9-37-2"
         width="0.97571605"
         height="0.97571665"
         x="146.33913"
         y="98.896156" /><path
         d="m 135.60639,94.993396 v 0.975696 0.975695 0.975696 0.975695 0.975695 h 0.97569 v 0.975697 h 0.97569 0.9757 v -0.975697 -0.975695 h 0.97569 v -0.975695 h -0.97569 v -0.975696 h -0.9757 -0.97569 v -0.975695 h 0.97569 v -0.975696 h -0.97569 z"
         style="fill:#ffffff;fill-opacity:1;stroke-width:0.201944;stroke-linecap:round;stroke-linejoin:round;paint-order:stroke markers fill"
         id="path14-1" /><rect
         style="fill:#ffffff;fill-opacity:1;stroke-width:0.201944;stroke-linecap:round;stroke-linejoin:round;paint-order:stroke markers fill"
         id="rect1-7-8-28-98-563-5"
         width="0.97571605"
         height="0.97571665"
         x="157.07202"
         y="100.84759" /><rect
         style="fill:#ffffff;fill-opacity:1;stroke-width:0.201944;stroke-linecap:round;stroke-linejoin:round;paint-order:stroke markers fill"
         id="rect1-7-8-28-98-18-5"
         width="0.97571605"
         height="0.97571665"
         x="162.92633"
         y="96.944717" /><rect
         style="fill:#ffffff;fill-opacity:1;stroke-width:0.201944;stroke-linecap:round;stroke-linejoin:round;paint-order:stroke markers fill"
         id="rect1-7-8-28-98-74-9-2-55-8-3-0"
         width="0.97571605"
         height="0.97571665"
         x="151.21774"
         y="110.60475" /><path
         d="m 143.41195,113.532 v 0.97569 0.9757 h 0.97569 v -0.9757 h 0.9757 V 113.532 h -0.9757 z"
         style="fill:#ffffff;fill-opacity:1;stroke-width:0.201944;stroke-linecap:round;stroke-linejoin:round;paint-order:stroke markers fill"
         id="path17-1" /><g
         id="g10"
         transform="translate(108.31195,95.514588)"><path
           style="fill:url(#linearGradient8-8);stroke:none;stroke-width:0.0114629;stroke-linecap:round;stroke-linejoin:round;stroke-dasharray:none;stroke-opacity:1;paint-order:stroke markers fill"
           d="m 14.484886,22.905582 c -0.316821,-0.0023 -0.629099,0.06984 -0.917031,0.187087 -0.270619,0.116481 -0.520084,0.272928 -0.732725,0.480222 -0.182191,0.155388 -0.325219,0.352566 -0.450266,0.551736 -0.09091,0.164347 -0.177786,0.329953 -0.225982,0.513563 -0.120837,0.331575 -0.136385,0.694655 -0.108421,1.049598 0.03127,0.23074 0.08848,0.461141 0.178505,0.675473 0.116481,0.270617 0.271307,0.523327 0.478602,0.735967 0.155383,0.182189 0.352569,0.325218 0.551736,0.450266 0.164346,0.09091 0.329954,0.177785 0.513562,0.22598 0.331576,0.120839 0.694656,0.136387 1.049597,0.10842 0.23074,-0.03127 0.461142,-0.08848 0.675475,-0.178505 0.270617,-0.116481 0.523326,-0.271305 0.735967,-0.4786 0.182189,-0.155385 0.32522,-0.352569 0.450267,-0.551736 0.0909,-0.164347 0.177783,-0.329953 0.225982,-0.513563 0.120836,-0.331575 0.136384,-0.694656 0.108421,-1.049599 -0.03127,-0.23074 -0.08848,-0.46114 -0.178505,-0.675473 -0.116481,-0.270617 -0.271307,-0.523325 -0.478602,-0.735966 -0.155389,-0.182192 -0.352567,-0.325218 -0.551737,-0.450266 -0.164346,-0.09091 -0.329954,-0.182649 -0.513562,-0.230844 -0.257073,-0.09214 -0.534815,-0.122352 -0.811283,-0.11376 z m -0.09709,0.302549 v 1.008736 c -0.264623,-0.0097 -0.439722,-0.01438 -0.760594,-0.05589 0.07381,-0.212944 0.158436,-0.38186 0.276456,-0.561008 0.123066,-0.163384 0.228407,-0.297944 0.484138,-0.391844 z m 0.307205,0 c 0.238048,0.09467 0.416277,0.284727 0.538966,0.497457 0.08638,0.14192 0.156892,0.310918 0.211188,0.466815 -0.212668,0.01837 -0.535697,0.03157 -0.761941,0.04213 l -0.002,-1.006403 z m -0.971005,0.12842 c -0.03738,0.105461 -0.142783,0.210931 -0.196866,0.324294 -0.07003,0.151826 -0.145272,0.299743 -0.190638,0.461495 -0.12858,-0.01297 -0.385691,-0.07213 -0.515168,-0.111241 0.151925,-0.191627 0.198244,-0.206345 0.259696,-0.284844 0.191185,-0.165546 0.408989,-0.299076 0.642972,-0.389704 z m 1.623944,7e-5 c 0.211552,0.0874 0.588349,0.266479 0.919399,0.679536 -0.115156,0.05469 -0.392559,0.08247 -0.523886,0.112977 -0.03799,-0.08987 -0.182286,-0.549666 -0.404942,-0.779847 l -0.0011,-0.0086 z M 12.646374,24.2536 c 0.19869,0.07461 0.390341,0.113385 0.601869,0.156212 -0.05446,0.230884 -0.09646,0.614828 -0.103027,0.843318 h -0.820748 c 0.01571,-0.265549 0.08461,-0.500178 0.183644,-0.742447 0.04319,-0.07772 0.07862,-0.19094 0.138258,-0.257083 z m 3.786981,0.02295 c 0.08529,0.144395 0.244503,0.393349 0.306866,0.977092 -0.263856,-9.13e-4 -0.546752,-5.24e-4 -0.816395,-5.24e-4 -0.0098,-0.281387 -0.0496,-0.569081 -0.107018,-0.836601 0.15063,-0.04147 0.31395,-0.05608 0.462128,-0.103 0.05331,-0.0052 0.101715,-0.03356 0.154419,-0.03697 z m -2.045559,0.22461 v 0.751967 h -0.958302 c 0.01011,-0.274631 0.04831,-0.53527 0.107347,-0.802036 0.300019,0.04241 0.57045,0.03833 0.850951,0.05007 z m 1.142639,-0.04351 c 0.03761,0.156421 0.100921,0.537484 0.103304,0.795472 h -0.952496 v -0.751967 c 0.281008,0.0074 0.571301,-0.01884 0.849188,-0.04351 z m -2.795591,1.088921 h 0.410372 c 0.01463,0.267658 0.04336,0.563998 0.100597,0.823962 -0.21322,0.02656 -0.419388,0.08505 -0.626601,0.139419 -0.08576,-0.143791 -0.254609,-0.493447 -0.295669,-0.96257 z m 1.652952,0 v 0.733626 c -0.284268,0.0053 -0.562049,0.0066 -0.840346,0.04739 -0.06935,-0.256048 -0.09319,-0.514525 -0.113056,-0.778796 0.317808,-9.13e-4 0.635505,-0.0023 0.953402,-0.0023 z m 0.772601,0 h 0.479151 c -0.0092,0.269277 -0.05082,0.528933 -0.10546,0.79094 -0.282225,-0.02651 -0.566132,-0.05346 -0.852841,-0.05732 v -0.733625 c 0.159717,0 0.319433,0 0.479151,0 z m 1.173802,0 h 0.410373 c -0.02158,0.308675 -0.140215,0.745441 -0.316648,0.977178 -0.167429,-0.0464 -0.441423,-0.110504 -0.611171,-0.139281 0.02769,-0.07022 0.125597,-0.614683 0.107151,-0.837897 z m -1.946403,1.017907 c -0.0029,0.338746 0.0063,0.679385 -0.0061,1.016937 -0.09529,-0.04539 -0.343146,-0.22097 -0.452926,-0.362844 -0.177511,-0.229412 -0.299064,-0.593081 -0.299064,-0.593081 0,0 0.03098,-0.01545 0.364704,-0.045 0.194629,-0.007 0.262475,-0.0097 0.393391,-0.016 z m 1.052915,0.05578 c -0.194786,0.510244 -0.397682,0.811724 -0.754053,0.952886 0.0038,-0.334722 -0.0038,-0.779124 -0.0011,-1.00704 0.241191,0.01281 0.484157,0.0265 0.755047,0.05415 z m -2.11386,0.03423 c 0.108507,0.328515 0.237599,0.560988 0.423505,0.80517 -0.0755,0.002 -0.190188,-0.07425 -0.276019,-0.111734 -0.244894,-0.138859 -0.497745,-0.347603 -0.672357,-0.576358 0.25532,-0.07035 0.366968,-0.09393 0.524871,-0.117078 z m 2.94051,0.122595 c -0.386506,0.42644 -0.496036,0.477439 -0.942547,0.693705 0.06511,-0.098 0.285734,-0.376493 0.409351,-0.808229 0.188934,0.0307 0.36361,0.07092 0.533196,0.114524 z"
           id="path6"
           sodipodi:nodetypes="ccccccccccccccccccccccccccccccccccccccccccccccccccccccccccccccccccccccccsccccsccccscccccccscsccscccccccccccccc" /><text
           xml:space="preserve"
           style="font-size:3.63971px;line-height:1.25;font-family:Calibri;-inkscape-font-specification:Calibri;fill:#f8f8f8;fill-opacity:1;stroke-width:0.0909928"
           x="18.032778"
           y="26.430777"
           id="text3-6"><tspan
             id="tspan3-2"
             style="font-style:normal;font-variant:normal;font-weight:normal;font-stretch:normal;font-family:'Lucida Sans';-inkscape-font-specification:'Lucida Sans';fill:#f8f8f8;fill-opacity:1;stroke-width:0.0909928"
             x="18.032778"
             y="26.430777"
             sodipodi:role="line">worldwide-lgbt-resources.com</tspan></text></g></g></g></svg>
