<?xml version="1.0" encoding="UTF-8" standalone="no"?>
<!-- Created with Inkscape (http://www.inkscape.org/) -->

<svg
   width="336"
   height="192"
   viewBox="0 0 88.9 50.8"
   version="1.1"
   id="svg1"
   inkscape:version="1.3 (0e150ed6c4, 2023-07-21)"
   sodipodi:docname="business_card_back.svg"
   xml:space="preserve"
   xmlns:inkscape="http://www.inkscape.org/namespaces/inkscape"
   xmlns:sodipodi="http://sodipodi.sourceforge.net/DTD/sodipodi-0.dtd"
   xmlns="http://www.w3.org/2000/svg"
   xmlns:svg="http://www.w3.org/2000/svg"><sodipodi:namedview
     id="namedview1"
     pagecolor="#ffffff"
     bordercolor="#666666"
     borderopacity="1.0"
     inkscape:showpageshadow="2"
     inkscape:pageopacity="0.0"
     inkscape:pagecheckerboard="0"
     inkscape:deskcolor="#d1d1d1"
     inkscape:document-units="px"
     inkscape:zoom="2.8284271"
     inkscape:cx="188.44396"
     inkscape:cy="84.322484"
     inkscape:window-width="2560"
     inkscape:window-height="1417"
     inkscape:window-x="-8"
     inkscape:window-y="-8"
     inkscape:window-maximized="1"
     inkscape:current-layer="layer1"
     showgrid="false" /><defs
     id="defs1" /><g
     inkscape:label="Layer 1"
     inkscape:groupmode="layer"
     id="layer1"><rect
       style="fill:#161616;stroke-width:0.264999;stroke-linecap:round;stroke-linejoin:round;paint-order:stroke markers fill;fill-opacity:1"
       id="rect3"
       width="88.900002"
       height="50.799999"
       x="0"
       y="0" /><path
       style="fill:#f985a5;fill-opacity:1;stroke:none;stroke-width:0.264583px;stroke-linecap:butt;stroke-linejoin:miter;stroke-opacity:1"
       d="M 23.812499,5.6706054e-7 H 18.520832 L 3.96875,50.799999 h 5.2916667 z"
       id="path3"
       sodipodi:nodetypes="ccccc" /><path
       style="fill:#fcb385;fill-opacity:1;stroke:none;stroke-width:0.264583px;stroke-linecap:butt;stroke-linejoin:miter;stroke-opacity:1"
       d="M 29.104166,7.0000001e-7 H 23.812499 L 9.2604167,50.799999 h 5.2916673 z"
       id="path3-1"
       sodipodi:nodetypes="ccccc" /><path
       style="fill:#fde3ab;fill-opacity:1;stroke:none;stroke-width:0.264583px;stroke-linecap:butt;stroke-linejoin:miter;stroke-opacity:1"
       d="M 34.395833,8e-7 H 29.104166 L 14.552084,50.799999 h 5.291667 z"
       id="path3-6"
       sodipodi:nodetypes="ccccc" /><path
       style="fill:#93f88c;fill-opacity:1;stroke:none;stroke-width:0.264583px;stroke-linecap:butt;stroke-linejoin:miter;stroke-opacity:1"
       d="M 39.6875,1e-6 H 34.395833 L 19.843751,50.799999 h 5.291667 z"
       id="path3-4"
       sodipodi:nodetypes="ccccc" /><path
       style="fill:#75aaff;fill-opacity:1;stroke:none;stroke-width:0.264583px;stroke-linecap:butt;stroke-linejoin:miter;stroke-opacity:1"
       d="M 44.979167,1.6370605e-6 H 39.6875 L 25.135418,50.799999 h 5.291667 z"
       id="path3-3"
       sodipodi:nodetypes="ccccc" /><path
       style="fill:#99a4ff;fill-opacity:1;stroke:none;stroke-width:0.264583px;stroke-linecap:butt;stroke-linejoin:miter;stroke-opacity:1"
       d="M 50.270834,1.6e-6 H 44.979167 L 30.427085,50.799999 h 5.291667 z"
       id="path3-3-9"
       sodipodi:nodetypes="ccccc" /><g
       id="g51"
       transform="translate(2.8113649,6.6564414)"><path
         d="m 50.006736,4.5955852 v 0.9756954 0.9756954 0.9756961 0.9756951 0.9760847 0.9756961 0.975695 h 0.975695 0.975694 0.975695 0.975694 0.975694 0.975695 0.975694 V 10.450148 9.4744519 8.4983672 7.5226721 6.546976 5.5712806 4.5955852 H 55.860903 54.885208 53.909514 52.93382 51.958125 50.982431 Z m 0.975695,0.9756954 h 0.975694 0.975695 0.975694 0.975694 0.975695 V 6.546976 7.5226721 8.4983672 9.4744519 10.450148 H 54.885208 53.909514 52.93382 51.958125 50.982431 V 9.4744519 8.4983672 7.5226721 6.546976 Z"
         style="fill:#ffffff;fill-opacity:1;stroke-width:0.201944;stroke-linecap:round;stroke-linejoin:round;paint-order:stroke markers fill"
         id="path8" /><path
         d="m 51.958125,6.546976 v 0.9756961 0.9756951 0.9760847 h 0.975695 0.975694 0.975694 V 8.4983672 7.5226721 6.546976 H 53.909514 52.93382 Z"
         style="fill:#ffffff;fill-opacity:1;stroke-width:0.201944;stroke-linecap:round;stroke-linejoin:round;paint-order:stroke markers fill"
         id="path9" /><path
         d="M 62.690771,4.5955852 V 5.5712806 H 61.715077 60.739383 V 6.546976 h 0.975694 v 0.9756961 0.9756951 0.9760847 h 0.975694 V 8.4983672 7.5226721 6.546976 h 0.975695 0.975702 0.976078 V 5.5712806 H 64.642168 63.666466 V 4.5955852 Z"
         style="fill:#ffffff;fill-opacity:1;stroke-width:0.201944;stroke-linecap:round;stroke-linejoin:round;paint-order:stroke markers fill"
         id="path22" /><path
         d="M 67.569643,4.5955852 V 5.5712806 H 66.593948 V 6.546976 h 0.975695 0.975694 v 0.9756961 h 0.975695 0.975694 V 6.546976 H 69.521032 V 5.5712806 4.5955852 h -0.975695 z"
         style="fill:#ffffff;fill-opacity:1;stroke-width:0.201944;stroke-linecap:round;stroke-linejoin:round;paint-order:stroke markers fill"
         id="path23" /><path
         d="m 64.642168,7.5226721 v 0.9756951 h -0.975702 v 0.9760847 h 0.975702 v 0.9756961 h 0.976078 V 9.4744519 h -3.84e-4 V 8.4983672 h 3.84e-4 V 7.5226721 Z m 0.976078,0.9756951 v 0.9760847 h 0.975702 V 8.4983672 Z"
         style="fill:#ffffff;fill-opacity:1;stroke-width:0.201944;stroke-linecap:round;stroke-linejoin:round;paint-order:stroke markers fill"
         id="path45" /><path
         d="m 66.593948,7.5226721 v 0.9756951 h 0.975695 0.975694 V 7.5226721 h -0.975694 z"
         style="fill:#ffffff;fill-opacity:1;stroke-width:0.201944;stroke-linecap:round;stroke-linejoin:round;paint-order:stroke markers fill"
         id="path46" /><path
         d="m 69.521032,8.4983672 v 0.9760847 h -0.975695 v 0.9756961 h 0.975695 v 0.975695 h -0.975695 v -0.975695 h -0.975694 v 0.975695 h -0.975695 v 0.975695 h -0.976086 v 0.975696 h 0.976086 0.975695 v 0.975695 0.975696 h 0.975694 v -0.975696 -0.975695 h 0.975695 v -0.975696 h 0.975694 V 11.425843 10.450148 9.4744519 8.4983672 Z"
         style="fill:#ffffff;fill-opacity:1;stroke-width:0.201944;stroke-linecap:round;stroke-linejoin:round;paint-order:stroke markers fill"
         id="path49" /><path
         d="m 62.690771,11.425843 v 0.975695 h -0.975694 v 0.975696 h 0.975694 v 0.975695 h 0.975695 0.975702 v 0.975696 h 0.975694 3.84e-4 0.975702 v -0.975696 h -0.975702 v -0.975695 h -0.976078 -0.975702 v -0.975696 -0.975695 z"
         style="fill:#ffffff;fill-opacity:1;stroke-width:0.201944;stroke-linecap:round;stroke-linejoin:round;paint-order:stroke markers fill"
         id="path50" /><rect
         style="fill:#ffffff;fill-opacity:1;stroke-width:0.201944;stroke-linecap:round;stroke-linejoin:round;paint-order:stroke markers fill"
         id="rect1-7-8-28-98-074"
         width="0.97571605"
         height="0.97571665"
         x="66.593773"
         y="15.328571" /><rect
         style="fill:#ffffff;fill-opacity:1;stroke-width:0.201944;stroke-linecap:round;stroke-linejoin:round;paint-order:stroke markers fill"
         id="rect1-7-8-28-98-07"
         width="0.97571605"
         height="0.97571665"
         x="66.593765"
         y="9.4742689" /><rect
         style="fill:#ffffff;fill-opacity:1;stroke-width:0.201944;stroke-linecap:round;stroke-linejoin:round;paint-order:stroke markers fill"
         id="rect1-7-8-28-98-8"
         width="0.97571605"
         height="0.97571665"
         x="65.61805"
         y="10.449986" /><rect
         style="fill:#ffffff;fill-opacity:1;stroke-width:0.201944;stroke-linecap:round;stroke-linejoin:round;paint-order:stroke markers fill"
         id="rect1-7-8-28-98-0"
         width="0.97571605"
         height="0.97571665"
         x="63.666626"
         y="10.449986" /><rect
         style="fill:#ffffff;fill-opacity:1;stroke-width:0.201944;stroke-linecap:round;stroke-linejoin:round;paint-order:stroke markers fill"
         id="rect1-7-8-28-60"
         width="0.97571605"
         height="0.97571665"
         x="65.61805"
         y="4.5956864" /><rect
         style="fill:#ffffff;fill-opacity:1;stroke-width:0.201944;stroke-linecap:round;stroke-linejoin:round;paint-order:stroke markers fill"
         id="rect1-7-8-28-94"
         width="0.97571605"
         height="0.97571665"
         x="61.715191"
         y="10.449986" /><path
         d="M 57.812299,4.5955852 V 5.5712806 6.546976 7.5226721 8.4983672 h 0.975695 v 0.9760847 h -0.975695 v 0.9756961 0.975695 h 0.975695 v -0.975695 h 0.975694 v 0.975695 0.975695 0.975696 h 0.975695 v -0.975696 h 0.975694 V 11.425843 H 60.739383 V 10.450148 9.4744519 8.4983672 7.5226721 H 59.763688 V 6.546976 H 58.787994 V 5.5712806 4.5955852 Z"
         style="fill:#ffffff;fill-opacity:1;stroke-width:0.201944;stroke-linecap:round;stroke-linejoin:round;paint-order:stroke markers fill"
         id="path15" /><path
         d="m 50.006736,26.061275 v 0.976084 0.975696 0.975696 0.975695 0.975696 0.975695 0.975695 h 0.975695 0.975694 0.975695 0.975694 0.975694 0.975695 0.975694 V 31.915837 30.940142 29.964446 28.988751 28.013055 27.037359 26.061275 H 55.860903 54.885208 53.909514 52.93382 51.958125 50.982431 Z m 0.975695,0.976084 h 0.975694 0.975695 0.975694 0.975694 0.975695 v 0.975696 0.975696 0.975695 0.975696 0.975695 H 54.885208 53.909514 52.93382 51.958125 50.982431 v -0.975695 -0.975696 -0.975695 -0.975696 z"
         style="fill:#ffffff;fill-opacity:1;stroke-width:0.201944;stroke-linecap:round;stroke-linejoin:round;paint-order:stroke markers fill"
         id="path12" /><path
         d="m 51.958125,28.013055 v 0.975696 0.975695 0.975696 h 0.975695 0.975694 0.975694 V 29.964446 28.988751 28.013055 H 53.909514 52.93382 Z"
         style="fill:#ffffff;fill-opacity:1;stroke-width:0.201944;stroke-linecap:round;stroke-linejoin:round;paint-order:stroke markers fill"
         id="path13" /><path
         d="m 71.47242,4.5955852 v 0.9756954 0.9756954 0.9756961 0.9756951 0.9760847 0.9756961 0.975695 h 0.975695 0.975702 0.975694 0.975695 0.975694 0.975694 0.975695 V 10.450148 9.4744519 8.4983672 7.5226721 6.546976 5.5712806 4.5955852 H 77.326594 76.3509 75.375206 74.399511 73.423817 72.448115 Z m 0.975695,0.9756954 h 0.975702 0.975694 0.975695 0.975694 0.975694 V 6.546976 7.5226721 8.4983672 9.4744519 10.450148 H 76.3509 75.375206 74.399511 73.423817 72.448115 V 9.4744519 8.4983672 7.5226721 6.546976 Z"
         style="fill:#ffffff;fill-opacity:1;stroke-width:0.201944;stroke-linecap:round;stroke-linejoin:round;paint-order:stroke markers fill"
         id="path10" /><path
         d="m 73.423817,6.546976 v 0.9756961 0.9756951 0.9760847 h 0.975694 0.975695 0.975694 V 8.4983672 7.5226721 6.546976 h -0.975694 -0.975695 z"
         style="fill:#ffffff;fill-opacity:1;stroke-width:0.201944;stroke-linecap:round;stroke-linejoin:round;paint-order:stroke markers fill"
         id="path11" /><path
         d="m 72.448115,12.401538 v 0.975696 0.975695 H 71.47242 v 0.975696 h 0.975695 0.975702 0.975694 v 0.975695 0.975695 h -0.975694 v 0.975696 0.975695 h 0.975694 0.975695 0.975694 v 0.975696 h -0.975694 -0.975695 v 0.975695 0.975696 h -0.975694 v -0.975696 -0.975695 h -0.975702 v 0.975695 H 71.47242 v -0.975695 h -0.975694 v 0.975695 0.975696 h 0.975694 v 0.975696 h 0.975695 0.975702 0.975694 0.975695 v 0.975695 h 0.975694 0.975694 v -0.975695 h 0.975695 V 22.158493 21.182797 H 77.326594 V 20.207102 19.231406 18.255711 H 76.3509 v -0.975696 h 0.975694 V 16.30432 H 76.3509 75.375206 V 15.328625 H 76.3509 v -0.975696 -0.975695 h 0.975694 0.975695 V 12.401538 H 77.326594 76.3509 75.375206 74.399511 v 0.975696 h 0.975695 v 0.975695 h -0.975695 -0.975694 v -0.975695 -0.975696 z"
         style="fill:#ffffff;fill-opacity:1;stroke-width:0.201944;stroke-linecap:round;stroke-linejoin:round;paint-order:stroke markers fill"
         id="path24" /><rect
         style="fill:#ffffff;fill-opacity:1;stroke-width:0.201944;stroke-linecap:round;stroke-linejoin:round;paint-order:stroke markers fill"
         id="rect1-7-8-28-98-40-3"
         width="0.97571605"
         height="0.97571665"
         x="70.496666"
         y="23.134314" /><path
         d="m 68.545337,15.328625 v 0.975695 0.975695 0.975696 h -0.975694 v 0.975695 h -0.975695 v -0.975695 -0.975696 h -0.975702 -0.975694 v 0.975696 h 0.975694 v 0.975695 0.975696 0.975695 h 0.975702 0.975695 0.975694 v 0.975696 h -0.975694 v 0.975696 h 0.975694 v 0.975695 0.975695 h 0.975695 v 0.975696 0.976084 h -0.975695 v -0.976084 h -0.975694 v 0.976084 h -0.975695 v 0.975696 h 0.975695 0.975694 v 0.975696 0.975695 h -0.975694 v 0.975696 h -0.975695 v 0.975695 0.975695 h 0.975695 0.975694 v -0.975695 -0.975695 h 0.975695 v -0.975696 -0.975695 h 0.975694 0.975694 v 0.975695 0.975696 0.975695 0.975695 h 0.975695 0.975702 0.975694 v -0.975695 h 0.975695 0.975694 v -0.975695 h 0.975694 0.975695 V 29.964446 H 77.326594 V 28.988751 H 76.3509 75.375206 74.399511 v 0.975695 h 0.975695 v 0.975696 h -0.975695 -0.975694 v 0.975695 h -0.975702 v -0.975695 -0.975696 h 0.975702 v -0.975695 h 0.975694 v -0.975696 h 0.975695 0.975694 0.975694 V 27.037359 H 76.3509 V 26.061275 25.085579 H 75.375206 V 24.109884 H 74.399511 73.423817 72.448115 71.47242 70.496726 69.521032 v -0.975695 -0.975696 -0.975696 -0.975695 h 0.975694 v -0.975696 h -0.975694 v -0.975695 -0.975696 h 0.975694 0.975694 V 16.30432 15.328625 h -0.975694 -0.975694 z m 1.951389,9.756954 h 0.975694 0.975695 0.975702 v 0.975696 0.976084 0.975696 H 72.448115 71.47242 70.496726 v -0.975696 -0.976084 z"
         style="fill:#ffffff;fill-opacity:1;stroke-width:0.201944;stroke-linecap:round;stroke-linejoin:round;paint-order:stroke markers fill"
         id="path34" /><rect
         style="fill:#ffffff;fill-opacity:1;stroke-width:0.201944;stroke-linecap:round;stroke-linejoin:round;paint-order:stroke markers fill"
         id="rect1-7-8-28-98-703-6-6"
         width="0.97571605"
         height="0.97571665"
         x="61.715218"
         y="23.134315" /><path
         d="m 57.812299,27.037359 v 0.975696 0.975696 h 0.975695 0.975694 v -0.975696 h -0.975694 v -0.975696 z"
         style="fill:#ffffff;fill-opacity:1;stroke-width:0.201944;stroke-linecap:round;stroke-linejoin:round;paint-order:stroke markers fill"
         id="path18" /><rect
         style="fill:#ffffff;fill-opacity:1;stroke-width:0.201944;stroke-linecap:round;stroke-linejoin:round;paint-order:stroke markers fill"
         id="rect1-7-8-28-98-74-7-0-6-8-5"
         width="0.97571605"
         height="0.97571665"
         x="58.788078"
         y="26.061466" /><path
         d="m 63.666466,23.134189 v 0.975695 h -0.975695 v 0.975695 h 0.975695 0.976086 v -0.975695 -0.975695 z"
         style="fill:#ffffff;fill-opacity:1;stroke-width:0.201944;stroke-linecap:round;stroke-linejoin:round;paint-order:stroke markers fill"
         id="path37" /><path
         d="m 65.618246,24.109884 v 0.975695 0.975696 h -0.975694 -0.976086 -0.975695 v -0.975696 h -0.975694 v 0.975696 h -0.975694 v 0.976084 h -0.975695 v 0.975696 h 0.975695 0.975694 v -0.975696 h 0.975694 v 0.975696 h -0.975694 v 0.975696 h 0.975694 v 0.975695 h 0.975695 0.976086 v 0.975696 h 0.975694 0.975702 v -0.975696 h -0.975702 v -0.975695 h -0.975694 -0.976086 v -0.975696 -0.975696 h 0.976086 0.975694 0.975702 v -0.976084 -0.975696 h 0.975695 v -0.975695 h -0.975695 z"
         style="fill:#ffffff;fill-opacity:1;stroke-width:0.201944;stroke-linecap:round;stroke-linejoin:round;paint-order:stroke markers fill"
         id="path36" /><path
         d="m 63.666466,30.940142 v 0.975695 h -0.975695 v 0.975695 h 0.975695 0.976086 v -0.975695 -0.975695 z"
         style="fill:#ffffff;fill-opacity:1;stroke-width:0.201944;stroke-linecap:round;stroke-linejoin:round;paint-order:stroke markers fill"
         id="path16" /><rect
         style="fill:#ffffff;fill-opacity:1;stroke-width:0.201944;stroke-linecap:round;stroke-linejoin:round;paint-order:stroke markers fill"
         id="rect1-7-8-28-98-74-7-0-1-3-3"
         width="0.97571605"
         height="0.97571665"
         x="61.715218"
         y="30.940046" /><rect
         style="fill:#ffffff;fill-opacity:1;stroke-width:0.201944;stroke-linecap:round;stroke-linejoin:round;paint-order:stroke markers fill"
         id="rect1-7-8-28-98-74-7-0-1-3-5"
         width="0.97571605"
         height="0.97571665"
         x="60.73951"
         y="31.915764" /><rect
         style="fill:#ffffff;fill-opacity:1;stroke-width:0.201944;stroke-linecap:round;stroke-linejoin:round;paint-order:stroke markers fill"
         id="rect1-7-8-28-98-703-6-5-2-0-9"
         width="0.97571605"
         height="0.97571665"
         x="77.326691"
         y="26.06146" /><rect
         style="fill:#ffffff;fill-opacity:1;stroke-width:0.201944;stroke-linecap:round;stroke-linejoin:round;paint-order:stroke markers fill"
         id="rect1-7-8-28-98-74-7-5-7-3-9-4"
         width="0.97571605"
         height="0.97571665"
         x="77.326691"
         y="28.012892" /><rect
         style="fill:#ffffff;fill-opacity:1;stroke-width:0.201944;stroke-linecap:round;stroke-linejoin:round;paint-order:stroke markers fill"
         id="rect1-7-8-28-98-74-7-5-7-3-9-0-5"
         width="0.97571605"
         height="0.97571665"
         x="76.350975"
         y="31.91576" /><rect
         style="fill:#ffffff;fill-opacity:1;stroke-width:0.201944;stroke-linecap:round;stroke-linejoin:round;paint-order:stroke markers fill"
         id="rect1-7-8-28-98-74-7-5-7-5-25-4-3"
         width="0.97571605"
         height="0.97571665"
         x="69.520943"
         y="31.91576" /><rect
         style="fill:#ffffff;fill-opacity:1;stroke-width:0.201944;stroke-linecap:round;stroke-linejoin:round;paint-order:stroke markers fill"
         id="rect1-7-8-28-98-74-7-5-7-5-25-4-3-6"
         width="0.97571605"
         height="0.97571665"
         x="71.472359"
         y="26.06146" /><rect
         style="fill:#ffffff;fill-opacity:1;stroke-width:0.201944;stroke-linecap:round;stroke-linejoin:round;paint-order:stroke markers fill"
         id="rect1-7-8-28-98-74-9-2-55-8-6"
         width="0.97571605"
         height="0.97571665"
         x="59.763771"
         y="29.964329" /><path
         d="m 50.006736,19.231406 v 0.975696 h 0.975695 0.975694 v 0.975695 0.975696 h 0.975695 0.975694 0.975694 v -0.975696 h 0.975695 0.975694 0.975702 v -0.975695 h -0.975702 -0.975694 -0.975695 v -0.975696 h -0.975694 v 0.975696 0.975695 H 52.93382 v -0.975695 -0.975696 h -0.975695 -0.975694 z"
         style="fill:#ffffff;fill-opacity:1;stroke-width:0.201944;stroke-linecap:round;stroke-linejoin:round;paint-order:stroke markers fill"
         id="path20" /><rect
         style="fill:#ffffff;fill-opacity:1;stroke-width:0.201944;stroke-linecap:round;stroke-linejoin:round;paint-order:stroke markers fill"
         id="rect1-7-8-28-98-703-0-4-1"
         width="0.97571605"
         height="0.97571665"
         x="50.006634"
         y="21.182877" /><rect
         style="fill:#ffffff;fill-opacity:1;stroke-width:0.201944;stroke-linecap:round;stroke-linejoin:round;paint-order:stroke markers fill"
         id="rect1-7-8-28-98-74-92-7-9"
         width="0.97571605"
         height="0.97571665"
         x="52.933765"
         y="18.255726" /><path
         d="m 52.93382,23.134189 v 0.975695 h -0.975695 -0.975694 -0.975695 v 0.975695 h 0.975695 0.975694 0.975695 0.975694 0.975694 v -0.975695 h -0.975694 v -0.975695 z"
         style="fill:#ffffff;fill-opacity:1;stroke-width:0.201944;stroke-linecap:round;stroke-linejoin:round;paint-order:stroke markers fill"
         id="path19" /><rect
         style="fill:#ffffff;fill-opacity:1;stroke-width:0.201944;stroke-linecap:round;stroke-linejoin:round;paint-order:stroke markers fill"
         id="rect1-7-8-28-98-74-92-48-3"
         width="0.97571605"
         height="0.97571665"
         x="55.860901"
         y="24.110027" /><path
         d="m 54.885208,22.158493 v 0.975696 0.975695 h 0.975695 v -0.975695 h 0.975694 v 0.975695 h 0.975702 v 0.975695 0.975696 h 0.975695 v -0.975696 -0.975695 -0.975695 h -0.975695 v -0.975696 h -0.975702 -0.975694 z"
         style="fill:#ffffff;fill-opacity:1;stroke-width:0.201944;stroke-linecap:round;stroke-linejoin:round;paint-order:stroke markers fill"
         id="path51" /><path
         d="m 59.763688,20.207102 v 0.975695 h -0.975694 v 0.975696 h 0.975694 v 0.975696 0.975695 0.975695 0.975696 h 0.975695 v -0.975696 h 0.975694 v -0.975695 h -0.975694 v -0.975695 -0.975696 -0.975696 -0.975695 z"
         style="fill:#ffffff;fill-opacity:1;stroke-width:0.201944;stroke-linecap:round;stroke-linejoin:round;paint-order:stroke markers fill"
         id="path38" /><path
         d="m 53.909514,12.401538 v 0.975696 H 52.93382 v 0.975695 h 0.975694 0.975694 v -0.975695 h 0.975695 0.975694 v -0.975696 h -0.975694 -0.975695 z"
         style="fill:#ffffff;fill-opacity:1;stroke-width:0.201944;stroke-linecap:round;stroke-linejoin:round;paint-order:stroke markers fill"
         id="path21" /><path
         d="m 57.812299,13.377234 v 0.975695 h -0.975702 -0.975694 -0.975695 v 0.975696 h 0.975695 0.975694 v 0.975695 h -0.975694 -0.975695 v 0.975695 h -0.975694 v 0.975696 h 0.975694 v 0.975695 h 0.975695 0.975694 0.975702 0.975695 v 0.975696 h 0.975694 v -0.975696 h 0.975695 v 0.975696 h 0.975694 v -0.975696 h 0.975694 v 0.975696 h -0.975694 v 0.975695 h 0.975694 v 0.975696 h 0.975695 0.976086 v 0.975696 h 0.975694 v -0.975696 -0.975696 h -0.975694 -0.976086 v -0.975695 -0.975696 h 0.975702 v -0.975695 h -0.975702 -0.975695 v -0.975696 h -0.975694 v 0.975696 H 60.739383 V 17.280015 H 59.763688 58.787994 57.812299 V 16.30432 15.328625 h 0.975695 v 0.975695 h 0.975694 v -0.975695 h 0.975695 v -0.975696 h -0.975695 -0.975694 v -0.975695 z m -1.951396,3.902781 h 0.975694 v 0.975696 h -0.975694 z"
         style="fill:#ffffff;fill-opacity:1;stroke-width:0.201944;stroke-linecap:round;stroke-linejoin:round;paint-order:stroke markers fill"
         id="path42" /><path
         d="m 63.666466,15.328625 v 0.975695 h -0.975695 v 0.975695 h 0.975695 0.975702 V 16.30432 15.328625 Z"
         style="fill:#ffffff;fill-opacity:1;stroke-width:0.201944;stroke-linecap:round;stroke-linejoin:round;paint-order:stroke markers fill"
         id="path43" /><rect
         style="fill:#ffffff;fill-opacity:1;stroke-width:0.201944;stroke-linecap:round;stroke-linejoin:round;paint-order:stroke markers fill"
         id="rect1-7-8-28-98-74-92-7-1-6-9-7"
         width="0.97571605"
         height="0.97571665"
         x="61.715191"
         y="15.328577" /><rect
         style="fill:#ffffff;fill-opacity:1;stroke-width:0.201944;stroke-linecap:round;stroke-linejoin:round;paint-order:stroke markers fill"
         id="rect1-7-8-28-98-74-92-7-1-6-9-37"
         width="0.97571605"
         height="0.97571665"
         x="60.739475"
         y="16.304295" /><path
         d="m 50.006736,12.401538 v 0.975696 0.975695 0.975696 0.975695 0.975695 h 0.975695 v 0.975696 h 0.975694 0.975695 V 17.280015 16.30432 h 0.975694 V 15.328625 H 52.93382 v -0.975696 h -0.975695 -0.975694 v -0.975695 h 0.975694 v -0.975696 h -0.975694 z"
         style="fill:#ffffff;fill-opacity:1;stroke-width:0.201944;stroke-linecap:round;stroke-linejoin:round;paint-order:stroke markers fill"
         id="path14" /><rect
         style="fill:#ffffff;fill-opacity:1;stroke-width:0.201944;stroke-linecap:round;stroke-linejoin:round;paint-order:stroke markers fill"
         id="rect1-7-8-28-98-563"
         width="0.97571605"
         height="0.97571665"
         x="71.472374"
         y="18.255726" /><rect
         style="fill:#ffffff;fill-opacity:1;stroke-width:0.201944;stroke-linecap:round;stroke-linejoin:round;paint-order:stroke markers fill"
         id="rect1-7-8-28-98-18"
         width="0.97571605"
         height="0.97571665"
         x="77.326683"
         y="14.352856" /><rect
         style="fill:#ffffff;fill-opacity:1;stroke-width:0.201944;stroke-linecap:round;stroke-linejoin:round;paint-order:stroke markers fill"
         id="rect1-7-8-28-98-74-9-2-55-8-3"
         width="0.97571605"
         height="0.97571665"
         x="65.618088"
         y="28.012896" /><path
         d="m 57.812299,30.940142 v 0.975695 0.975695 h 0.975695 v -0.975695 h 0.975694 v -0.975695 h -0.975694 z"
         style="fill:#ffffff;fill-opacity:1;stroke-width:0.201944;stroke-linecap:round;stroke-linejoin:round;paint-order:stroke markers fill"
         id="path17" /></g></g></svg>
