<?xml version="1.0" encoding="UTF-8" standalone="no"?>
<!-- Created with Inkscape (http://www.inkscape.org/) -->

<svg
   width="336"
   height="192"
   viewBox="0 0 88.9 50.8"
   version="1.1"
   id="svg1"
   inkscape:version="1.3 (0e150ed6c4, 2023-07-21)"
   sodipodi:docname="business_card_back2.svg"
   xml:space="preserve"
   xmlns:inkscape="http://www.inkscape.org/namespaces/inkscape"
   xmlns:sodipodi="http://sodipodi.sourceforge.net/DTD/sodipodi-0.dtd"
   xmlns:xlink="http://www.w3.org/1999/xlink"
   xmlns="http://www.w3.org/2000/svg"
   xmlns:svg="http://www.w3.org/2000/svg"><sodipodi:namedview
     id="namedview1"
     pagecolor="#ffffff"
     bordercolor="#666666"
     borderopacity="1.0"
     inkscape:showpageshadow="2"
     inkscape:pageopacity="0.0"
     inkscape:pagecheckerboard="0"
     inkscape:deskcolor="#d1d1d1"
     inkscape:document-units="px"
     inkscape:zoom="4"
     inkscape:cx="160.125"
     inkscape:cy="86.125001"
     inkscape:window-width="2560"
     inkscape:window-height="1417"
     inkscape:window-x="-8"
     inkscape:window-y="-8"
     inkscape:window-maximized="1"
     inkscape:current-layer="layer1"
     showgrid="false" /><defs
     id="defs1"><linearGradient
       id="linearGradient1"
       inkscape:collect="always"><stop
         style="stop-color:#f985a5;stop-opacity:1;"
         offset="0"
         id="stop1" /><stop
         style="stop-color:#fcb385;stop-opacity:1;"
         offset="0.18847007"
         id="stop3" /><stop
         style="stop-color:#fde3ab;stop-opacity:1;"
         offset="0.39024389"
         id="stop4" /><stop
         style="stop-color:#93f88c;stop-opacity:1;"
         offset="0.60310423"
         id="stop6" /><stop
         style="stop-color:#75aaff;stop-opacity:1;"
         offset="0.80487806"
         id="stop5" /><stop
         style="stop-color:#99a4ff;stop-opacity:1;"
         offset="1"
         id="stop2" /></linearGradient><linearGradient
       inkscape:collect="always"
       xlink:href="#linearGradient1"
       id="linearGradient8"
       x1="53.719296"
       y1="10.557584"
       x2="56.646381"
       y2="13.48506"
       gradientUnits="userSpaceOnUse"
       gradientTransform="rotate(-90,55.182838,12.021322)" /><linearGradient
       inkscape:collect="always"
       xlink:href="#linearGradient1"
       id="linearGradient9"
       gradientUnits="userSpaceOnUse"
       x1="53.719296"
       y1="10.557584"
       x2="56.646381"
       y2="13.48506"
       gradientTransform="rotate(180,44.449993,12.021322)" /><linearGradient
       inkscape:collect="always"
       xlink:href="#linearGradient1"
       id="linearGradient10"
       gradientUnits="userSpaceOnUse"
       x1="53.719296"
       y1="10.557584"
       x2="56.646381"
       y2="13.48506"
       gradientTransform="rotate(90,33.716953,12.021516)" /><linearGradient
       inkscape:collect="always"
       xlink:href="#linearGradient1"
       id="linearGradient8-8"
       x1="34.173794"
       y1="25.201033"
       x2="42.380905"
       y2="25.201033"
       gradientUnits="userSpaceOnUse"
       gradientTransform="matrix(0.60824693,0,0,0.60824693,-8.7475616,10.07155)" /></defs><g
     inkscape:label="Layer 1"
     inkscape:groupmode="layer"
     id="layer1"><rect
       style="fill:#161616;stroke-width:0.264999;stroke-linecap:round;stroke-linejoin:round;paint-order:stroke markers fill;fill-opacity:1"
       id="rect3"
       width="88.900002"
       height="50.799999"
       x="0"
       y="0" /><path
       d="m 30.302216,8.6061931 v 0.9756954 0.9756955 0.975696 0.975695 0.976085 0.975696 0.975695 h 0.975695 0.975694 0.975695 0.975694 0.975694 0.975695 0.975694 V 14.460756 13.48506 12.508975 11.53328 10.557584 9.5818885 8.6061931 H 36.156383 35.180688 34.204994 33.2293 32.253605 31.277911 Z m 0.975695,0.9756954 h 0.975694 0.975695 0.975694 0.975694 0.975695 v 0.9756955 0.975696 0.975695 0.976085 0.975696 H 35.180688 34.204994 33.2293 32.253605 31.277911 V 13.48506 12.508975 11.53328 10.557584 Z"
       style="fill:#ffffff;fill-opacity:1;stroke-width:0.201944;stroke-linecap:round;stroke-linejoin:round;paint-order:stroke markers fill"
       id="path8" /><path
       d="m 32.253605,10.557584 v 0.975696 0.975695 0.976085 h 0.975695 0.975694 0.975694 V 12.508975 11.53328 10.557584 H 34.204994 33.2293 Z"
       style="fill:#ffffff;fill-opacity:1;stroke-width:0.201944;stroke-linecap:round;stroke-linejoin:round;paint-order:stroke markers fill"
       id="path9" /><path
       d="m 42.986251,8.6061931 v 0.9756954 h -0.975694 -0.975694 v 0.9756955 h 0.975694 v 0.975696 0.975695 0.976085 h 0.975694 V 12.508975 11.53328 10.557584 h 0.975695 0.975702 0.976078 V 9.5818885 H 44.937648 43.961946 V 8.6061931 Z"
       style="fill:#ffffff;fill-opacity:1;stroke-width:0.201944;stroke-linecap:round;stroke-linejoin:round;paint-order:stroke markers fill"
       id="path22" /><path
       d="m 47.865123,8.6061931 v 0.9756954 h -0.975695 v 0.9756955 h 0.975695 0.975694 v 0.975696 h 0.975695 0.975694 V 10.557584 H 49.816512 V 9.5818885 8.6061931 h -0.975695 z"
       style="fill:#ffffff;fill-opacity:1;stroke-width:0.201944;stroke-linecap:round;stroke-linejoin:round;paint-order:stroke markers fill"
       id="path23" /><path
       d="m 44.937648,11.53328 v 0.975695 h -0.975702 v 0.976085 h 0.975702 v 0.975696 h 0.976078 V 13.48506 h -3.84e-4 v -0.976085 h 3.84e-4 V 11.53328 Z m 0.976078,0.975695 v 0.976085 h 0.975702 v -0.976085 z"
       style="fill:#ffffff;fill-opacity:1;stroke-width:0.201944;stroke-linecap:round;stroke-linejoin:round;paint-order:stroke markers fill"
       id="path45" /><path
       d="m 46.889428,11.53328 v 0.975695 h 0.975695 0.975694 V 11.53328 h -0.975694 z"
       style="fill:#ffffff;fill-opacity:1;stroke-width:0.201944;stroke-linecap:round;stroke-linejoin:round;paint-order:stroke markers fill"
       id="path46" /><path
       d="m 49.816512,12.508975 v 0.976085 h -0.975695 v 0.975696 h 0.975695 v 0.975695 h -0.975695 v -0.975695 h -0.975694 v 0.975695 h -0.975695 v 0.975695 h -0.976086 v 0.975696 h 0.976086 0.975695 v 0.975695 0.975696 h 0.975694 v -0.975696 -0.975695 h 0.975695 v -0.975696 h 0.975694 V 15.436451 14.460756 13.48506 12.508975 Z"
       style="fill:#ffffff;fill-opacity:1;stroke-width:0.201944;stroke-linecap:round;stroke-linejoin:round;paint-order:stroke markers fill"
       id="path49" /><path
       d="m 42.986251,15.436451 v 0.975695 h -0.975694 v 0.975696 h 0.975694 v 0.975695 h 0.975695 0.975702 v 0.975696 h 0.975694 3.84e-4 0.975702 v -0.975696 h -0.975702 v -0.975695 h -0.976078 -0.975702 v -0.975696 -0.975695 z"
       style="fill:#ffffff;fill-opacity:1;stroke-width:0.201944;stroke-linecap:round;stroke-linejoin:round;paint-order:stroke markers fill"
       id="path50" /><rect
       style="fill:#ffffff;fill-opacity:1;stroke-width:0.201944;stroke-linecap:round;stroke-linejoin:round;paint-order:stroke markers fill"
       id="rect1-7-8-28-98-074"
       width="0.97571605"
       height="0.97571665"
       x="46.889252"
       y="19.33918" /><rect
       style="fill:#ffffff;fill-opacity:1;stroke-width:0.201944;stroke-linecap:round;stroke-linejoin:round;paint-order:stroke markers fill"
       id="rect1-7-8-28-98-07"
       width="0.97571605"
       height="0.97571665"
       x="46.889244"
       y="13.484877" /><rect
       style="fill:#ffffff;fill-opacity:1;stroke-width:0.201944;stroke-linecap:round;stroke-linejoin:round;paint-order:stroke markers fill"
       id="rect1-7-8-28-98-8"
       width="0.97571605"
       height="0.97571665"
       x="45.913528"
       y="14.460594" /><rect
       style="fill:#ffffff;fill-opacity:1;stroke-width:0.201944;stroke-linecap:round;stroke-linejoin:round;paint-order:stroke markers fill"
       id="rect1-7-8-28-98-0"
       width="0.97571605"
       height="0.97571665"
       x="43.962105"
       y="14.460594" /><rect
       style="fill:#ffffff;fill-opacity:1;stroke-width:0.201944;stroke-linecap:round;stroke-linejoin:round;paint-order:stroke markers fill"
       id="rect1-7-8-28-60"
       width="0.97571605"
       height="0.97571665"
       x="45.913528"
       y="8.6062946" /><rect
       style="fill:#ffffff;fill-opacity:1;stroke-width:0.201944;stroke-linecap:round;stroke-linejoin:round;paint-order:stroke markers fill"
       id="rect1-7-8-28-94"
       width="0.97571605"
       height="0.97571665"
       x="42.01067"
       y="14.460594" /><path
       d="m 38.107779,8.6061931 v 0.9756954 0.9756955 0.975696 0.975695 h 0.975695 v 0.976085 h -0.975695 v 0.975696 0.975695 h 0.975695 v -0.975695 h 0.975694 v 0.975695 0.975695 0.975696 h 0.975695 v -0.975696 h 0.975694 V 15.436451 H 41.034863 V 14.460756 13.48506 12.508975 11.53328 H 40.059168 V 10.557584 H 39.083474 V 9.5818885 8.6061931 Z"
       style="fill:#ffffff;fill-opacity:1;stroke-width:0.201944;stroke-linecap:round;stroke-linejoin:round;paint-order:stroke markers fill"
       id="path15" /><path
       d="m 30.302216,30.071883 v 0.976084 0.975696 0.975696 0.975695 0.975696 0.975695 0.975695 h 0.975695 0.975694 0.975695 0.975694 0.975694 0.975695 0.975694 V 35.926445 34.95075 33.975054 32.999359 32.023663 31.047967 30.071883 H 36.156383 35.180688 34.204994 33.2293 32.253605 31.277911 Z m 0.975695,0.976084 h 0.975694 0.975695 0.975694 0.975694 0.975695 v 0.975696 0.975696 0.975695 0.975696 0.975695 H 35.180688 34.204994 33.2293 32.253605 31.277911 V 34.95075 33.975054 32.999359 32.023663 Z"
       style="fill:#ffffff;fill-opacity:1;stroke-width:0.201944;stroke-linecap:round;stroke-linejoin:round;paint-order:stroke markers fill"
       id="path12" /><path
       d="m 32.253605,32.023663 v 0.975696 0.975695 0.975696 h 0.975695 0.975694 0.975694 V 33.975054 32.999359 32.023663 H 34.204994 33.2293 Z"
       style="fill:#ffffff;fill-opacity:1;stroke-width:0.201944;stroke-linecap:round;stroke-linejoin:round;paint-order:stroke markers fill"
       id="path13" /><path
       d="m 51.7679,8.6061931 v 0.9756954 0.9756955 0.975696 0.975695 0.976085 0.975696 0.975695 h 0.975695 0.975702 0.975694 0.975695 0.975694 0.975694 0.975695 V 14.460756 13.48506 12.508975 11.53328 10.557584 9.5818885 8.6061931 H 57.622074 56.64638 55.670686 54.694991 53.719297 52.743595 Z m 0.975695,0.9756954 h 0.975702 0.975694 0.975695 0.975694 0.975694 v 0.9756955 0.975696 0.975695 0.976085 0.975696 H 56.64638 55.670686 54.694991 53.719297 52.743595 V 13.48506 12.508975 11.53328 10.557584 Z"
       style="fill:#ffffff;fill-opacity:1;stroke-width:0.201944;stroke-linecap:round;stroke-linejoin:round;paint-order:stroke markers fill"
       id="path10" /><path
       d="m 53.719101,13.484863 h 0.975696 0.975695 0.976085 V 12.509169 11.533474 10.55778 h -0.976085 -0.975695 -0.975696 v 0.975694 0.975695 z"
       style="fill:url(#linearGradient8);fill-opacity:1;stroke-width:0.201944;stroke-linecap:round;stroke-linejoin:round;paint-order:stroke markers fill"
       id="path11" /><path
       d="M 35.180688,13.485061 V 12.509365 11.53367 10.557584 h -0.975694 -0.975695 -0.975694 v 0.976086 0.975695 0.975696 h 0.975694 0.975695 z"
       style="fill:url(#linearGradient9);fill-opacity:1;stroke-width:0.201944;stroke-linecap:round;stroke-linejoin:round;paint-order:stroke markers fill"
       id="path11-0" /><path
       d="M 35.180886,32.02386 H 34.20519 33.229495 32.25341 v 0.975694 0.975695 0.975694 h 0.976085 0.975695 0.975696 v -0.975694 -0.975695 z"
       style="fill:url(#linearGradient10);fill-opacity:1;stroke-width:0.201944;stroke-linecap:round;stroke-linejoin:round;paint-order:stroke markers fill"
       id="path11-7" /><path
       d="m 52.743595,16.412146 v 0.975696 0.975695 H 51.7679 v 0.975696 h 0.975695 0.975702 0.975694 v 0.975695 0.975695 h -0.975694 v 0.975696 0.975695 h 0.975694 0.975695 0.975694 v 0.975696 h -0.975694 -0.975695 v 0.975695 0.975696 H 53.719297 V 25.193405 24.21771 h -0.975702 v 0.975695 H 51.7679 V 24.21771 h -0.975694 v 0.975695 0.975696 H 51.7679 v 0.975696 h 0.975695 0.975702 0.975694 0.975695 v 0.975695 h 0.975694 0.975694 v -0.975695 h 0.975695 V 26.169101 25.193405 H 57.622074 V 24.21771 23.242014 22.266319 H 56.64638 v -0.975696 h 0.975694 V 20.314928 H 56.64638 55.670686 v -0.975695 h 0.975694 v -0.975696 -0.975695 h 0.975694 0.975695 V 16.412146 H 57.622074 56.64638 55.670686 54.694991 v 0.975696 h 0.975695 v 0.975695 h -0.975695 -0.975694 v -0.975695 -0.975696 z"
       style="fill:#ffffff;fill-opacity:1;stroke-width:0.201944;stroke-linecap:round;stroke-linejoin:round;paint-order:stroke markers fill"
       id="path24" /><rect
       style="fill:#ffffff;fill-opacity:1;stroke-width:0.201944;stroke-linecap:round;stroke-linejoin:round;paint-order:stroke markers fill"
       id="rect1-7-8-28-98-40-3"
       width="0.97571605"
       height="0.97571665"
       x="50.792145"
       y="27.144922" /><path
       d="m 48.840817,19.339233 v 0.975695 0.975695 0.975696 h -0.975694 v 0.975695 h -0.975695 v -0.975695 -0.975696 h -0.975702 -0.975694 v 0.975696 h 0.975694 v 0.975695 0.975696 0.975695 h 0.975702 0.975695 0.975694 v 0.975696 h -0.975694 v 0.975696 h 0.975694 v 0.975695 0.975695 h 0.975695 v 0.975696 0.976084 h -0.975695 v -0.976084 h -0.975694 v 0.976084 h -0.975695 v 0.975696 h 0.975695 0.975694 v 0.975696 0.975695 h -0.975694 v 0.975696 h -0.975695 v 0.975695 0.975695 h 0.975695 0.975694 V 35.926445 34.95075 h 0.975695 v -0.975696 -0.975695 h 0.975694 0.975694 v 0.975695 0.975696 0.975695 0.975695 h 0.975695 0.975702 0.975694 v -0.975695 h 0.975695 0.975694 V 34.95075 h 0.975694 0.975695 V 33.975054 H 57.622074 V 32.999359 H 56.64638 55.670686 54.694991 v 0.975695 h 0.975695 v 0.975696 h -0.975695 -0.975694 v 0.975695 H 52.743595 V 34.95075 33.975054 h 0.975702 v -0.975695 h 0.975694 v -0.975696 h 0.975695 0.975694 0.975694 V 31.047967 H 56.64638 V 30.071883 29.096187 H 55.670686 V 28.120492 H 54.694991 53.719297 52.743595 51.7679 50.792206 49.816512 V 27.144797 26.169101 25.193405 24.21771 h 0.975694 v -0.975696 h -0.975694 v -0.975695 -0.975696 h 0.975694 0.975694 v -0.975695 -0.975695 h -0.975694 -0.975694 z m 1.951389,9.756954 h 0.975694 0.975695 0.975702 v 0.975696 0.976084 0.975696 H 52.743595 51.7679 50.792206 v -0.975696 -0.976084 z"
       style="fill:#ffffff;fill-opacity:1;stroke-width:0.201944;stroke-linecap:round;stroke-linejoin:round;paint-order:stroke markers fill"
       id="path34" /><rect
       style="fill:#ffffff;fill-opacity:1;stroke-width:0.201944;stroke-linecap:round;stroke-linejoin:round;paint-order:stroke markers fill"
       id="rect1-7-8-28-98-703-6-6"
       width="0.97571605"
       height="0.97571665"
       x="42.010696"
       y="27.144924" /><path
       d="m 38.107779,31.047967 v 0.975696 0.975696 h 0.975695 0.975694 v -0.975696 h -0.975694 v -0.975696 z"
       style="fill:#ffffff;fill-opacity:1;stroke-width:0.201944;stroke-linecap:round;stroke-linejoin:round;paint-order:stroke markers fill"
       id="path18" /><rect
       style="fill:#ffffff;fill-opacity:1;stroke-width:0.201944;stroke-linecap:round;stroke-linejoin:round;paint-order:stroke markers fill"
       id="rect1-7-8-28-98-74-7-0-6-8-5"
       width="0.97571605"
       height="0.97571665"
       x="39.083557"
       y="30.072075" /><path
       d="m 43.961946,27.144797 v 0.975695 h -0.975695 v 0.975695 h 0.975695 0.976086 v -0.975695 -0.975695 z"
       style="fill:#ffffff;fill-opacity:1;stroke-width:0.201944;stroke-linecap:round;stroke-linejoin:round;paint-order:stroke markers fill"
       id="path37" /><path
       d="m 45.913726,28.120492 v 0.975695 0.975696 h -0.975694 -0.976086 -0.975695 v -0.975696 h -0.975694 v 0.975696 h -0.975694 v 0.976084 h -0.975695 v 0.975696 h 0.975695 0.975694 v -0.975696 h 0.975694 v 0.975696 h -0.975694 v 0.975696 h 0.975694 v 0.975695 h 0.975695 0.976086 v 0.975696 h 0.975694 0.975702 v -0.975696 h -0.975702 v -0.975695 h -0.975694 -0.976086 v -0.975696 -0.975696 h 0.976086 0.975694 0.975702 v -0.976084 -0.975696 h 0.975695 v -0.975695 h -0.975695 z"
       style="fill:#ffffff;fill-opacity:1;stroke-width:0.201944;stroke-linecap:round;stroke-linejoin:round;paint-order:stroke markers fill"
       id="path36" /><path
       d="m 43.961946,34.95075 v 0.975695 h -0.975695 v 0.975695 h 0.975695 0.976086 V 35.926445 34.95075 Z"
       style="fill:#ffffff;fill-opacity:1;stroke-width:0.201944;stroke-linecap:round;stroke-linejoin:round;paint-order:stroke markers fill"
       id="path16" /><rect
       style="fill:#ffffff;fill-opacity:1;stroke-width:0.201944;stroke-linecap:round;stroke-linejoin:round;paint-order:stroke markers fill"
       id="rect1-7-8-28-98-74-7-0-1-3-3"
       width="0.97571605"
       height="0.97571665"
       x="42.010696"
       y="34.950653" /><rect
       style="fill:#ffffff;fill-opacity:1;stroke-width:0.201944;stroke-linecap:round;stroke-linejoin:round;paint-order:stroke markers fill"
       id="rect1-7-8-28-98-74-7-0-1-3-5"
       width="0.97571605"
       height="0.97571665"
       x="41.034988"
       y="35.926373" /><rect
       style="fill:#ffffff;fill-opacity:1;stroke-width:0.201944;stroke-linecap:round;stroke-linejoin:round;paint-order:stroke markers fill"
       id="rect1-7-8-28-98-703-6-5-2-0-9"
       width="0.97571605"
       height="0.97571665"
       x="57.622169"
       y="30.072069" /><rect
       style="fill:#ffffff;fill-opacity:1;stroke-width:0.201944;stroke-linecap:round;stroke-linejoin:round;paint-order:stroke markers fill"
       id="rect1-7-8-28-98-74-7-5-7-3-9-4"
       width="0.97571605"
       height="0.97571665"
       x="57.622169"
       y="32.023499" /><rect
       style="fill:#ffffff;fill-opacity:1;stroke-width:0.201944;stroke-linecap:round;stroke-linejoin:round;paint-order:stroke markers fill"
       id="rect1-7-8-28-98-74-7-5-7-3-9-0-5"
       width="0.97571605"
       height="0.97571665"
       x="56.646454"
       y="35.926369" /><rect
       style="fill:#ffffff;fill-opacity:1;stroke-width:0.201944;stroke-linecap:round;stroke-linejoin:round;paint-order:stroke markers fill"
       id="rect1-7-8-28-98-74-7-5-7-5-25-4-3"
       width="0.97571605"
       height="0.97571665"
       x="49.816422"
       y="35.926369" /><rect
       style="fill:#ffffff;fill-opacity:1;stroke-width:0.201944;stroke-linecap:round;stroke-linejoin:round;paint-order:stroke markers fill"
       id="rect1-7-8-28-98-74-7-5-7-5-25-4-3-6"
       width="0.97571605"
       height="0.97571665"
       x="51.767838"
       y="30.072069" /><rect
       style="fill:#ffffff;fill-opacity:1;stroke-width:0.201944;stroke-linecap:round;stroke-linejoin:round;paint-order:stroke markers fill"
       id="rect1-7-8-28-98-74-9-2-55-8-6"
       width="0.97571605"
       height="0.97571665"
       x="40.05925"
       y="33.974937" /><path
       d="m 30.302216,23.242014 v 0.975696 h 0.975695 0.975694 v 0.975695 0.975696 h 0.975695 0.975694 0.975694 v -0.975696 h 0.975695 0.975694 0.975702 V 24.21771 h -0.975702 -0.975694 -0.975695 v -0.975696 h -0.975694 v 0.975696 0.975695 H 33.2293 V 24.21771 23.242014 h -0.975695 -0.975694 z"
       style="fill:#ffffff;fill-opacity:1;stroke-width:0.201944;stroke-linecap:round;stroke-linejoin:round;paint-order:stroke markers fill"
       id="path20" /><rect
       style="fill:#ffffff;fill-opacity:1;stroke-width:0.201944;stroke-linecap:round;stroke-linejoin:round;paint-order:stroke markers fill"
       id="rect1-7-8-28-98-703-0-4-1"
       width="0.97571605"
       height="0.97571665"
       x="30.302114"
       y="25.193485" /><rect
       style="fill:#ffffff;fill-opacity:1;stroke-width:0.201944;stroke-linecap:round;stroke-linejoin:round;paint-order:stroke markers fill"
       id="rect1-7-8-28-98-74-92-7-9"
       width="0.97571605"
       height="0.97571665"
       x="33.229244"
       y="22.266335" /><path
       d="m 33.2293,27.144797 v 0.975695 h -0.975695 -0.975694 -0.975695 v 0.975695 h 0.975695 0.975694 0.975695 0.975694 0.975694 v -0.975695 h -0.975694 v -0.975695 z"
       style="fill:#ffffff;fill-opacity:1;stroke-width:0.201944;stroke-linecap:round;stroke-linejoin:round;paint-order:stroke markers fill"
       id="path19" /><rect
       style="fill:#ffffff;fill-opacity:1;stroke-width:0.201944;stroke-linecap:round;stroke-linejoin:round;paint-order:stroke markers fill"
       id="rect1-7-8-28-98-74-92-48-3"
       width="0.97571605"
       height="0.97571665"
       x="36.15638"
       y="28.120636" /><path
       d="m 35.180688,26.169101 v 0.975696 0.975695 h 0.975695 v -0.975695 h 0.975694 v 0.975695 h 0.975702 v 0.975695 0.975696 h 0.975695 v -0.975696 -0.975695 -0.975695 h -0.975695 v -0.975696 h -0.975702 -0.975694 z"
       style="fill:#ffffff;fill-opacity:1;stroke-width:0.201944;stroke-linecap:round;stroke-linejoin:round;paint-order:stroke markers fill"
       id="path51" /><path
       d="m 40.059168,24.21771 v 0.975695 h -0.975694 v 0.975696 h 0.975694 v 0.975696 0.975695 0.975695 0.975696 h 0.975695 v -0.975696 h 0.975694 V 28.120492 H 41.034863 V 27.144797 26.169101 25.193405 24.21771 Z"
       style="fill:#ffffff;fill-opacity:1;stroke-width:0.201944;stroke-linecap:round;stroke-linejoin:round;paint-order:stroke markers fill"
       id="path38" /><path
       d="m 34.204994,16.412146 v 0.975696 H 33.2293 v 0.975695 h 0.975694 0.975694 v -0.975695 h 0.975695 0.975694 v -0.975696 h -0.975694 -0.975695 z"
       style="fill:#ffffff;fill-opacity:1;stroke-width:0.201944;stroke-linecap:round;stroke-linejoin:round;paint-order:stroke markers fill"
       id="path21" /><path
       d="m 38.107779,17.387842 v 0.975695 h -0.975702 -0.975694 -0.975695 v 0.975696 h 0.975695 0.975694 v 0.975695 h -0.975694 -0.975695 v 0.975695 h -0.975694 v 0.975696 h 0.975694 v 0.975695 h 0.975695 0.975694 0.975702 0.975695 v 0.975696 h 0.975694 v -0.975696 h 0.975695 v 0.975696 h 0.975694 v -0.975696 h 0.975694 v 0.975696 h -0.975694 v 0.975695 h 0.975694 v 0.975696 h 0.975695 0.976086 v 0.975696 h 0.975694 V 26.169101 25.193405 H 44.938032 43.961946 V 24.21771 23.242014 h 0.975702 v -0.975695 h -0.975702 -0.975695 v -0.975696 h -0.975694 v 0.975696 h -0.975694 v -0.975696 h -0.975695 -0.975694 -0.975695 v -0.975695 -0.975695 h 0.975695 v 0.975695 h 0.975694 v -0.975695 h 0.975695 v -0.975696 h -0.975695 -0.975694 v -0.975695 z m -1.951396,3.902781 h 0.975694 v 0.975696 h -0.975694 z"
       style="fill:#ffffff;fill-opacity:1;stroke-width:0.201944;stroke-linecap:round;stroke-linejoin:round;paint-order:stroke markers fill"
       id="path42" /><path
       d="m 43.961946,19.339233 v 0.975695 h -0.975695 v 0.975695 h 0.975695 0.975702 v -0.975695 -0.975695 z"
       style="fill:#ffffff;fill-opacity:1;stroke-width:0.201944;stroke-linecap:round;stroke-linejoin:round;paint-order:stroke markers fill"
       id="path43" /><rect
       style="fill:#ffffff;fill-opacity:1;stroke-width:0.201944;stroke-linecap:round;stroke-linejoin:round;paint-order:stroke markers fill"
       id="rect1-7-8-28-98-74-92-7-1-6-9-7"
       width="0.97571605"
       height="0.97571665"
       x="42.01067"
       y="19.339186" /><rect
       style="fill:#ffffff;fill-opacity:1;stroke-width:0.201944;stroke-linecap:round;stroke-linejoin:round;paint-order:stroke markers fill"
       id="rect1-7-8-28-98-74-92-7-1-6-9-37"
       width="0.97571605"
       height="0.97571665"
       x="41.034954"
       y="20.314903" /><path
       d="m 30.302216,16.412146 v 0.975696 0.975695 0.975696 0.975695 0.975695 h 0.975695 v 0.975696 h 0.975694 0.975695 v -0.975696 -0.975695 h 0.975694 V 19.339233 H 33.2293 v -0.975696 h -0.975695 -0.975694 v -0.975695 h 0.975694 v -0.975696 h -0.975694 z"
       style="fill:#ffffff;fill-opacity:1;stroke-width:0.201944;stroke-linecap:round;stroke-linejoin:round;paint-order:stroke markers fill"
       id="path14" /><rect
       style="fill:#ffffff;fill-opacity:1;stroke-width:0.201944;stroke-linecap:round;stroke-linejoin:round;paint-order:stroke markers fill"
       id="rect1-7-8-28-98-563"
       width="0.97571605"
       height="0.97571665"
       x="51.767853"
       y="22.266335" /><rect
       style="fill:#ffffff;fill-opacity:1;stroke-width:0.201944;stroke-linecap:round;stroke-linejoin:round;paint-order:stroke markers fill"
       id="rect1-7-8-28-98-18"
       width="0.97571605"
       height="0.97571665"
       x="57.622162"
       y="18.363464" /><rect
       style="fill:#ffffff;fill-opacity:1;stroke-width:0.201944;stroke-linecap:round;stroke-linejoin:round;paint-order:stroke markers fill"
       id="rect1-7-8-28-98-74-9-2-55-8-3"
       width="0.97571605"
       height="0.97571665"
       x="45.913567"
       y="32.023502" /><path
       d="m 38.107779,34.95075 v 0.975695 0.975695 h 0.975695 v -0.975695 h 0.975694 V 34.95075 h -0.975694 z"
       style="fill:#ffffff;fill-opacity:1;stroke-width:0.201944;stroke-linecap:round;stroke-linejoin:round;paint-order:stroke markers fill"
       id="path17" /><g
       id="g10"
       transform="translate(3.0077816,16.933338)"><path
         style="fill:url(#linearGradient8-8);stroke:none;stroke-width:0.0114629;stroke-linecap:round;stroke-linejoin:round;stroke-dasharray:none;stroke-opacity:1;paint-order:stroke markers fill"
         d="m 14.484886,22.905582 c -0.316821,-0.0023 -0.629099,0.06984 -0.917031,0.187087 -0.270619,0.116481 -0.520084,0.272928 -0.732725,0.480222 -0.182191,0.155388 -0.325219,0.352566 -0.450266,0.551736 -0.09091,0.164347 -0.177786,0.329953 -0.225982,0.513563 -0.120837,0.331575 -0.136385,0.694655 -0.108421,1.049598 0.03127,0.23074 0.08848,0.461141 0.178505,0.675473 0.116481,0.270617 0.271307,0.523327 0.478602,0.735967 0.155383,0.182189 0.352569,0.325218 0.551736,0.450266 0.164346,0.09091 0.329954,0.177785 0.513562,0.22598 0.331576,0.120839 0.694656,0.136387 1.049597,0.10842 0.23074,-0.03127 0.461142,-0.08848 0.675475,-0.178505 0.270617,-0.116481 0.523326,-0.271305 0.735967,-0.4786 0.182189,-0.155385 0.32522,-0.352569 0.450267,-0.551736 0.0909,-0.164347 0.177783,-0.329953 0.225982,-0.513563 0.120836,-0.331575 0.136384,-0.694656 0.108421,-1.049599 -0.03127,-0.23074 -0.08848,-0.46114 -0.178505,-0.675473 -0.116481,-0.270617 -0.271307,-0.523325 -0.478602,-0.735966 -0.155389,-0.182192 -0.352567,-0.325218 -0.551737,-0.450266 -0.164346,-0.09091 -0.329954,-0.182649 -0.513562,-0.230844 -0.257073,-0.09214 -0.534815,-0.122352 -0.811283,-0.11376 z m -0.09709,0.302549 v 1.008736 c -0.264623,-0.0097 -0.439722,-0.01438 -0.760594,-0.05589 0.07381,-0.212944 0.158436,-0.38186 0.276456,-0.561008 0.123066,-0.163384 0.228407,-0.297944 0.484138,-0.391844 z m 0.307205,0 c 0.238048,0.09467 0.416277,0.284727 0.538966,0.497457 0.08638,0.14192 0.156892,0.310918 0.211188,0.466815 -0.212668,0.01837 -0.535697,0.03157 -0.761941,0.04213 l -0.002,-1.006403 z m -0.971005,0.12842 c -0.03738,0.105461 -0.142783,0.210931 -0.196866,0.324294 -0.07003,0.151826 -0.145272,0.299743 -0.190638,0.461495 -0.12858,-0.01297 -0.385691,-0.07213 -0.515168,-0.111241 0.151925,-0.191627 0.198244,-0.206345 0.259696,-0.284844 0.191185,-0.165546 0.408989,-0.299076 0.642972,-0.389704 z m 1.623944,7e-5 c 0.211552,0.0874 0.588349,0.266479 0.919399,0.679536 -0.115156,0.05469 -0.392559,0.08247 -0.523886,0.112977 -0.03799,-0.08987 -0.182286,-0.549666 -0.404942,-0.779847 l -0.0011,-0.0086 z M 12.646374,24.2536 c 0.19869,0.07461 0.390341,0.113385 0.601869,0.156212 -0.05446,0.230884 -0.09646,0.614828 -0.103027,0.843318 h -0.820748 c 0.01571,-0.265549 0.08461,-0.500178 0.183644,-0.742447 0.04319,-0.07772 0.07862,-0.19094 0.138258,-0.257083 z m 3.786981,0.02295 c 0.08529,0.144395 0.244503,0.393349 0.306866,0.977092 -0.263856,-9.13e-4 -0.546752,-5.24e-4 -0.816395,-5.24e-4 -0.0098,-0.281387 -0.0496,-0.569081 -0.107018,-0.836601 0.15063,-0.04147 0.31395,-0.05608 0.462128,-0.103 0.05331,-0.0052 0.101715,-0.03356 0.154419,-0.03697 z m -2.045559,0.22461 v 0.751967 h -0.958302 c 0.01011,-0.274631 0.04831,-0.53527 0.107347,-0.802036 0.300019,0.04241 0.57045,0.03833 0.850951,0.05007 z m 1.142639,-0.04351 c 0.03761,0.156421 0.100921,0.537484 0.103304,0.795472 h -0.952496 v -0.751967 c 0.281008,0.0074 0.571301,-0.01884 0.849188,-0.04351 z m -2.795591,1.088921 h 0.410372 c 0.01463,0.267658 0.04336,0.563998 0.100597,0.823962 -0.21322,0.02656 -0.419388,0.08505 -0.626601,0.139419 -0.08576,-0.143791 -0.254609,-0.493447 -0.295669,-0.96257 z m 1.652952,0 v 0.733626 c -0.284268,0.0053 -0.562049,0.0066 -0.840346,0.04739 -0.06935,-0.256048 -0.09319,-0.514525 -0.113056,-0.778796 0.317808,-9.13e-4 0.635505,-0.0023 0.953402,-0.0023 z m 0.772601,0 h 0.479151 c -0.0092,0.269277 -0.05082,0.528933 -0.10546,0.79094 -0.282225,-0.02651 -0.566132,-0.05346 -0.852841,-0.05732 v -0.733625 c 0.159717,0 0.319433,0 0.479151,0 z m 1.173802,0 h 0.410373 c -0.02158,0.308675 -0.140215,0.745441 -0.316648,0.977178 -0.167429,-0.0464 -0.441423,-0.110504 -0.611171,-0.139281 0.02769,-0.07022 0.125597,-0.614683 0.107151,-0.837897 z m -1.946403,1.017907 c -0.0029,0.338746 0.0063,0.679385 -0.0061,1.016937 -0.09529,-0.04539 -0.343146,-0.22097 -0.452926,-0.362844 -0.177511,-0.229412 -0.299064,-0.593081 -0.299064,-0.593081 0,0 0.03098,-0.01545 0.364704,-0.045 0.194629,-0.007 0.262475,-0.0097 0.393391,-0.016 z m 1.052915,0.05578 c -0.194786,0.510244 -0.397682,0.811724 -0.754053,0.952886 0.0038,-0.334722 -0.0038,-0.779124 -0.0011,-1.00704 0.241191,0.01281 0.484157,0.0265 0.755047,0.05415 z m -2.11386,0.03423 c 0.108507,0.328515 0.237599,0.560988 0.423505,0.80517 -0.0755,0.002 -0.190188,-0.07425 -0.276019,-0.111734 -0.244894,-0.138859 -0.497745,-0.347603 -0.672357,-0.576358 0.25532,-0.07035 0.366968,-0.09393 0.524871,-0.117078 z m 2.94051,0.122595 c -0.386506,0.42644 -0.496036,0.477439 -0.942547,0.693705 0.06511,-0.098 0.285734,-0.376493 0.409351,-0.808229 0.188934,0.0307 0.36361,0.07092 0.533196,0.114524 z"
         id="path6"
         sodipodi:nodetypes="ccccccccccccccccccccccccccccccccccccccccccccccccccccccccccccccccccccccccsccccsccccscccccccscsccscccccccccccccc" /><text
         xml:space="preserve"
         style="font-size:3.63971px;line-height:1.25;font-family:Calibri;-inkscape-font-specification:Calibri;fill:#f8f8f8;fill-opacity:1;stroke-width:0.0909928"
         x="18.032778"
         y="26.430777"
         id="text3"><tspan
           id="tspan3"
           style="font-style:normal;font-variant:normal;font-weight:normal;font-stretch:normal;font-family:'Lucida Sans';-inkscape-font-specification:'Lucida Sans';fill:#f8f8f8;fill-opacity:1;stroke-width:0.0909928"
           x="18.032778"
           y="26.430777"
           sodipodi:role="line">worldwide-lgbt-resources.com</tspan></text></g></g></svg>
