<?xml version="1.0" encoding="UTF-8" standalone="no"?>
<!-- Created with Inkscape (http://www.inkscape.org/) -->

<svg
   width="100"
   height="72"
   viewBox="0 0 26.458333 19.05"
   version="1.1"
   id="svg1"
   xml:space="preserve"
   inkscape:version="1.3 (0e150ed6c4, 2023-07-21)"
   sodipodi:docname="favicon.svg"
   xmlns:inkscape="http://www.inkscape.org/namespaces/inkscape"
   xmlns:sodipodi="http://sodipodi.sourceforge.net/DTD/sodipodi-0.dtd"
   xmlns="http://www.w3.org/2000/svg"
   xmlns:svg="http://www.w3.org/2000/svg"><sodipodi:namedview
     id="namedview1"
     pagecolor="#ffffff"
     bordercolor="#666666"
     borderopacity="1.0"
     inkscape:showpageshadow="2"
     inkscape:pageopacity="0.0"
     inkscape:pagecheckerboard="0"
     inkscape:deskcolor="#d1d1d1"
     inkscape:document-units="mm"
     inkscape:zoom="4.2012626"
     inkscape:cx="62.362205"
     inkscape:cy="57.958767"
     inkscape:window-width="2560"
     inkscape:window-height="1417"
     inkscape:window-x="-8"
     inkscape:window-y="-8"
     inkscape:window-maximized="1"
     inkscape:current-layer="layer1" /><defs
     id="defs1" /><g
     inkscape:label="Layer 1"
     inkscape:groupmode="layer"
     id="layer1"><g
       id="g5"
       transform="matrix(0.27668871,0,0,0.27668871,0.01556294,0)"><path
         style="fill:#5bcefa;fill-opacity:1;stroke-width:0.126153;stroke-linecap:round;stroke-linejoin:round;paint-order:stroke markers fill"
         d="M 40.677052,0 C 30.090835,0.0406 19.502133,-0.0274 8.9179001,0.18869 4.641257,0.81303 1.014532,4.39472 0.327755,8.6647699 -0.008758,10.29521 0.017608,11.96711 0.025339,13.62298 c 31.866411,0 63.732823,0 95.599233,0 0.12448,-3.4178 -0.22469,-7.16921 -2.57566,-9.85444 -1.98498,-2.30493 -4.97522,-3.84521 -8.06325,-3.63047 C 70.217012,-0.02839 55.446432,0.00569 40.677052,0 Z"
         id="path1" /><rect
         style="fill:#f5a9b8;fill-opacity:1;stroke-width:0.264999;stroke-linecap:round;stroke-linejoin:round;paint-order:stroke markers fill"
         id="rect5"
         width="95.599236"
         height="13.854959"
         x="0.025339"
         y="13.62298"
         ry="0" /><rect
         style="fill:#f5a9b8;fill-opacity:1;stroke-width:0.264999;stroke-linecap:round;stroke-linejoin:round;paint-order:stroke markers fill"
         id="rect5-0"
         width="95.599236"
         height="13.854959"
         x="0.025339"
         y="41.332943"
         ry="0" /><rect
         style="fill:#eeeeee;fill-opacity:1;stroke-width:0.264999;stroke-linecap:round;stroke-linejoin:round;paint-order:stroke markers fill"
         id="rect5-0-2"
         width="95.599236"
         height="13.854959"
         x="0.025339"
         y="27.477985"
         ry="0" /><path
         style="fill:#5bcefa;fill-opacity:1;stroke-width:0.126153;stroke-linecap:round;stroke-linejoin:round;paint-order:stroke markers fill"
         d="m 0.025339,56.77878 c -0.0692,3.52452 1.012653,7.33159 3.909992,9.56218 1.825389,1.54106 4.184364,2.49466 6.596321,2.31796 21.405265,0.2009 42.8123,0.15145 64.21822,0.0939 4.07412,-0.0553 8.1585,0.0313 12.2259,-0.16837 4.17203,-0.72699 7.6735,-4.24635 8.34721,-8.43566 0.33589,-1.63144 0.30921,-3.30416 0.30159,-4.96089 -31.86641,0 -63.732822,0 -95.599233,0 0,0.5303 0,1.0606 0,1.59091 z"
         id="path5" /></g></g></svg>
