<?xml version="1.0" encoding="UTF-8" standalone="no"?>
<!-- Created with Inkscape (http://www.inkscape.org/) -->

<svg
   width="122.00029mm"
   height="77.393341mm"
   viewBox="0 0 122.00029 77.393341"
   version="1.1"
   id="svg1"
   xml:space="preserve"
   xmlns:inkscape="http://www.inkscape.org/namespaces/inkscape"
   xmlns:sodipodi="http://sodipodi.sourceforge.net/DTD/sodipodi-0.dtd"
   xmlns="http://www.w3.org/2000/svg"
   xmlns:svg="http://www.w3.org/2000/svg"><sodipodi:namedview
     id="namedview1"
     pagecolor="#ffffff"
     bordercolor="#666666"
     borderopacity="1.0"
     inkscape:showpageshadow="2"
     inkscape:pageopacity="0.0"
     inkscape:pagecheckerboard="0"
     inkscape:deskcolor="#d1d1d1"
     inkscape:document-units="mm"
     inkscape:zoom="2"
     inkscape:cx="177.5"
     inkscape:cy="244.75"
     inkscape:window-width="2560"
     inkscape:window-height="1417"
     inkscape:window-x="-8"
     inkscape:window-y="-8"
     inkscape:window-maximized="1"
     inkscape:current-layer="layer1" /><defs
     id="defs1" /><g
     inkscape:label="Layer 1"
     inkscape:groupmode="layer"
     id="layer1"
     transform="translate(-5.281438,-2.2617635)"><path
       style="fill:#e30102;fill-opacity:1;stroke-width:0.11263;stroke-linecap:round;stroke-linejoin:round;paint-order:stroke markers fill"
       d="m 66.067038,2.3775105 c -13.569608,0.0097 -27.139394,-0.0062 -40.708878,0.04107 4.101909,4.170757 8.239242,8.3129465 12.426281,12.3966305 4.253593,0.199928 8.522324,0.08846 12.781867,0.132552 25.539359,0.01336 51.078722,-0.02192 76.618072,-0.03262 0.0193,-4.179504 0.0387,-8.3590095 0.0582,-12.5385135 -20.39185,4.01e-4 -40.783696,-9.22e-4 -61.175545,8.74e-4 z"
       id="path1" /><path
       style="fill:#ff8b00;fill-opacity:1;stroke-width:0.11263;stroke-linecap:round;stroke-linejoin:round;paint-order:stroke markers fill"
       d="m 91.47813,15.219121 c -17.775634,0.0091 -35.551266,0.02241 -53.3269,0.03338 4.193563,4.133501 8.267014,8.392932 12.572338,12.410686 0.546621,0.548483 1.420155,0.141399 2.104539,0.270526 24.785423,0.02203 49.570853,-0.0178 74.356273,-0.03046 -0.0235,-4.176292 0.13261,-8.358686 -0.0373,-12.531267 -0.26974,-0.330015 -1.00187,-0.03035 -1.4307,-0.135314 -11.4127,-0.02833 -22.82549,-0.01887 -34.23822,-0.01755 z"
       id="path2" /><path
       style="fill:#feed01;fill-opacity:1;stroke-width:0.11263;stroke-linecap:round;stroke-linejoin:round;paint-order:stroke markers fill"
       d="m 51.40224,28.080497 c -0.691174,-0.0475 0.223134,0.515893 0.319932,0.718068 3.973312,4.01511 7.947071,8.035029 12.036723,11.930703 15.780516,0.132715 31.563299,0.05125 47.344705,0.06081 5.36026,-0.0036 10.72052,-0.0072 16.08078,-0.01072 0.0193,-4.21699 0.0387,-8.433979 0.0582,-12.650967 -25.28008,-0.01589 -50.560394,0.005 -75.840343,-0.04788 z"
       id="path3" /><path
       style="fill:#008029;fill-opacity:1;stroke-width:0.11263;stroke-linecap:round;stroke-linejoin:round;paint-order:stroke markers fill"
       d="m 60.373005,44.321615 c -2.346515,2.40367 -4.7956,4.711321 -7.111776,7.140767 -0.724198,0.753363 -1.55552,1.439203 -2.168675,2.306605 25.363944,-0.01918 50.727886,-0.03836 76.091826,-0.05754 0.0193,-4.179505 0.0387,-8.35901 0.0582,-12.538514 -21.23759,0 -42.475177,0 -63.712767,0 -1.052271,1.049561 -2.104541,2.099123 -3.156811,3.148685 z"
       id="path4" /><path
       style="fill:#004dff;fill-opacity:1;stroke-width:0.11263;stroke-linecap:round;stroke-linejoin:round;paint-order:stroke markers fill"
       d="m 44.544362,60.249533 c -2.072102,2.107342 -4.201971,4.167397 -6.187992,6.353596 17.206293,0.122704 34.41456,0.0759 51.621653,0.09611 12.303927,-0.01621 24.608697,0.02652 36.912047,-0.06997 0.73815,-0.07723 0.17344,-1.217471 0.34464,-1.757279 -0.0169,-3.607728 -0.0336,-7.215456 -0.0503,-10.823185 -25.46402,-0.01893 -50.928047,-0.03775 -76.39207,-0.05645 -2.082651,2.085725 -4.165301,4.171451 -6.247952,6.257176 z"
       id="path5" /><path
       style="fill:#750689;fill-opacity:1;stroke-width:0.11263;stroke-linecap:round;stroke-linejoin:round;paint-order:stroke markers fill"
       d="m 31.497394,73.250378 c -2.09561,2.089752 -4.191219,4.179505 -6.286828,6.269257 33.991272,-0.0187 67.982546,-0.03752 101.973814,-0.05645 0.0193,-4.141801 0.0387,-8.283601 0.0582,-12.425401 -29.819451,-0.01908 -59.638906,-0.03804 -89.458362,-0.05689 -2.095609,2.089825 -4.191218,4.17965 -6.286827,6.269476 z"
       id="path6" /><path
       style="fill:#000000;fill-opacity:1;stroke-width:0.11263;stroke-linecap:round;stroke-linejoin:round;paint-order:stroke markers fill"
       d="m 20.01115,2.2909745 c -1.572512,0.0098 -3.145024,0.01962 -4.717536,0.02943 C 28.13264,15.199327 41.03405,28.016985 53.808779,40.959443 41.037754,53.915103 28.125724,66.731868 15.298226,79.631867 c 3.128332,0 6.256664,0 9.384997,0 3.324983,-3.198943 6.538482,-6.515286 9.82229,-9.759034 9.570804,-9.628596 19.257783,-19.1436 28.786219,-28.814772 0.01154,-0.425235 -0.759598,-0.816283 -1.034101,-1.224447 C 49.783521,27.27423 37.241079,14.782961 24.728687,2.2617635 c -1.572512,0.0097 -3.145024,0.01947 -4.717537,0.029211 z"
       id="path7" /><path
       style="fill:#613915;fill-opacity:1;stroke-width:0.11263;stroke-linecap:round;stroke-linejoin:round;paint-order:stroke markers fill"
       d="m 9.4262893,2.2661555 c -1.232445,0.03464 -2.557171,-0.03616 -3.737965,0.106963 5.1333677,5.280257 10.4752967,10.3588605 15.6263587,15.6188925 0.05704,0.2055 0.473574,0.136099 0.516142,0.43927 1.884473,1.953182 3.777909,3.910752 5.782106,5.742572 0.127426,0.250067 0.238027,0.483509 0.520096,0.647922 4.336461,4.166979 8.498185,8.534626 12.878947,12.642402 0.939168,1.246273 2.319391,2.206016 3.190855,3.522283 -0.894275,1.233257 -2.111739,2.264971 -3.179779,3.369739 -11.724474,11.728409 -23.545314,23.361329 -35.2396287,35.119488 -0.07638,0.350736 1.27539,0.06208 1.772238,0.156181 2.5025917,0 5.0051847,0 7.5077767,0 C 27.85574,66.806649 40.728688,54.061049 53.431445,41.147013 53.745913,40.838937 53.056513,40.504044 52.942759,40.237725 50.458718,37.60836 47.806332,35.082661 45.341879,32.469668 35.194054,22.454757 25.150397,12.334825 15.057946,2.2641795 c -1.877219,9.21e-4 -3.754443,-0.0021 -5.6316567,0.002 z"
       id="path8" /><path
       style="fill:#74d7ee;fill-opacity:1;stroke-width:0.11263;stroke-linecap:round;stroke-linejoin:round;paint-order:stroke markers fill"
       d="m 5.3744653,2.6494185 c -0.07853,3.050037 -0.01999,6.102512 -0.02767,9.1535015 9.1236287,9.15806 18.2528247,18.311208 27.3726507,27.472584 0.454234,0.553838 1.139875,1.043715 1.417303,1.681086 -2.718988,3.058946 -5.701417,5.879147 -8.559026,8.809505 -6.738163,6.767444 -13.491076,13.520185 -20.2361987,20.280689 0,3.125989 0,6.251979 0,9.377969 C 18.232153,66.625449 31.090669,53.793853 43.96145,40.9746 36.822181,33.867214 29.666904,26.775776 22.553831,19.643066 16.815778,13.992687 11.172422,8.2343085 5.3771013,2.6408525 Z"
       id="path9" /><path
       style="fill:#ffafc8;fill-opacity:1;stroke-width:0.11263;stroke-linecap:round;stroke-linejoin:round;paint-order:stroke markers fill"
       d="m 5.3652403,12.386929 c -0.142339,3.110362 -0.05435,6.230078 -0.07995,9.344145 6.4479897,6.386525 12.9588117,12.713682 19.2802047,19.225296 -3.670333,3.864202 -7.538553,7.589963 -11.309704,11.375918 -2.61686,2.598835 -5.2378337,5.193525 -7.8580467,7.788979 -0.05143,3.176204 -0.139546,6.353582 -0.04964,9.529954 0.899688,-0.711138 1.553393,-1.723333 2.467597,-2.388309 4.6521487,-4.867072 9.5013197,-9.628313 14.2577947,-14.426009 3.661947,-3.646773 7.28442,-7.342159 10.968145,-10.961581 0.271846,-0.10059 0.323796,-0.485991 0.610809,-0.636282 0.388768,-0.463445 -0.494423,-0.770737 -0.666339,-1.133349 -9.0813,-9.236425 -18.202558,-18.434854 -27.4161707,-27.53932 -0.06976,-0.04981 -0.128929,-0.142148 -0.2047,-0.179442 z"
       id="path10" /><path
       style="fill:#ffffff;fill-opacity:1;stroke:none;stroke-width:0.118111px;stroke-linecap:butt;stroke-linejoin:miter;stroke-opacity:1"
       d="M 5.2852933,21.731074 5.3977473,60.121265 24.565498,40.956371 Z"
       id="path11" /></g></svg>
