<?xml version="1.0" encoding="UTF-8" standalone="no"?>
<!-- Created with Inkscape (http://www.inkscape.org/) -->

<svg
   width="48"
   height="48"
   viewBox="0 0 12.7 12.7"
   version="1.1"
   id="svg1"
   xml:space="preserve"
   inkscape:version="1.3 (0e150ed6c4, 2023-07-21)"
   sodipodi:docname="link_icon_light.svg"
   xmlns:inkscape="http://www.inkscape.org/namespaces/inkscape"
   xmlns:sodipodi="http://sodipodi.sourceforge.net/DTD/sodipodi-0.dtd"
   xmlns:xlink="http://www.w3.org/1999/xlink"
   xmlns="http://www.w3.org/2000/svg"
   xmlns:svg="http://www.w3.org/2000/svg"><sodipodi:namedview
     id="namedview1"
     pagecolor="#ffffff"
     bordercolor="#666666"
     borderopacity="1.0"
     inkscape:showpageshadow="2"
     inkscape:pageopacity="0.0"
     inkscape:pagecheckerboard="0"
     inkscape:deskcolor="#d1d1d1"
     inkscape:document-units="px"
     inkscape:zoom="11.313709"
     inkscape:cx="41.807688"
     inkscape:cy="26.295533"
     inkscape:window-width="1920"
     inkscape:window-height="1057"
     inkscape:window-x="2552"
     inkscape:window-y="-8"
     inkscape:window-maximized="1"
     inkscape:current-layer="layer1" /><defs
     id="defs1"><linearGradient
       id="linearGradient54"
       inkscape:collect="always"><stop
         style="stop-color:#99a4ff;stop-opacity:1;"
         offset="0"
         id="stop53" /><stop
         style="stop-color:#75aaff;stop-opacity:1;"
         offset="1"
         id="stop54" /></linearGradient><linearGradient
       inkscape:collect="always"
       xlink:href="#linearGradient54"
       id="linearGradient10"
       x1="0.44338408"
       y1="8.9539738"
       x2="12.190999"
       y2="3.3103869"
       gradientUnits="userSpaceOnUse" /><linearGradient
       inkscape:collect="always"
       xlink:href="#linearGradient54"
       id="linearGradient24"
       gradientUnits="userSpaceOnUse"
       x1="0.44338408"
       y1="8.9539738"
       x2="12.190999"
       y2="3.3103869" /><linearGradient
       inkscape:collect="always"
       xlink:href="#linearGradient54"
       id="linearGradient41"
       gradientUnits="userSpaceOnUse"
       x1="6.0087948"
       y1="6.6531663"
       x2="11.534953"
       y2="-5.1501427" /></defs><g
     inkscape:label="Layer 1"
     inkscape:groupmode="layer"
     id="layer1"><rect
       style="fill:url(#linearGradient41);fill-opacity:1;stroke:none;stroke-width:2.25655;stroke-linecap:round;stroke-linejoin:round;stroke-dasharray:none;stroke-opacity:1;paint-order:stroke markers fill"
       id="rect2"
       width="2.0329466"
       height="6.746356"
       x="7.9649711"
       y="-2.3956218"
       rx="3.6267209"
       ry="0.96469629"
       transform="rotate(39.251847)" /><path
       d="m 2.9409058,4.7831706 c -0.013325,7.5e-5 -0.026461,2.912e-4 -0.039791,0.00103 -0.02666,0.00148 -0.053389,0.00426 -0.079582,0.00827 -0.026193,0.00401 -0.051983,0.0095 -0.077515,0.01602 -0.025532,0.00652 -0.050773,0.014227 -0.075448,0.023254 -0.024675,0.00903 -0.048723,0.018969 -0.072347,0.030489 -0.023624,0.011521 -0.046868,0.024238 -0.069246,0.038241 -0.022378,0.014002 -0.044175,0.029519 -0.065112,0.045992 -0.020937,0.016473 -0.04116,0.034293 -0.060461,0.053227 -0.019302,0.018933 -0.037305,0.039079 -0.054777,0.060461 l -0.9983887,1.221114 c -0.017472,0.021383 -0.033352,0.043458 -0.048059,0.066146 -0.00469,0.00724 -0.00851,0.014863 -0.012919,0.022221 -0.1052924,0.1322839 -0.227776,0.2849221 -0.2842203,0.359668 -0.0462896,0.068476 -0.0903446,0.1385919 -0.13125819,0.2103231 -0.0409136,0.071731 -0.0787703,0.1450641 -0.11420491,0.2196248 -0.0354346,0.074561 -0.0683327,0.1504115 -0.0981852,0.2273763 -0.0298526,0.076965 -0.0569645,0.1546341 -0.081132,0.2335775 -0.0241675,0.078943 -0.0451826,0.1587654 -0.063562,0.2392619 -0.0183794,0.080497 -0.0340205,0.1617719 -0.0465088,0.243396 -0.0124883,0.081624 -0.0219279,0.1636535 -0.028422,0.2459798 -0.006494,0.082326 -0.009938,0.1649272 -0.0103353,0.2475301 -5.9645e-4,0.05974 2.0121e-4,0.1197298 0.002584,0.1793172 0.002383,0.059587 0.006073,0.118953 0.0113688,0.1782837 0.005296,0.059331 0.0120115,0.1182802 0.0201538,0.1772502 0.008142,0.05897 0.0180158,0.1177113 0.0289388,0.1762166 0.010923,0.058505 0.0230528,0.1167297 0.0366903,0.1746664 0.0136375,0.057937 0.0286726,0.115852 0.0449585,0.173116 0.0162859,0.057264 0.0338418,0.1140449 0.05271,0.1705322 0.0188681,0.056487 0.0390772,0.1128585 0.0604614,0.1684652 0.0213842,0.055607 0.0438619,0.110742 0.0676961,0.165365 0.0238342,0.05462 0.0492295,0.10873 0.0754476,0.162264 0.026218,0.05353 0.0536298,0.106305 0.0821655,0.158646 0.0285357,0.05234 0.0580962,0.103985 0.0888835,0.15503 0.030787,0.05104 0.062629,0.101251 0.095601,0.150895 0.032973,0.04964 0.06671,0.09862 0.1018025,0.146761 0.035092,0.04814 0.071375,0.09558 0.1085205,0.14211 0.037145,0.04653 0.07559,0.09212 0.1147217,0.136943 0.049564,0.05667 0.1002572,0.11262 0.1524455,0.166914 0.052188,0.0543 0.1057963,0.107145 0.1607137,0.158647 0.054917,0.0515 0.1112304,0.101566 0.1689819,0.149862 0.057752,0.04829 0.1170761,0.09485 0.177767,0.139526 0.044682,0.03435 0.089835,0.06776 0.135909,0.100252 0.046074,0.03249 0.092664,0.06398 0.1400431,0.09457 0.047379,0.03059 0.095581,0.06024 0.1441773,0.08888 0.048596,0.02864 0.097551,0.05655 0.1472778,0.0832 0.049726,0.02665 0.1001258,0.05187 0.1508952,0.07648 0.050769,0.02461 0.1022706,0.04827 0.1539957,0.0708 0.051725,0.02253 0.1039859,0.04419 0.1565796,0.06459 0.052594,0.02041 0.1052716,0.03964 0.1586467,0.05788 0.053375,0.01824 0.1071613,0.03514 0.1612304,0.05116 0.054069,0.01602 0.1086215,0.0312 0.1632976,0.04496 0.054676,0.01376 0.109652,0.02626 0.1648478,0.03772 0.055196,0.01146 0.1102531,0.0219 0.1658813,0.03101 0.055628,0.0091 0.1114581,0.01705 0.1674317,0.02377 0.055974,0.0067 0.1122335,0.01226 0.1684651,0.01654 0.056232,0.0043 0.1125795,0.007 0.168982,0.0088 0.056402,0.0018 0.1130126,0.0028 0.1694987,0.0021 0.090207,-7.75e-4 0.1802944,-0.0049 0.2702677,-0.0124 0.089973,-0.0075 0.1800411,-0.01836 0.2692342,-0.03256 0.089193,-0.0142 0.1777506,-0.03187 0.2656169,-0.05271 0.087866,-0.02085 0.174973,-0.0449 0.260966,-0.07235 0.085993,-0.02745 0.170675,-0.0585 0.254248,-0.0925 0.083573,-0.034 0.16589,-0.0711 0.2464966,-0.111621 0.080607,-0.04052 0.1595844,-0.08427 0.2366781,-0.131258 0.038547,-0.02349 0.076639,-0.04776 0.1142049,-0.07286 0.037566,-0.0251 0.074587,-0.05133 0.1111043,-0.07803 0.040163,-0.02981 0.080169,-0.06025 0.1193726,-0.09147 0.039204,-0.03122 0.077399,-0.06326 0.1152384,-0.09612 0.03784,-0.03286 0.075034,-0.06655 0.1111043,-0.101286 0.03607,-0.03473 0.071008,-0.07013 0.1049032,-0.10697 0.059725,-0.07013 0.1839452,-0.220385 0.2919718,-0.350366 0.013338,-0.01394 0.026873,-0.02771 0.039274,-0.04289 l 0.4066935,-0.49816 c -0.08087,0.09999 -0.1739217,0.213365 -0.2671671,0.326595 0.1864904,-0.226458 0.3714651,-0.454315 0.4619873,-0.572058 -0.045261,0.05887 -0.1139502,0.145474 -0.1948202,0.245463 l 0.5911784,-0.72347 c 0.017472,-0.021383 0.033869,-0.043458 0.048576,-0.066146 0.014707,-0.022688 0.027821,-0.045963 0.039791,-0.069763 0.01197,-0.023801 0.022778,-0.048144 0.032039,-0.072864 0.00926,-0.02472 0.01719,-0.050001 0.023771,-0.075448 0.00658,-0.025446 0.011574,-0.051018 0.015503,-0.076998 0.00393,-0.02598 0.00645,-0.052229 0.00775,-0.078548 0.0013,-0.02632 0.00129,-0.052598 0,-0.079065 -0.00129,-0.026467 -0.00389,-0.05316 -0.00775,-0.079582 -0.00386,-0.026421 -0.00859,-0.052882 -0.014986,-0.079065 -0.0064,-0.026183 -0.014345,-0.05228 -0.023254,-0.078031 C 8.5202856,9.2315651 8.5100987,9.206478 8.4987061,9.1813517 8.4873134,9.1562254 8.4748298,9.1312463 8.4609823,9.1069377 8.4471347,9.082629 8.4317813,9.0589221 8.415507,9.0356242 8.3992327,9.0123263 8.3819866,8.9895055 8.3633138,8.9674113 8.344641,8.945317 8.3249291,8.9240301 8.3038859,8.9033325 8.2828427,8.882635 8.2606087,8.8624957 8.2372233,8.8433879 8.213838,8.82428 8.1898694,8.806657 8.1653931,8.7901611 c -0.024476,-0.016496 -0.049558,-0.032097 -0.074931,-0.045992 -0.025372,-0.013895 -0.05144,-0.026419 -0.077515,-0.037724 -0.026074,-0.011304 -0.051967,-0.021247 -0.078548,-0.029972 -0.026581,-0.00872 -0.053722,-0.016065 -0.080615,-0.022221 -0.026893,-0.00616 -0.053605,-0.010871 -0.080615,-0.014469 -0.02701,-0.0036 -0.054199,-0.00618 -0.081132,-0.00723 -0.026933,-0.00105 -0.053955,-9.678e-4 -0.080615,5.168e-4 -0.02666,0.00148 -0.052872,0.00426 -0.079065,0.00827 -0.026193,0.00401 -0.051983,0.0095 -0.077515,0.01602 -0.025532,0.00652 -0.050772,0.014227 -0.075448,0.023254 -0.024675,0.00903 -0.04924,0.019485 -0.072864,0.031006 -0.023624,0.01152 -0.046352,0.024238 -0.06873,0.038241 -0.022378,0.014002 -0.044175,0.029002 -0.065112,0.045475 -0.020937,0.016473 -0.04116,0.034293 -0.060461,0.053227 -0.019302,0.018934 -0.037822,0.039079 -0.055294,0.060461 L 6.0590617,10.130648 c -0.00861,0.01054 -0.015831,0.02168 -0.023771,0.03256 -0.027195,0.03295 -0.057337,0.07037 -0.082682,0.100769 -0.078815,0.09453 -0.1469891,0.174379 -0.1937866,0.224792 -0.037333,0.03502 -0.076299,0.0677 -0.1167887,0.0987 -0.04049,0.031 -0.082864,0.05988 -0.1260905,0.08682 -0.043227,0.02694 -0.087263,0.05208 -0.1328084,0.07493 -0.045546,0.02285 -0.092598,0.0438 -0.1400432,0.06253 -0.047445,0.01873 -0.095252,0.03503 -0.1441772,0.04961 -0.048925,0.01458 -0.098842,0.02733 -0.1488282,0.03772 -0.049986,0.0104 -0.100267,0.01862 -0.1508951,0.0248 -0.050628,0.0062 -0.1015944,0.01047 -0.1524455,0.0124 -0.040797,0.0019 -0.08127,0.0026 -0.1219564,0.0021 -0.040686,-4.9e-4 -0.081465,-0.0023 -0.1219564,-0.0052 -0.040491,-0.0029 -0.080711,-0.0067 -0.1209228,-0.01189 -0.040212,-0.0051 -0.080558,-0.01125 -0.1204061,-0.0186 -0.039848,-0.0074 -0.079455,-0.01583 -0.1188558,-0.02532 -0.0394,-0.0095 -0.078437,-0.02048 -0.1173055,-0.03204 -0.038869,-0.01156 -0.077503,-0.02365 -0.1157552,-0.03721 -0.038253,-0.01356 -0.076136,-0.02844 -0.1136882,-0.04392 -0.037552,-0.01548 -0.074853,-0.03176 -0.1116211,-0.04909 -0.036768,-0.01734 -0.073138,-0.03566 -0.1090372,-0.05478 -0.035899,-0.01912 -0.07099,-0.03912 -0.1059367,-0.05994 -0.034947,-0.02083 -0.069443,-0.04265 -0.1033529,-0.06511 -0.03391,-0.02246 -0.067463,-0.04574 -0.1002523,-0.06976 -0.032789,-0.02402 -0.065051,-0.04838 -0.096635,-0.0739 -0.031584,-0.02551 -0.062723,-0.05213 -0.093018,-0.07906 -0.030294,-0.02693 -0.059963,-0.05441 -0.088883,-0.08268 C 2.8334026,10.177908 2.782163,10.123424 2.7331665,10.066569 2.68417,10.009714 2.6378313,9.950512 2.5941569,9.8893188 2.5504825,9.8281257 2.5094772,9.7646407 2.4716838,9.6996663 2.4338903,9.634692 2.3991677,9.5683936 2.3678141,9.5001953 2.3364606,9.4319971 2.308453,9.3622873 2.2840983,9.2914225 2.2719209,9.2559902 2.2608315,9.21993 2.2505086,9.1839355 2.2401858,9.1479411 2.2304851,9.111902 2.2220866,9.075415 2.2136881,9.0389281 2.20627,9.0022539 2.1998657,8.9653442 c -0.0064,-0.03691 -0.01168,-0.073842 -0.01602,-0.1111043 -0.00434,-0.037263 -0.00761,-0.075108 -0.00982,-0.1126546 -0.00221,-0.037546 -0.0031,-0.074895 -0.0031,-0.1126546 -1.28e-5,-0.040338 8.589e-4,-0.081097 0.00362,-0.1214397 0.00276,-0.040343 0.00736,-0.080307 0.012919,-0.120406 0.00556,-0.040099 0.012291,-0.080282 0.020671,-0.1198894 0.00838,-0.039608 0.018225,-0.078955 0.029456,-0.1178222 0.01123,-0.038868 0.023617,-0.077359 0.037724,-0.1152385 0.014107,-0.03788 0.030016,-0.074978 0.047026,-0.1116211 0.017009,-0.036644 0.035355,-0.072328 0.055294,-0.1074869 0.019938,-0.035159 0.041185,-0.069926 0.064079,-0.1033529 0.038765,-0.052321 0.1018137,-0.1317427 0.1767334,-0.2247925 0.07492,-0.09305 0.1616987,-0.1997578 0.2485637,-0.3064412 0.033811,-0.041525 0.063562,-0.078633 0.096635,-0.1193726 L 3.696932,6.1639648 c 0.017472,-0.021383 0.033869,-0.043458 0.048576,-0.066146 0.014707,-0.022688 0.027821,-0.04648 0.039791,-0.07028 0.01197,-0.023801 0.022778,-0.047627 0.032039,-0.072347 0.00926,-0.02472 0.01719,-0.050002 0.023771,-0.075448 0.00658,-0.025446 0.011574,-0.051535 0.015503,-0.077515 0.00393,-0.025979 0.00696,-0.051712 0.00827,-0.078031 0.0013,-0.02632 0.00129,-0.053115 0,-0.079582 -0.00129,-0.026467 -0.00389,-0.052644 -0.00775,-0.079065 -0.00386,-0.026421 -0.0091,-0.052882 -0.015503,-0.079065 -0.0064,-0.026183 -0.014345,-0.052281 -0.023254,-0.078031 -0.00891,-0.025751 -0.019096,-0.051355 -0.030489,-0.076481 -0.011393,-0.025126 -0.023876,-0.049589 -0.037724,-0.073897 -0.013848,-0.024309 -0.028684,-0.048533 -0.044958,-0.07183 -0.016274,-0.023298 -0.034037,-0.045602 -0.05271,-0.067696 -0.018673,-0.022094 -0.038385,-0.043898 -0.059428,-0.064596 -0.021043,-0.020697 -0.043277,-0.04032 -0.066663,-0.059428 -0.023385,-0.019108 -0.047354,-0.037248 -0.07183,-0.053744 -0.024476,-0.016496 -0.049558,-0.031581 -0.074931,-0.045475 -0.025372,-0.013895 -0.050924,-0.026419 -0.076998,-0.037724 -0.026074,-0.011304 -0.052484,-0.021247 -0.079065,-0.029972 -0.026581,-0.00872 -0.053722,-0.016065 -0.080615,-0.022221 -0.026893,-0.00616 -0.053605,-0.011388 -0.080615,-0.014986 -0.02701,-0.0036 -0.0542,-0.00567 -0.081132,-0.00672 -0.013466,-5.257e-4 -0.026982,-5.918e-4 -0.040308,-5.167e-4 z"
       style="fill:url(#linearGradient24);stroke-width:1.43336;stroke-linecap:round;stroke-linejoin:round;paint-order:stroke markers fill;fill-opacity:1"
       id="path9" /><path
       d="m 8.1669434,0.02067057 c -0.080264,-7.0518e-4 -0.1606362,0.001107 -0.2408122,0.0056844 -0.080176,0.0045774 -0.160583,0.0118548 -0.2402954,0.0217041 -0.079712,0.0098493 -0.1588386,0.02261326 -0.2377116,0.0377238 -0.078873,0.01511054 -0.15747,0.03286561 -0.2351278,0.05322672 -0.077658,0.0203611 -0.1544102,0.0431286 -0.2304769,0.0687297 -0.076067,0.025601 -0.1512094,0.0539191 -0.2253092,0.0847493 -0.0741,0.0308303 -0.1473509,0.0642034 -0.2191081,0.10025228 -0.071757,0.0360488 -0.1423178,0.0744985 -0.2113566,0.1157552 -0.040596,0.0240857 -0.080625,0.0494432 -0.1204061,0.0754476 -0.039781,0.0260044 -0.079022,0.0527789 -0.1178222,0.0806152 -0.0388,0.0278363 -0.077069,0.0567179 -0.1147217,0.0862996 -0.037653,0.0295817 -0.074765,0.0602269 -0.1111044,0.0914673 -0.036339,0.0312404 -0.072111,0.0633057 -0.1069702,0.0961182 -0.034859,0.0328124 -0.06859,0.0659545 -0.1018025,0.10025229 -0.033212,0.034298 -0.065752,0.069723 -0.097152,0.1054199 -0.0314,0.035697 -0.062047,0.072029 -0.091467,0.1090373 C 5.4368153,1.287986 5.3572659,1.3841128 5.304069,1.4484904 5.2472449,1.5172576 5.2018488,1.5725544 5.1319865,1.6572632 L 5.0260498,1.786971 C 4.8840859,1.9599105 4.7403892,2.13601 4.6818848,2.2138184 4.7097428,2.1767684 4.7575882,2.1165385 4.8146932,2.04587 l -0.523999,0.6413045 c -0.017472,0.021383 -0.033352,0.043458 -0.048059,0.066146 -0.014707,0.022688 -0.028338,0.045963 -0.040308,0.069763 -0.01197,0.023801 -0.022261,0.048144 -0.031523,0.072864 -0.00926,0.02472 -0.01719,0.050002 -0.023771,0.075448 -0.00658,0.025446 -0.012091,0.051019 -0.01602,0.076998 -0.00393,0.025979 -0.00645,0.052229 -0.00775,0.078548 -0.0013,0.02632 -0.00129,0.052598 0,0.079065 0.00129,0.026467 0.00389,0.05316 0.00775,0.079582 0.00386,0.026421 0.0091,0.052366 0.015503,0.078548 0.0064,0.026183 0.013828,0.052281 0.022738,0.078032 0.00891,0.025751 0.019096,0.051355 0.030489,0.076481 0.011393,0.025126 0.023876,0.050105 0.037724,0.074414 0.013847,0.024309 0.029201,0.048016 0.045475,0.071314 0.016274,0.023298 0.03352,0.046119 0.052193,0.068213 0.018673,0.022094 0.038385,0.043381 0.059428,0.064079 0.021043,0.020698 0.043277,0.040837 0.066663,0.059945 0.023385,0.019108 0.047354,0.036731 0.07183,0.053227 0.024476,0.016496 0.049558,0.031581 0.074931,0.045475 0.025372,0.013895 0.051441,0.02642 0.077515,0.037724 0.026074,0.011304 0.052484,0.021764 0.079065,0.030489 0.026581,0.00872 0.053206,0.016065 0.080098,0.022221 0.026893,0.00616 0.054122,0.010871 0.081132,0.014469 0.02701,0.0036 0.053683,0.00618 0.080615,0.00723 0.026933,0.00105 0.053955,4.51e-4 0.080615,-0.00103 0.02666,-0.00148 0.052872,-0.00426 0.079065,-0.00827 0.026193,-0.00401 0.0525,-0.00898 0.078031,-0.015503 0.025532,-0.00652 0.050256,-0.014227 0.074931,-0.023254 0.024675,-0.00903 0.04924,-0.019485 0.072864,-0.031006 0.023624,-0.01152 0.046352,-0.024238 0.06873,-0.038241 0.022378,-0.014002 0.044175,-0.029519 0.065112,-0.045992 0.020937,-0.016473 0.04116,-0.033777 0.060461,-0.05271 0.019302,-0.018934 0.037822,-0.039079 0.055294,-0.060461 L 6.639388,2.5693522 c 0.015271,-0.01869 0.029217,-0.038181 0.042375,-0.057878 0.024821,-0.02973 0.052623,-0.064002 0.075964,-0.091467 0.040058,-0.047137 0.077522,-0.090171 0.1111043,-0.1276408 0.033582,-0.037469 0.063421,-0.069521 0.08785,-0.093534 0.022909,-0.021353 0.046704,-0.04175 0.070797,-0.061495 0.024093,-0.019745 0.048713,-0.038696 0.073897,-0.056844 0.050369,-0.036296 0.1024017,-0.069242 0.1565796,-0.099219 0.054178,-0.029977 0.1101858,-0.056865 0.1674317,-0.080615 0.057246,-0.023751 0.1161274,-0.044396 0.1756998,-0.062012 0.059572,-0.017616 0.11971,-0.032353 0.1808675,-0.043925 0.061158,-0.011572 0.1230004,-0.020218 0.1850017,-0.025838 0.062001,-0.00562 0.1244483,-0.00799 0.1865519,-0.00775 0.062104,2.394e-4 0.1240539,0.00329 0.1855184,0.0093 0.049883,0.00461 0.099431,0.01112 0.1488281,0.01912 0.049397,0.008 0.098533,0.017675 0.1472778,0.028939 0.048744,0.011264 0.097287,0.023843 0.1452108,0.03824 0.047924,0.014397 0.095173,0.030142 0.1421102,0.047542 0.046937,0.0174 0.093744,0.036571 0.1395264,0.056844 0.045782,0.020273 0.090933,0.042097 0.1353922,0.065112 0.04446,0.023015 0.087771,0.047237 0.1307414,0.072864 0.04297,0.025626 0.085294,0.052508 0.1266073,0.080615 0.045939,0.035011 0.092323,0.070217 0.137976,0.1059367 0.045653,0.035719 0.09087,0.07191 0.1348755,0.109554 0.044006,0.037644 0.086644,0.076523 0.1276408,0.1173055 0.040997,0.040783 0.080162,0.083537 0.1167887,0.1286744 0.0453,0.052471 0.088469,0.1068632 0.1291909,0.1632975 0.04072,0.056434 0.07903,0.1147802 0.114722,0.1746663 0.03569,0.059886 0.0685,0.1216585 0.0987,0.1844849 0.03021,0.062826 0.0579,0.1269811 0.08217,0.1922363 0.02427,0.065255 0.04517,0.1312649 0.06305,0.1984375 0.01787,0.067173 0.03238,0.1355435 0.04341,0.2041219 0.01102,0.068578 0.0185,0.137233 0.02222,0.2067057 0.0019,0.034736 0.0031,0.070039 0.0031,0.1049032 -5e-5,0.034864 -0.0011,0.069459 -0.0031,0.1043864 -0.0024,0.042042 -0.0064,0.084244 -0.01189,0.1260905 -0.0055,0.041847 -0.01265,0.083179 -0.02119,0.1245402 -0.0085,0.041361 -0.01833,0.082406 -0.02997,0.1229899 -0.01164,0.040584 -0.02503,0.08089 -0.03979,0.1204061 -0.01476,0.039517 -0.0312,0.078631 -0.04909,0.1167887 -0.01789,0.038158 -0.03735,0.075629 -0.05839,0.1121379 -0.02104,0.036509 -0.04349,0.071884 -0.0677,0.1064534 -0.02421,0.03457 -0.05013,0.067913 -0.07752,0.1002523 -0.0503,0.064901 -0.1796722,0.2227364 -0.3012737,0.3710368 -0.036448,0.044451 -0.052847,0.065205 -0.090434,0.1111043 L 9.0015177,6.5360352 c -0.017472,0.021383 -0.033869,0.043458 -0.048576,0.066146 -0.014707,0.022688 -0.027821,0.045963 -0.039791,0.069763 -0.01197,0.0238 -0.022778,0.048144 -0.032039,0.072864 -0.00926,0.02472 -0.01719,0.050002 -0.023771,0.075448 -0.00658,0.025446 -0.011574,0.051018 -0.015503,0.076998 -0.00393,0.02598 -0.00645,0.052228 -0.00775,0.078548 -0.0013,0.02632 -0.00129,0.052598 0,0.079065 0.00129,0.026467 0.00389,0.05316 0.00775,0.079582 0.00386,0.026421 0.00859,0.052882 0.014986,0.079065 0.0064,0.026183 0.014345,0.05228 0.023254,0.078031 0.00891,0.025751 0.019096,0.050838 0.030489,0.075964 0.011393,0.025126 0.023876,0.050105 0.037724,0.074414 0.013848,0.024309 0.028684,0.048016 0.044958,0.071313 0.016274,0.023298 0.034037,0.046119 0.05271,0.068213 0.018673,0.022094 0.038385,0.043381 0.059428,0.064079 0.021043,0.020697 0.043277,0.040837 0.066663,0.059945 0.023385,0.019108 0.047354,0.036731 0.07183,0.053227 0.024476,0.016496 0.049558,0.032097 0.074931,0.045992 0.025373,0.013895 0.050924,0.026419 0.076998,0.037724 0.026074,0.011304 0.052484,0.021247 0.079065,0.029972 0.026581,0.00872 0.053722,0.016065 0.080615,0.022221 0.026893,0.00616 0.053605,0.010871 0.080615,0.014469 0.02701,0.0036 0.054199,0.00618 0.081132,0.00723 0.026933,0.00105 0.053955,9.677e-4 0.080615,-5.168e-4 0.02666,-0.00148 0.052872,-0.00426 0.079065,-0.00827 0.026193,-0.00401 0.051983,-0.0095 0.077515,-0.01602 0.025532,-0.00652 0.050773,-0.014227 0.075448,-0.023254 0.02468,-0.00903 0.04872,-0.019485 0.07235,-0.031006 0.02362,-0.01152 0.04687,-0.024238 0.06925,-0.03824 0.02238,-0.014002 0.04418,-0.029002 0.06511,-0.045475 0.02094,-0.016473 0.04116,-0.034293 0.06046,-0.053227 0.0193,-0.018934 0.03782,-0.039078 0.05529,-0.060461 l 0.997872,-1.2216308 c 0.01747,-0.021383 0.03335,-0.043458 0.04806,-0.066146 l 5.16e-4,-5.168e-4 c 0.0745,-0.092371 0.173448,-0.214424 0.213424,-0.2645833 0.04428,-0.059122 0.08658,-0.1198723 0.126607,-0.1819011 0.04003,-0.062029 0.078,-0.1250377 0.113689,-0.1896525 0.03569,-0.064615 0.06899,-0.130524 0.100252,-0.197404 0.03126,-0.06688 0.06006,-0.1347809 0.08682,-0.2036051 0.02675,-0.068824 0.05123,-0.1388419 0.07338,-0.2092896 0.02215,-0.070448 0.04247,-0.1416734 0.05994,-0.2134236 0.01747,-0.07175 0.03225,-0.1437924 0.04496,-0.2165243 0.01271,-0.072732 0.02315,-0.1457153 0.03101,-0.219108 0.0061,-0.054684 0.01099,-0.1095174 0.01447,-0.1643311 0.0035,-0.054814 0.0053,-0.1099953 0.0062,-0.1648478 9.11e-4,-0.054853 5.8e-4,-0.1095305 -0.001,-0.1643311 -0.0016,-0.0548 -0.0042,-0.1096733 -0.0083,-0.164331 -0.0041,-0.054658 -0.0095,-0.1088736 -0.01602,-0.1632976 -0.0065,-0.054424 -0.01436,-0.1091982 -0.02325,-0.1632975 -0.0089,-0.054099 -0.01875,-0.1075467 -0.02997,-0.1612304 -0.01122,-0.053684 -0.02371,-0.1075364 -0.03721,-0.1607138 -0.0135,-0.053177 -0.02819,-0.1060665 -0.04392,-0.1586466 -0.01573,-0.05258 -0.03221,-0.1046876 -0.05013,-0.1565796 -0.01791,-0.051892 -0.03732,-0.1033996 -0.05736,-0.1545125 -0.02005,-0.051113 -0.04091,-0.1016857 -0.06305,-0.1519287 -0.02213,-0.050243 -0.0456,-0.1000627 -0.06976,-0.1493449 -0.02417,-0.049282 -0.0493,-0.098014 -0.07545,-0.1462443 -0.02615,-0.04823 -0.05304,-0.096056 -0.08113,-0.1431437 -0.02809,-0.047088 -0.05735,-0.093672 -0.08733,-0.1395264 -0.03041,-0.046824 -0.06178,-0.092941 -0.09405,-0.1384928 -0.03227,-0.045552 -0.06516,-0.090651 -0.09922,-0.1348755 -0.03406,-0.044224 -0.06912,-0.087384 -0.104903,-0.1302246 -0.03579,-0.042841 -0.07263,-0.085206 -0.110071,-0.1266073 -0.03745,-0.041401 -0.07568,-0.08205 -0.114722,-0.1219564 -0.03904,-0.039906 -0.07881,-0.07895 -0.119372,-0.1173055 -0.04056,-0.038355 -0.082,-0.075906 -0.124024,-0.1126546 -0.04202,-0.036749 -0.08474,-0.0729174 -0.128157,-0.10800375 -0.04499,-0.0364681 -0.09048,-0.0718097 -0.136943,-0.10645345 -0.04646,-0.0346438 -0.09374,-0.0685262 -0.141593,-0.10128581 -0.04785,-0.0327596 -0.09606,-0.0642689 -0.145211,-0.0950846 -0.04915,-0.0308157 -0.09897,-0.0611049 -0.149345,-0.089917 C 10.107667,0.5380784 10.056571,0.51044005 10.005074,0.48369141 9.9535767,0.45694276 9.9015495,0.43131899 9.8490112,0.40669352 9.796473,0.38206806 9.7433398,0.35833934 9.6898478,0.33589681 9.6363558,0.31345428 9.5824591,0.29253462 9.5281006,0.2723348 9.473742,0.25213497 9.4189075,0.23287132 9.3637695,0.21497396 9.3086316,0.1970766 9.2532016,0.18038296 9.1973714,0.16484782 9.1415413,0.14931268 9.0853414,0.13506953 9.0289063,0.12195638 8.9724711,0.10884323 8.9158438,0.09693105 8.8588908,0.08629964 8.8019377,0.07566824 8.7447088,0.0659675 8.687325,0.0578776 8.6299413,0.04978771 8.572453,0.04321242 8.5147257,0.0377238 8.4569985,0.03223517 8.3990765,0.02814905 8.3410929,0.02532145 8.2831094,0.02249386 8.2250961,0.02077737 8.1669434,0.02067057 Z"
       style="fill:url(#linearGradient10);stroke-width:0.0392437;stroke-linecap:round;stroke-linejoin:round;paint-order:stroke markers fill;fill-opacity:1"
       id="path8" /></g></svg>
