<?xml version="1.0" encoding="UTF-8" standalone="no"?>
<!-- Created with Inkscape (http://www.inkscape.org/) -->

<svg
   width="48"
   height="48"
   viewBox="0 0 12.7 12.7"
   version="1.1"
   id="svg1"
   xml:space="preserve"
   inkscape:version="1.3 (0e150ed6c4, 2023-07-21)"
   sodipodi:docname="link_icon_dark.svg"
   xmlns:inkscape="http://www.inkscape.org/namespaces/inkscape"
   xmlns:sodipodi="http://sodipodi.sourceforge.net/DTD/sodipodi-0.dtd"
   xmlns:xlink="http://www.w3.org/1999/xlink"
   xmlns="http://www.w3.org/2000/svg"
   xmlns:svg="http://www.w3.org/2000/svg"><sodipodi:namedview
     id="namedview1"
     pagecolor="#ffffff"
     bordercolor="#666666"
     borderopacity="1.0"
     inkscape:showpageshadow="2"
     inkscape:pageopacity="0.0"
     inkscape:pagecheckerboard="0"
     inkscape:deskcolor="#d1d1d1"
     inkscape:document-units="px"
     inkscape:zoom="16"
     inkscape:cx="26.3125"
     inkscape:cy="21.03125"
     inkscape:window-width="2560"
     inkscape:window-height="1417"
     inkscape:window-x="-8"
     inkscape:window-y="-8"
     inkscape:window-maximized="1"
     inkscape:current-layer="layer1" /><defs
     id="defs1"><linearGradient
       id="linearGradient51"
       inkscape:collect="always"><stop
         style="stop-color:#f985a5;stop-opacity:1;"
         offset="0"
         id="stop46" /><stop
         style="stop-color:#fcb385;stop-opacity:1;"
         offset="0.18847007"
         id="stop47" /><stop
         style="stop-color:#fde3ab;stop-opacity:1;"
         offset="0.39024389"
         id="stop48" /><stop
         style="stop-color:#93f88c;stop-opacity:1;"
         offset="0.60310423"
         id="stop49" /><stop
         style="stop-color:#75aaff;stop-opacity:1;"
         offset="0.80487806"
         id="stop50" /><stop
         style="stop-color:#99a4ff;stop-opacity:1;"
         offset="1"
         id="stop51" /></linearGradient><linearGradient
       id="linearGradient1"
       inkscape:collect="always"><stop
         style="stop-color:#f985a5;stop-opacity:1;"
         offset="0"
         id="stop1" /><stop
         style="stop-color:#fcb385;stop-opacity:1;"
         offset="0.18847007"
         id="stop3" /><stop
         style="stop-color:#fde3ab;stop-opacity:1;"
         offset="0.39024389"
         id="stop4" /><stop
         style="stop-color:#93f88c;stop-opacity:1;"
         offset="0.60310423"
         id="stop6" /><stop
         style="stop-color:#75aaff;stop-opacity:1;"
         offset="0.80487806"
         id="stop5" /><stop
         style="stop-color:#99a4ff;stop-opacity:1;"
         offset="1"
         id="stop2" /></linearGradient><linearGradient
       inkscape:collect="always"
       xlink:href="#linearGradient1"
       id="linearGradient14"
       gradientUnits="userSpaceOnUse"
       x1="6.0087948"
       y1="6.6531663"
       x2="11.534953"
       y2="-5.1501427"
       gradientTransform="translate(-8.6611012e-5,-4.2842663e-5)" /><linearGradient
       inkscape:collect="always"
       xlink:href="#linearGradient1"
       id="linearGradient15"
       gradientUnits="userSpaceOnUse"
       x1="0.44338408"
       y1="8.9539738"
       x2="12.190999"
       y2="3.3103869"
       gradientTransform="translate(-4.03e-5,-8.797e-5)" /><linearGradient
       inkscape:collect="always"
       xlink:href="#linearGradient51"
       id="linearGradient16"
       gradientUnits="userSpaceOnUse"
       x1="0.44338408"
       y1="8.9539738"
       x2="12.190999"
       y2="3.3103869"
       gradientTransform="translate(-4.03e-5,-8.797e-5)" /></defs><g
     inkscape:label="Layer 1"
     inkscape:groupmode="layer"
     id="layer1"><rect
       style="fill:url(#linearGradient14);fill-opacity:1;stroke:none;stroke-width:2.25655;stroke-linecap:round;stroke-linejoin:round;stroke-dasharray:none;stroke-opacity:1;paint-order:stroke markers fill"
       id="rect2-9"
       width="2.0329466"
       height="6.746356"
       x="7.9648838"
       y="-2.3956642"
       rx="3.6267209"
       ry="0.96469629"
       transform="rotate(39.251847)" /><path
       d="m 2.9408657,4.7830826 c -0.01333,7.5e-5 -0.02646,2.912e-4 -0.03979,0.00103 -0.02666,0.00148 -0.05339,0.00426 -0.07958,0.00827 -0.02619,0.00401 -0.05198,0.0095 -0.07752,0.01602 -0.02553,0.00652 -0.05077,0.014227 -0.07545,0.023254 -0.02468,0.00903 -0.04872,0.018969 -0.07235,0.030489 -0.02362,0.011521 -0.04687,0.024238 -0.06925,0.038241 -0.02238,0.014002 -0.04418,0.029519 -0.06511,0.045992 -0.02094,0.016473 -0.04116,0.034293 -0.06046,0.053227 -0.0193,0.018933 -0.03731,0.039079 -0.05478,0.060461 l -0.998389,1.221114 c -0.01747,0.021383 -0.03335,0.043458 -0.04806,0.066146 -0.0047,0.00724 -0.0085,0.014863 -0.01292,0.022221 -0.105292,0.1322839 -0.227776,0.2849221 -0.28422,0.359668 -0.04629,0.068476 -0.09035,0.1385919 -0.131258,0.2103231 -0.04091,0.071731 -0.07877,0.1450641 -0.114205,0.2196248 -0.03543,0.074561 -0.06833,0.1504115 -0.09818,0.2273763 -0.02985,0.076965 -0.05696,0.1546341 -0.08113,0.2335775 -0.02417,0.078943 -0.04518,0.1587654 -0.06356,0.2392619 -0.01838,0.080497 -0.03402,0.1617719 -0.04651,0.243396 -0.01249,0.081624 -0.02193,0.1636536 -0.02842,0.2459796 -0.0065,0.08233 -0.0099,0.164927 -0.01033,0.24753 -5.96e-4,0.05974 2.01e-4,0.11973 0.0026,0.179317 0.0024,0.05959 0.0061,0.118953 0.01137,0.178284 0.0053,0.05933 0.01201,0.11828 0.02015,0.17725 0.0081,0.05897 0.01802,0.117712 0.02894,0.176217 0.01092,0.05851 0.02305,0.11673 0.03669,0.174666 0.01364,0.05794 0.02867,0.115852 0.04496,0.173116 0.01629,0.05726 0.03384,0.114045 0.05271,0.170533 0.01887,0.05649 0.03908,0.112858 0.06046,0.168465 0.02138,0.05561 0.04386,0.1107422 0.0677,0.1653652 0.02383,0.05462 0.04923,0.10873 0.07545,0.162264 0.02622,0.05353 0.05363,0.106305 0.08216,0.158646 0.02854,0.05234 0.0581,0.103985 0.08888,0.15503 0.03079,0.05104 0.06263,0.101251 0.0956,0.150895 0.03297,0.04964 0.06671,0.09862 0.101802,0.146761 0.03509,0.04814 0.07138,0.09558 0.108521,0.14211 0.03714,0.04653 0.07559,0.09212 0.114722,0.136943 0.04956,0.05667 0.100257,0.11262 0.152445,0.166914 0.05219,0.0543 0.105796,0.107145 0.160714,0.158647 0.05492,0.0515 0.11123,0.101566 0.168982,0.149862 0.05775,0.04829 0.117076,0.09485 0.177767,0.139526 0.04468,0.03435 0.08983,0.06776 0.135909,0.100252 0.04607,0.03249 0.09266,0.06398 0.140043,0.09457 0.04738,0.03059 0.09558,0.06024 0.144177,0.08888 0.0486,0.02864 0.09755,0.05655 0.147278,0.0832 0.04973,0.02665 0.100126,0.05187 0.150895,0.07648 0.05077,0.02461 0.102271,0.04827 0.153996,0.0708 0.05172,0.02253 0.103986,0.04419 0.15658,0.06459 0.05259,0.02041 0.105271,0.03964 0.158646,0.05788 0.05338,0.01824 0.107162,0.03514 0.161231,0.05116 0.05407,0.01602 0.108621,0.0312 0.163297,0.04496 0.05468,0.01376 0.109652,0.02626 0.164848,0.03772 0.0552,0.01146 0.110253,0.0219 0.165882,0.03101 0.05563,0.0091 0.111458,0.01705 0.167431,0.02377 0.05597,0.0067 0.112234,0.01226 0.168465,0.01654 0.05623,0.0043 0.11258,0.007 0.168982,0.0088 0.0564,0.0018 0.113013,0.0028 0.169499,0.0021 0.09021,-7.75e-4 0.180294,-0.0049 0.270268,-0.0124 0.08997,-0.0075 0.180041,-0.01836 0.269234,-0.03256 0.08919,-0.0142 0.177751,-0.03187 0.265617,-0.05271 0.08787,-0.02085 0.174973,-0.0449 0.260966,-0.07235 0.08599,-0.02745 0.170675,-0.0585 0.254248,-0.0925 0.08357,-0.034 0.16589,-0.0711 0.246496,-0.111621 0.08061,-0.04052 0.159585,-0.08427 0.236678,-0.131258 0.03855,-0.02349 0.07664,-0.04776 0.114205,-0.07286 0.03757,-0.0251 0.07459,-0.05133 0.111105,-0.07803 0.04016,-0.02981 0.08017,-0.06025 0.119372,-0.09147 0.0392,-0.03122 0.0774,-0.06326 0.115239,-0.09612 0.03784,-0.03286 0.07503,-0.06655 0.111104,-0.101286 0.03607,-0.03473 0.07101,-0.07013 0.104903,-0.10697 0.05973,-0.07013 0.183945,-0.220385 0.291972,-0.350366 0.01334,-0.01394 0.02687,-0.02771 0.03927,-0.04289 l 0.406694,-0.49816 c -0.08087,0.09999 -0.173922,0.213365 -0.267168,0.326595 0.186491,-0.226458 0.371466,-0.454315 0.461988,-0.572058 -0.04526,0.05887 -0.11395,0.145474 -0.19482,0.245463 l 0.591178,-0.72347 c 0.01747,-0.02138 0.03387,-0.04346 0.04858,-0.06615 0.01471,-0.02269 0.02782,-0.04596 0.03979,-0.06976 0.01197,-0.0238 0.02278,-0.04814 0.03204,-0.07286 0.0093,-0.02472 0.01719,-0.05 0.02377,-0.07545 0.0066,-0.02545 0.01157,-0.05102 0.0155,-0.077 0.0039,-0.02598 0.0065,-0.05223 0.0077,-0.07855 0.0013,-0.02632 0.0013,-0.0526 0,-0.07906 -0.0013,-0.02647 -0.0039,-0.05316 -0.0077,-0.07958 -0.0039,-0.02642 -0.0086,-0.05288 -0.01499,-0.07906 -0.0064,-0.02618 -0.01434,-0.05228 -0.02325,-0.07803 -0.0089,-0.0258 -0.0191,-0.05089 -0.03049,-0.07601 -0.01139,-0.02513 -0.02388,-0.05011 -0.03772,-0.07441 -0.01385,-0.02431 -0.0292,-0.04802 -0.04548,-0.07131 -0.01627,-0.0233 -0.03352,-0.04612 -0.05219,-0.06821 -0.01867,-0.02209 -0.03838,-0.04338 -0.05943,-0.06408 -0.02104,-0.0207 -0.04328,-0.04084 -0.06666,-0.05994 -0.02339,-0.01911 -0.04735,-0.03673 -0.07183,-0.05323 -0.02448,-0.0165 -0.04956,-0.0321 -0.07493,-0.04599 -0.02537,-0.0139 -0.05144,-0.02642 -0.07752,-0.03772 -0.02607,-0.0113 -0.05197,-0.02125 -0.07855,-0.02997 -0.02658,-0.0087 -0.05372,-0.01606 -0.08061,-0.02222 -0.02689,-0.0062 -0.0536,-0.01087 -0.08061,-0.01447 -0.02701,-0.0036 -0.0542,-0.0062 -0.08113,-0.0072 -0.02693,-0.001 -0.05396,-9.67e-4 -0.08061,5.17e-4 -0.02666,0.0015 -0.05287,0.0043 -0.07906,0.0083 -0.02619,0.004 -0.05198,0.0095 -0.07752,0.01602 -0.02553,0.0065 -0.05077,0.01423 -0.07545,0.02325 -0.02468,0.009 -0.04924,0.01948 -0.07286,0.03101 -0.02362,0.01152 -0.04635,0.02424 -0.06873,0.03824 -0.02238,0.014 -0.04418,0.029 -0.06511,0.04547 -0.02094,0.01647 -0.04116,0.03429 -0.06046,0.05323 -0.0193,0.01893 -0.03782,0.03908 -0.05529,0.06046 l -0.997872,1.2216242 c -0.0086,0.01054 -0.01583,0.02168 -0.02377,0.03256 -0.0272,0.03295 -0.05734,0.07037 -0.08268,0.100769 -0.07882,0.09453 -0.146989,0.174379 -0.193786,0.224792 -0.03733,0.03502 -0.0763,0.0677 -0.116789,0.0987 -0.04049,0.031 -0.08286,0.05988 -0.126091,0.08682 -0.04323,0.02694 -0.08726,0.05208 -0.132808,0.07493 -0.04555,0.02285 -0.0926,0.0438 -0.140043,0.06253 -0.04744,0.01873 -0.09525,0.03503 -0.144177,0.04961 -0.04892,0.01458 -0.09884,0.02733 -0.148829,0.03772 -0.04999,0.0104 -0.100267,0.01862 -0.150895,0.0248 -0.05063,0.0062 -0.101594,0.01047 -0.152445,0.0124 -0.0408,0.0019 -0.08127,0.0026 -0.121957,0.0021 -0.04069,-4.9e-4 -0.08146,-0.0023 -0.121956,-0.0052 -0.04049,-0.0029 -0.08071,-0.0067 -0.120923,-0.01189 -0.04021,-0.0051 -0.08056,-0.01125 -0.120406,-0.0186 -0.03985,-0.0074 -0.07946,-0.01583 -0.118856,-0.02532 -0.0394,-0.0095 -0.07844,-0.02048 -0.117305,-0.03204 -0.03887,-0.01156 -0.0775,-0.02365 -0.115755,-0.03721 -0.03825,-0.01356 -0.07614,-0.02844 -0.113689,-0.04392 -0.03755,-0.01548 -0.07485,-0.03176 -0.111621,-0.04909 -0.03677,-0.01734 -0.07314,-0.03566 -0.109037,-0.05478 -0.0359,-0.01912 -0.07099,-0.03912 -0.105937,-0.05994 -0.03495,-0.02083 -0.06944,-0.04265 -0.103352,-0.06511 -0.03391,-0.02246 -0.06746,-0.04574 -0.100253,-0.06976 -0.03279,-0.02402 -0.06505,-0.04838 -0.09663,-0.0739 -0.03158,-0.02551 -0.06272,-0.05213 -0.09302,-0.07906 -0.03029,-0.02693 -0.05996,-0.05441 -0.08888,-0.08268 -0.05376,-0.05197 -0.104999,-0.106455 -0.153996,-0.16331 -0.049,-0.05686 -0.09534,-0.1160572 -0.13901,-0.1772502 -0.04367,-0.06119 -0.08468,-0.124678 -0.122473,-0.189652 -0.03779,-0.06497 -0.07252,-0.131273 -0.103869,-0.199471 -0.03135,-0.0682 -0.05936,-0.137908 -0.08372,-0.208773 -0.01218,-0.03543 -0.02327,-0.07149 -0.03359,-0.107487 -0.01032,-0.03599 -0.02002,-0.07203 -0.02842,-0.108521 -0.0084,-0.03649 -0.01582,-0.07316 -0.02222,-0.110071 -0.0064,-0.03691 -0.01168,-0.07384 -0.01602,-0.111104 -0.0043,-0.03726 -0.0076,-0.07511 -0.0098,-0.112654 -0.0022,-0.03755 -0.0031,-0.07489 -0.0031,-0.112655 -1.3e-5,-0.04034 8.59e-4,-0.0811 0.0036,-0.12144 0.0028,-0.04034 0.0074,-0.08031 0.01292,-0.120406 0.0056,-0.0401 0.01229,-0.08028 0.02067,-0.119889 0.0084,-0.03961 0.01823,-0.07896 0.02946,-0.1178224 0.01123,-0.038868 0.02362,-0.077359 0.03772,-0.1152385 0.01411,-0.03788 0.03002,-0.074978 0.04703,-0.1116211 0.01701,-0.036644 0.03535,-0.072328 0.05529,-0.1074869 0.01994,-0.035159 0.04119,-0.069926 0.06408,-0.1033529 0.03876,-0.052321 0.101814,-0.1317427 0.176734,-0.2247925 0.07492,-0.09305 0.161698,-0.1997578 0.248563,-0.3064412 0.03381,-0.041525 0.06356,-0.078633 0.09663,-0.1193726 l 0.733286,-0.8971909 c 0.01747,-0.021383 0.03387,-0.043458 0.04858,-0.066146 0.01471,-0.022688 0.02782,-0.04648 0.03979,-0.07028 0.01197,-0.023801 0.02278,-0.047627 0.03204,-0.072347 0.0093,-0.02472 0.01719,-0.050002 0.02377,-0.075448 0.0066,-0.025446 0.01157,-0.051535 0.0155,-0.077515 0.0039,-0.025979 0.007,-0.051712 0.0083,-0.078031 0.0013,-0.02632 0.0013,-0.053115 0,-0.079582 -0.0013,-0.026467 -0.0039,-0.052644 -0.0077,-0.079065 -0.0039,-0.026421 -0.0091,-0.052882 -0.0155,-0.079065 -0.0064,-0.026183 -0.01434,-0.052281 -0.02325,-0.078031 -0.0089,-0.025751 -0.0191,-0.051355 -0.03049,-0.076481 -0.01139,-0.025126 -0.02388,-0.049589 -0.03772,-0.073897 -0.01385,-0.024309 -0.02868,-0.048533 -0.04496,-0.07183 -0.01627,-0.023298 -0.03404,-0.045602 -0.05271,-0.067696 -0.01867,-0.022094 -0.03838,-0.043898 -0.05943,-0.064596 -0.02104,-0.020697 -0.04328,-0.04032 -0.06666,-0.059428 -0.02339,-0.019108 -0.04735,-0.037248 -0.07183,-0.053744 -0.02448,-0.016496 -0.04956,-0.031581 -0.07493,-0.045475 -0.02537,-0.013895 -0.05092,-0.026419 -0.077,-0.037724 -0.02607,-0.011304 -0.05248,-0.021247 -0.07906,-0.029972 -0.02658,-0.00872 -0.05372,-0.016065 -0.08061,-0.022221 -0.02689,-0.00616 -0.0536,-0.011388 -0.08061,-0.014986 -0.02701,-0.0036 -0.0542,-0.00567 -0.08113,-0.00672 -0.01347,-5.257e-4 -0.02698,-5.918e-4 -0.04031,-5.167e-4 z"
       style="fill:url(#linearGradient15);fill-opacity:1;stroke-width:1.43336;stroke-linecap:round;stroke-linejoin:round;paint-order:stroke markers fill"
       id="path9-6" /><path
       d="m 8.1669037,0.02058263 c -0.08026,-7.052e-4 -0.160636,0.00111 -0.240812,0.00568 -0.08018,0.00458 -0.160583,0.011855 -0.240296,0.021704 -0.07971,0.00985 -0.158838,0.022613 -0.237711,0.037724 -0.07887,0.015111 -0.15747,0.032866 -0.235128,0.053227 -0.07766,0.020361 -0.15441,0.043129 -0.230477,0.06873 -0.07607,0.025601 -0.151209,0.053919 -0.225309,0.084749 -0.0741,0.03083 -0.147351,0.064203 -0.219108,0.1002523 -0.07176,0.036049 -0.142318,0.074499 -0.211357,0.1157552 -0.0406,0.024086 -0.08062,0.049443 -0.120406,0.075448 -0.03978,0.026004 -0.07902,0.052779 -0.117822,0.080615 -0.0388,0.027836 -0.07707,0.056718 -0.114722,0.0863 -0.03765,0.029582 -0.07476,0.060227 -0.111104,0.091467 -0.03634,0.03124 -0.07211,0.063306 -0.10697,0.096118 -0.03486,0.032812 -0.06859,0.065955 -0.101803,0.10025227 -0.03321,0.034298 -0.06575,0.069723 -0.09715,0.1054199 -0.0314,0.035697 -0.06205,0.072029 -0.09147,0.1090373 -0.02848,0.034832 -0.108034,0.1309593 -0.16123,0.1953369 -0.05683,0.068767 -0.102221,0.124064 -0.172083,0.2087728 l -0.105937,0.1297078 c -0.141964,0.1729395 -0.28566,0.349039 -0.344165,0.4268474 0.02786,-0.03705 0.0757,-0.09728 0.132809,-0.1679484 l -0.523999,0.6413045 c -0.01747,0.021383 -0.03335,0.043458 -0.04806,0.066146 -0.01471,0.022688 -0.02834,0.045963 -0.04031,0.069763 -0.01197,0.023801 -0.02226,0.048144 -0.03152,0.072864 -0.0093,0.02472 -0.01719,0.050002 -0.02377,0.075448 -0.0066,0.025446 -0.01209,0.051019 -0.01602,0.076998 -0.0039,0.025979 -0.0065,0.052229 -0.0077,0.078548 -0.0013,0.02632 -0.0013,0.052598 0,0.079065 0.0013,0.026467 0.0039,0.05316 0.0077,0.079582 0.0039,0.026421 0.0091,0.052366 0.0155,0.078548 0.0064,0.026183 0.01383,0.052281 0.02274,0.078032 0.0089,0.025751 0.0191,0.051355 0.03049,0.076481 0.01139,0.025126 0.02388,0.050105 0.03772,0.074414 0.01385,0.024309 0.0292,0.048016 0.04547,0.071314 0.01627,0.023298 0.03352,0.046119 0.05219,0.068213 0.01867,0.022094 0.03838,0.043381 0.05943,0.064079 0.02104,0.020698 0.04328,0.040837 0.06666,0.059945 0.02338,0.019108 0.04735,0.036731 0.07183,0.053227 0.02448,0.016496 0.04956,0.031581 0.07493,0.045475 0.02537,0.013895 0.05144,0.02642 0.07752,0.037724 0.02607,0.011304 0.05248,0.021764 0.07906,0.030489 0.02658,0.00872 0.05321,0.016065 0.0801,0.022221 0.02689,0.00616 0.05412,0.010871 0.08113,0.014469 0.02701,0.0036 0.05368,0.00618 0.08061,0.00723 0.02693,0.00105 0.05396,4.51e-4 0.08061,-0.00103 0.02666,-0.00148 0.05287,-0.00426 0.07906,-0.00827 0.02619,-0.00401 0.0525,-0.00898 0.07803,-0.015503 0.02553,-0.00652 0.05026,-0.014227 0.07493,-0.023254 0.02468,-0.00903 0.04924,-0.019485 0.07286,-0.031006 0.02362,-0.01152 0.04635,-0.024238 0.06873,-0.038241 0.02238,-0.014002 0.04418,-0.029519 0.06511,-0.045992 0.02094,-0.016473 0.04116,-0.033777 0.06046,-0.05271 0.0193,-0.018934 0.03782,-0.039079 0.05529,-0.060461 l 0.997915,-1.2216264 c 0.01527,-0.01869 0.02922,-0.038181 0.04238,-0.057878 0.02482,-0.02973 0.05262,-0.064002 0.07596,-0.091467 0.04006,-0.047137 0.07752,-0.090171 0.111104,-0.1276408 0.03358,-0.037469 0.06342,-0.069521 0.08785,-0.093534 0.02291,-0.021353 0.0467,-0.04175 0.0708,-0.061495 0.02409,-0.019745 0.04871,-0.038696 0.0739,-0.056844 0.05037,-0.036296 0.102402,-0.069242 0.156579,-0.099219 0.05418,-0.029977 0.110186,-0.056865 0.167432,-0.080615 0.05725,-0.023751 0.116128,-0.044396 0.1757,-0.062012 0.05957,-0.017616 0.11971,-0.032353 0.180867,-0.043925 0.06116,-0.011572 0.123001,-0.020218 0.185002,-0.025838 0.062,-0.00562 0.124448,-0.00799 0.186552,-0.00775 0.0621,2.394e-4 0.124054,0.00329 0.185518,0.0093 0.04988,0.00461 0.09943,0.01112 0.148828,0.01912 0.0494,0.008 0.09853,0.017675 0.147278,0.028939 0.04874,0.011264 0.09729,0.023843 0.145211,0.03824 0.04792,0.014397 0.09517,0.030142 0.14211,0.047542 0.04694,0.0174 0.09374,0.036571 0.139527,0.056844 0.04578,0.020273 0.09093,0.042097 0.135392,0.065112 0.04446,0.023015 0.08777,0.047237 0.130741,0.072864 0.04297,0.025626 0.08529,0.052508 0.126608,0.080615 0.04594,0.035011 0.09232,0.070217 0.137976,0.1059367 0.04565,0.035719 0.09087,0.07191 0.134875,0.109554 0.04401,0.037644 0.08664,0.076523 0.127641,0.1173055 0.041,0.040783 0.08016,0.083537 0.116789,0.1286744 0.0453,0.052471 0.08847,0.1068632 0.1291903,0.1632975 0.04072,0.056434 0.07903,0.1147802 0.114722,0.1746663 0.03569,0.059886 0.0685,0.1216585 0.0987,0.1844849 0.03021,0.062826 0.0579,0.1269811 0.08217,0.1922363 0.02427,0.065255 0.04517,0.1312649 0.06305,0.1984375 0.01787,0.067173 0.03238,0.1355435 0.04341,0.2041219 0.01102,0.068578 0.0185,0.137233 0.02222,0.2067057 0.0019,0.034736 0.0031,0.070039 0.0031,0.1049032 -5e-5,0.034864 -0.0011,0.069459 -0.0031,0.1043864 -0.0024,0.042042 -0.0064,0.084244 -0.01189,0.1260905 -0.0055,0.041847 -0.01265,0.083179 -0.02119,0.1245402 -0.0085,0.041361 -0.01833,0.082406 -0.02997,0.1229899 -0.01164,0.040584 -0.02503,0.08089 -0.03979,0.1204061 -0.01476,0.039517 -0.0312,0.078631 -0.04909,0.1167887 -0.01789,0.038158 -0.03735,0.075629 -0.05839,0.1121379 -0.02104,0.036509 -0.04349,0.071884 -0.0677,0.1064534 -0.02421,0.03457 -0.05013,0.067913 -0.07752,0.1002523 -0.0503,0.064901 -0.1796723,0.2227364 -0.3012733,0.3710368 -0.03645,0.044451 -0.05285,0.065205 -0.09043,0.1111043 l -0.776699,0.9498144 c -0.01747,0.021383 -0.03387,0.043458 -0.04858,0.066146 -0.01471,0.022688 -0.02782,0.045963 -0.03979,0.069763 -0.01197,0.0238 -0.02278,0.048144 -0.03204,0.072864 -0.0093,0.02472 -0.01719,0.050002 -0.02377,0.075448 -0.0066,0.025446 -0.01157,0.051018 -0.0155,0.076998 -0.0039,0.02598 -0.0064,0.052228 -0.0077,0.078548 -0.0013,0.02632 -0.0013,0.052598 0,0.079065 0.0013,0.026467 0.0039,0.05316 0.0077,0.079582 0.0039,0.026421 0.0086,0.052882 0.01499,0.079065 0.0064,0.026183 0.01435,0.05228 0.02325,0.078031 0.0089,0.025751 0.0191,0.050838 0.03049,0.075964 0.01139,0.025126 0.02388,0.050105 0.03772,0.074414 0.01385,0.024309 0.02868,0.048016 0.04496,0.071313 0.01627,0.023298 0.03404,0.046119 0.05271,0.068213 0.01867,0.022094 0.03839,0.043381 0.05943,0.064079 0.02104,0.020697 0.04328,0.040837 0.06666,0.059945 0.02339,0.019108 0.04735,0.036731 0.07183,0.053227 0.02448,0.016496 0.04956,0.032097 0.07493,0.045992 0.02537,0.013895 0.05092,0.026419 0.077,0.037724 0.02607,0.011304 0.05248,0.021247 0.07906,0.029972 0.02658,0.00872 0.05372,0.016065 0.08062,0.022221 0.02689,0.00616 0.0536,0.010871 0.08061,0.014469 0.02701,0.0036 0.0542,0.00618 0.08113,0.00723 0.02693,0.00105 0.05396,9.677e-4 0.08062,-5.168e-4 0.02666,-0.00148 0.05287,-0.00426 0.07906,-0.00827 0.02619,-0.00401 0.05198,-0.0095 0.07751,-0.01602 0.02553,-0.00652 0.05077,-0.014227 0.07545,-0.023254 0.02468,-0.00903 0.04872,-0.019485 0.07235,-0.031006 0.02362,-0.01152 0.04687,-0.024238 0.06925,-0.03824 0.02238,-0.014002 0.04418,-0.029002 0.06511,-0.045475 0.02094,-0.016473 0.04116,-0.034293 0.06046,-0.053227 0.0193,-0.018934 0.03782,-0.039078 0.05529,-0.060461 l 0.997872,-1.2216308 c 0.01747,-0.021383 0.03335,-0.043458 0.04806,-0.066146 l 5.16e-4,-5.168e-4 c 0.0745,-0.092371 0.173448,-0.214424 0.213424,-0.2645833 0.04428,-0.059122 0.08658,-0.1198723 0.126607,-0.1819011 0.04003,-0.062029 0.078,-0.1250377 0.113689,-0.1896525 0.03569,-0.064615 0.06899,-0.130524 0.100252,-0.197404 0.03126,-0.06688 0.06006,-0.1347809 0.08682,-0.2036051 0.02675,-0.068824 0.05123,-0.1388419 0.07338,-0.2092896 0.02215,-0.070448 0.04247,-0.1416734 0.05994,-0.2134236 0.01747,-0.07175 0.03225,-0.1437924 0.04496,-0.2165243 0.01271,-0.072732 0.02315,-0.1457153 0.03101,-0.219108 0.0061,-0.054684 0.01099,-0.1095174 0.01447,-0.1643311 0.0035,-0.054814 0.0053,-0.1099953 0.0062,-0.1648478 9.11e-4,-0.054853 5.8e-4,-0.1095305 -10e-4,-0.1643311 -0.0016,-0.0548 -0.0042,-0.1096733 -0.0083,-0.164331 -0.0041,-0.054658 -0.0095,-0.1088736 -0.01602,-0.1632976 -0.0065,-0.054424 -0.01436,-0.1091982 -0.02325,-0.1632975 -0.0089,-0.054099 -0.01875,-0.1075467 -0.02997,-0.1612304 -0.01122,-0.053684 -0.02371,-0.1075364 -0.03721,-0.1607138 -0.0135,-0.053177 -0.02819,-0.1060665 -0.04392,-0.1586466 -0.01573,-0.05258 -0.03221,-0.1046876 -0.05013,-0.1565796 -0.01791,-0.051892 -0.03732,-0.1033996 -0.05736,-0.1545125 -0.02005,-0.051113 -0.04091,-0.1016857 -0.06305,-0.1519287 -0.02213,-0.050243 -0.0456,-0.1000627 -0.06976,-0.1493449 -0.02417,-0.049282 -0.0493,-0.098014 -0.07545,-0.1462443 -0.02615,-0.04823 -0.05304,-0.096056 -0.08113,-0.1431437 -0.02809,-0.047088 -0.05735,-0.093672 -0.08733,-0.1395264 -0.03041,-0.046824 -0.06178,-0.092941 -0.09405,-0.1384928 -0.03227,-0.045552 -0.06516,-0.090651 -0.09922,-0.1348755 -0.03406,-0.044224 -0.06912,-0.087384 -0.104903,-0.1302246 -0.03579,-0.042841 -0.07263,-0.085206 -0.110071,-0.1266073 -0.03745,-0.041401 -0.07568,-0.08205 -0.114722,-0.1219564 -0.03904,-0.039906 -0.07881,-0.07895 -0.119372,-0.1173055 -0.04056,-0.038355 -0.082,-0.075906 -0.124024,-0.1126546 -0.04202,-0.036749 -0.08474,-0.072917 -0.128157,-0.10800367 -0.04499,-0.036468 -0.09048,-0.07181 -0.136943,-0.1064535 -0.04646,-0.034644 -0.09374,-0.068526 -0.141593,-0.1012858 -0.04785,-0.03276 -0.09606,-0.064269 -0.145211,-0.095085 -0.04915,-0.030816 -0.09897,-0.061105 -0.149345,-0.089917 -0.05038,-0.028807 -0.101477,-0.056445 -0.152974,-0.083194 -0.0515,-0.026749 -0.1035243,-0.052372 -0.1560623,-0.076998 -0.05254,-0.024625 -0.105672,-0.048354 -0.159164,-0.070797 -0.05349,-0.022443 -0.107388,-0.043362 -0.161747,-0.063562 -0.05436,-0.0202 -0.109193,-0.039464 -0.164331,-0.057361 -0.05514,-0.017897 -0.110568,-0.034591 -0.166398,-0.050126 -0.05583,-0.015535 -0.11203,-0.029778 -0.168465,-0.042891 -0.05644,-0.013113 -0.113063,-0.025025 -0.170016,-0.035657 -0.05695,-0.010631 -0.114182,-0.020332 -0.171566,-0.028422 -0.05738,-0.00809 -0.114871,-0.014665 -0.172599,-0.020154 -0.05773,-0.00549 -0.115649,-0.00957 -0.173633,-0.012402 -0.05798,-0.00283 -0.115996,-0.00454 -0.174149,-0.00465 z"
       style="fill:url(#linearGradient16);fill-opacity:1;stroke-width:0.0392437;stroke-linecap:round;stroke-linejoin:round;paint-order:stroke markers fill"
       id="path8-4" /></g></svg>
